SplineFontDB: 3.2
FontName: bangla15m
FullName: bangla15m
FamilyName: bangla15m
Weight: Regular
Copyright: Copyright 2022 The Noto Project Authors (https://github.com/notofonts/bengali)
Version: 2.003
ItalicAngle: 0
UnderlinePosition: -125
UnderlineWidth: 50
Ascent: 800
Descent: 200
InvalidEm: 0
sfntRevision: 0x000200c5
LayerCount: 2
Layer: 0 1 "Back" 1
Layer: 1 1 "Fore" 0
XUID: [1021 467 -1121320856 3934262]
StyleMap: 0x0040
FSType: 0
OS2Version: 4
OS2_WeightWidthSlopeOnly: 0
OS2_UseTypoMetrics: 1
CreationTime: 1499331109
ModificationTime: 1741114583
PfmFamily: 81
TTFWeight: 400
TTFWidth: 5
LineGap: 0
VLineGap: 0
Panose: 0 0 0 0 0 0 0 0 0 0
OS2TypoAscent: 917
OS2TypoAOffset: 0
OS2TypoDescent: -408
OS2TypoDOffset: 0
OS2TypoLinegap: 0
OS2WinAscent: 917
OS2WinAOffset: 0
OS2WinDescent: 408
OS2WinDOffset: 0
HheadAscent: 917
HheadAOffset: 0
HheadDescent: -408
HheadDOffset: 0
OS2SubXSize: 650
OS2SubYSize: 600
OS2SubXOff: 0
OS2SubYOff: 75
OS2SupXSize: 650
OS2SupYSize: 600
OS2SupXOff: 0
OS2SupYOff: 350
OS2StrikeYSize: 50
OS2StrikeYPos: 322
OS2CapHeight: 622
OS2XHeight: 536
OS2Vendor: 'GOOG'
OS2CodePages: 00000093.00000000
OS2UnicodeRanges: 80018023.00002042.00000000.00000000











































































MarkAttachClasses: 2

StartChar: exclam.beng
Encoding: 33 33 3
Width: 830
Flags: W
LayerCount: 2
Fore
SplineSet
410 112 m 0,0,1
 394 112 394 112 385 123 c 128,-1,2
 376 134 376 134 371.5 161 c 128,-1,3
 367 188 367 188 366 233.5 c 128,-1,4
 365 279 365 279 365 348 c 0,5,6
 365 445 365 445 366 499 c 128,-1,7
 367 553 367 553 373 579 c 128,-1,8
 379 605 379 605 391.5 610.5 c 128,-1,9
 404 616 404 616 427 616 c 0,10,11
 439 616 439 616 446 609 c 128,-1,12
 453 602 453 602 457.5 579 c 128,-1,13
 462 556 462 556 463.5 511 c 128,-1,14
 465 466 465 466 465 389 c 0,15,16
 465 249 465 249 455 180.5 c 128,-1,17
 445 112 445 112 410 112 c 0,0,1
397 593 m 0,18,19
 393 593 393 593 387 581 c 128,-1,20
 381 569 381 569 381 544 c 0,21,22
 381 531 381 531 382.5 518.5 c 128,-1,23
 384 506 384 506 391 506 c 0,24,25
 397 506 397 506 399 510 c 128,-1,26
 401 514 401 514 401 519.5 c 128,-1,27
 401 525 401 525 400.5 532 c 128,-1,28
 400 539 400 539 400 545 c 0,29,30
 401 562 401 562 403 577.5 c 128,-1,31
 405 593 405 593 397 593 c 0,18,19
411 -8 m 0,32,33
 392 -8 392 -8 380.5 4.5 c 128,-1,34
 369 17 369 17 369 38 c 0,35,36
 369 57 369 57 379 73.5 c 128,-1,37
 389 90 389 90 411 90 c 0,38,39
 434 90 434 90 446 74.5 c 128,-1,40
 458 59 458 59 458 38 c 0,41,42
 458 15 458 15 444.5 3.5 c 128,-1,43
 431 -8 431 -8 411 -8 c 0,32,33
393 44 m 0,44,45
 394 55 394 55 398 64 c 128,-1,46
 402 73 402 73 397 73 c 0,47,48
 390 73 390 73 385.5 58.5 c 128,-1,49
 381 44 381 44 381 33 c 0,50,51
 381 23 381 23 386 23 c 0,52,53
 390 23 390 23 391 30.5 c 128,-1,54
 392 38 392 38 393 44 c 0,44,45
EndSplineSet
EndChar

StartChar: quotedbl.beng
Encoding: 34 34 4
Width: 830
Flags: W
LayerCount: 2
Fore
SplineSet
371 714 m 1,0,-1
 351 456 l 1,1,-1
 296 456 l 1,2,-1
 276 714 l 1,3,-1
 371 714 l 1,0,-1
554 714 m 1,4,-1
 534 456 l 1,5,-1
 479 456 l 1,6,-1
 459 714 l 1,7,-1
 554 714 l 1,4,-1
EndSplineSet
EndChar

StartChar: numbersign.beng
Encoding: 35 35 5
Width: 830
Flags: W
LayerCount: 2
Fore
SplineSet
428.954101562 108 m 0,0,1
 410.954101562 108 410.954101562 108 404.454101562 120 c 128,-1,2
 397.954101562 132 397.954101562 132 396.954101562 147 c 0,3,4
 395.954101562 164 395.954101562 164 402.454101562 181 c 128,-1,5
 408.954101562 198 408.954101562 198 407.954101562 211 c 0,6,7
 407.954101562 214 407.954101562 214 400.454101562 215 c 128,-1,8
 392.954101562 216 392.954101562 216 390.954101562 216 c 2,9,-1
 359.954101562 216 l 1,10,11
 356.954101562 207 356.954101562 207 350.954101562 192 c 128,-1,12
 344.954101562 177 344.954101562 177 336.954101562 162 c 128,-1,13
 328.954101562 147 328.954101562 147 318.454101562 136.5 c 128,-1,14
 307.954101562 126 307.954101562 126 294.954101562 126 c 0,15,16
 278.954101562 126 278.954101562 126 272.454101562 136 c 128,-1,17
 265.954101562 146 265.954101562 146 264.954101562 160 c 0,18,19
 263.954101562 177 263.954101562 177 268.454101562 187.5 c 128,-1,20
 272.954101562 198 272.954101562 198 271.954101562 214 c 0,21,22
 271.954101562 222 271.954101562 222 262.454101562 222.5 c 128,-1,23
 252.954101562 223 252.954101562 223 240.954101562 225 c 128,-1,24
 228.954101562 227 228.954101562 227 218.954101562 234.5 c 128,-1,25
 208.954101562 242 208.954101562 242 207.954101562 264 c 0,26,27
 207.954101562 276 207.954101562 276 213.954101562 283.5 c 128,-1,28
 219.954101562 291 219.954101562 291 228.954101562 295 c 128,-1,29
 237.954101562 299 237.954101562 299 248.954101562 300.5 c 128,-1,30
 259.954101562 302 259.954101562 302 269.954101562 302 c 0,31,32
 281.954101562 302 281.954101562 302 289.454101562 309.5 c 128,-1,33
 296.954101562 317 296.954101562 317 300.954101562 328 c 128,-1,34
 304.954101562 339 304.954101562 339 307.454101562 351 c 128,-1,35
 309.954101562 363 309.954101562 363 311.954101562 372 c 1,36,37
 303.954101562 372 303.954101562 372 291.954101562 373.5 c 128,-1,38
 279.954101562 375 279.954101562 375 268.454101562 378.5 c 128,-1,39
 256.954101562 382 256.954101562 382 248.954101562 389.5 c 128,-1,40
 240.954101562 397 240.954101562 397 240.954101562 409 c 0,41,42
 239.954101562 435 239.954101562 435 254.454101562 442 c 128,-1,43
 268.954101562 449 268.954101562 449 306.954101562 449 c 0,44,45
 322.954101562 449 322.954101562 449 328.954101562 452.5 c 128,-1,46
 334.954101562 456 334.954101562 456 339.954101562 472 c 0,47,48
 342.954101562 479 342.954101562 479 345.954101562 489.5 c 128,-1,49
 348.954101562 500 348.954101562 500 354.454101562 510 c 128,-1,50
 359.954101562 520 359.954101562 520 368.954101562 527 c 128,-1,51
 377.954101562 534 377.954101562 534 392.954101562 534 c 0,52,53
 412.954101562 534 412.954101562 534 420.454101562 522 c 128,-1,54
 427.954101562 510 427.954101562 510 428.954101562 499 c 0,55,56
 428.954101562 489 428.954101562 489 425.454101562 480.5 c 128,-1,57
 421.954101562 472 421.954101562 472 422.954101562 462 c 0,58,59
 422.954101562 457 422.954101562 457 427.454101562 454.5 c 128,-1,60
 431.954101562 452 431.954101562 452 437.454101562 450.5 c 128,-1,61
 442.954101562 449 442.954101562 449 448.954101562 449 c 128,-1,62
 454.954101562 449 454.954101562 449 457.954101562 449 c 0,63,64
 467.954101562 449 467.954101562 449 473.954101562 461 c 128,-1,65
 479.954101562 473 479.954101562 473 485.954101562 488 c 128,-1,66
 491.954101562 503 491.954101562 503 499.954101562 515 c 128,-1,67
 507.954101562 527 507.954101562 527 522.954101562 527 c 0,68,69
 542.954101562 527 542.954101562 527 551.954101562 511 c 128,-1,70
 560.954101562 495 560.954101562 495 561.954101562 483 c 0,71,72
 561.954101562 475 561.954101562 475 558.954101562 467.5 c 128,-1,73
 555.954101562 460 555.954101562 460 555.954101562 451 c 0,74,75
 555.954101562 444 555.954101562 444 566.454101562 443.5 c 128,-1,76
 576.954101562 443 576.954101562 443 588.954101562 441.5 c 128,-1,77
 600.954101562 440 600.954101562 440 610.954101562 434.5 c 128,-1,78
 620.954101562 429 620.954101562 429 621.954101562 412 c 0,79,80
 622.954101562 398 622.954101562 398 612.954101562 390 c 128,-1,81
 602.954101562 382 602.954101562 382 589.454101562 377.5 c 128,-1,82
 575.954101562 373 575.954101562 373 560.954101562 371.5 c 128,-1,83
 545.954101562 370 545.954101562 370 536.954101562 370 c 1,84,85
 529.954101562 351 529.954101562 351 525.454101562 335 c 128,-1,86
 520.954101562 319 520.954101562 319 513.954101562 299 c 1,87,88
 524.954101562 299 524.954101562 299 536.954101562 299.5 c 128,-1,89
 548.954101562 300 548.954101562 300 558.954101562 297.5 c 128,-1,90
 568.954101562 295 568.954101562 295 575.454101562 288 c 128,-1,91
 581.954101562 281 581.954101562 281 582.954101562 265 c 0,92,93
 583.954101562 251 583.954101562 251 577.954101562 241.5 c 128,-1,94
 571.954101562 232 571.954101562 232 561.954101562 226 c 128,-1,95
 551.954101562 220 551.954101562 220 540.454101562 217.5 c 128,-1,96
 528.954101562 215 528.954101562 215 517.954101562 215 c 2,97,-1
 512.954101562 215 l 1,98,-1
 501.954101562 216 l 1,99,-1
 496.954101562 216 l 1,100,101
 493.954101562 204 493.954101562 204 490.454101562 186 c 128,-1,102
 486.954101562 168 486.954101562 168 480.454101562 150.5 c 128,-1,103
 473.954101562 133 473.954101562 133 461.954101562 120.5 c 128,-1,104
 449.954101562 108 449.954101562 108 428.954101562 108 c 0,0,1
360.954101562 457 m 0,105,106
 363.954101562 457 363.954101562 457 367.954101562 463 c 128,-1,107
 371.954101562 469 371.954101562 469 375.454101562 476.5 c 128,-1,108
 378.954101562 484 378.954101562 484 381.954101562 492 c 128,-1,109
 384.954101562 500 384.954101562 500 384.954101562 503 c 0,110,111
 384.954101562 508 384.954101562 508 379.954101562 508 c 0,112,113
 375.954101562 509 375.954101562 509 371.454101562 504 c 128,-1,114
 366.954101562 499 366.954101562 499 363.454101562 492 c 128,-1,115
 359.954101562 485 359.954101562 485 357.454101562 477.5 c 128,-1,116
 354.954101562 470 354.954101562 470 354.954101562 466 c 0,117,118
 354.954101562 463 354.954101562 463 356.954101562 460 c 128,-1,119
 358.954101562 457 358.954101562 457 360.954101562 457 c 0,105,106
258.954101562 404 m 0,120,121
 263.954101562 404 263.954101562 404 266.954101562 415 c 128,-1,122
 269.954101562 426 269.954101562 426 268.954101562 430 c 0,123,124
 268.954101562 434 268.954101562 434 265.954101562 434 c 0,125,126
 260.954101562 436 260.954101562 436 256.454101562 429 c 128,-1,127
 251.954101562 422 251.954101562 422 252.954101562 416 c 0,128,129
 252.954101562 404 252.954101562 404 258.954101562 404 c 0,120,121
405.954101562 298 m 0,130,131
 416.954101562 298 416.954101562 298 424.954101562 305.5 c 128,-1,132
 432.954101562 313 432.954101562 313 437.954101562 323.5 c 128,-1,133
 442.954101562 334 442.954101562 334 444.954101562 345.5 c 128,-1,134
 446.954101562 357 446.954101562 357 446.954101562 366 c 0,135,136
 446.954101562 369 446.954101562 369 445.954101562 372 c 128,-1,137
 444.954101562 375 444.954101562 375 440.954101562 375 c 0,138,139
 417.954101562 375 417.954101562 375 408.954101562 369 c 128,-1,140
 399.954101562 363 399.954101562 363 391.954101562 342 c 0,141,142
 389.954101562 336 389.954101562 336 385.454101562 323 c 128,-1,143
 380.954101562 310 380.954101562 310 381.954101562 304 c 2,144,-1
 381.954101562 303 l 1,145,146
 386.954101562 300 386.954101562 300 393.454101562 299 c 128,-1,147
 399.954101562 298 399.954101562 298 405.954101562 298 c 0,130,131
240.954101562 279 m 0,148,149
 240.954101562 285 240.954101562 285 233.954101562 285 c 0,150,151
 224.954101562 285 224.954101562 285 221.954101562 273 c 128,-1,152
 218.954101562 261 218.954101562 261 220.954101562 256 c 256,153,154
 222.954101562 251 222.954101562 251 224.954101562 250 c 0,155,156
 226.954101562 250 226.954101562 250 229.954101562 253.5 c 128,-1,157
 232.954101562 257 232.954101562 257 235.454101562 262 c 128,-1,158
 237.954101562 267 237.954101562 267 239.454101562 272 c 128,-1,159
 240.954101562 277 240.954101562 277 240.954101562 279 c 0,148,149
EndSplineSet
EndChar

StartChar: percent.beng
Encoding: 37 37 6
Width: 830
Flags: W
LayerCount: 2
Fore
SplineSet
277.5 -6 m 0,0,1
 273.5 -6 273.5 -6 266 -4 c 128,-1,2
 258.5 -2 258.5 -2 251.5 2 c 128,-1,3
 244.5 6 244.5 6 239.5 11.5 c 128,-1,4
 234.5 17 234.5 17 234.5 23 c 0,5,6
 234.5 30 234.5 30 238.5 46.5 c 128,-1,7
 242.5 63 242.5 63 254.5 93 c 128,-1,8
 266.5 123 266.5 123 288 168.5 c 128,-1,9
 309.5 214 309.5 214 344.5 280 c 0,10,11
 398.5 383 398.5 383 432 450 c 128,-1,12
 465.5 517 465.5 517 486.5 556 c 0,13,14
 507.5 596 507.5 596 525 607.5 c 128,-1,15
 542.5 619 542.5 619 555.5 619 c 0,16,17
 572.5 619 572.5 619 579 607 c 128,-1,18
 585.5 595 585.5 595 584.5 577.5 c 128,-1,19
 583.5 560 583.5 560 578 541.5 c 128,-1,20
 572.5 523 572.5 523 566.5 510 c 0,21,22
 552.5 481 552.5 481 529.5 434.5 c 128,-1,23
 506.5 388 506.5 388 480 335.5 c 128,-1,24
 453.5 283 453.5 283 426 229 c 128,-1,25
 398.5 175 398.5 175 375.5 130.5 c 128,-1,26
 352.5 86 352.5 86 337 56 c 128,-1,27
 321.5 26 321.5 26 318.5 22 c 0,28,29
 307.5 5 307.5 5 297 -0.5 c 128,-1,30
 286.5 -6 286.5 -6 277.5 -6 c 0,0,1
283.5 393 m 0,31,32
 260.5 393 260.5 393 243 402.5 c 128,-1,33
 225.5 412 225.5 412 213.5 428 c 128,-1,34
 201.5 444 201.5 444 195.5 465 c 128,-1,35
 189.5 486 189.5 486 189.5 510 c 0,36,37
 189.5 529 189.5 529 196 548 c 128,-1,38
 202.5 567 202.5 567 214.5 582.5 c 128,-1,39
 226.5 598 226.5 598 243.5 608 c 128,-1,40
 260.5 618 260.5 618 281.5 618 c 0,41,42
 323.5 618 323.5 618 347.5 594.5 c 128,-1,43
 371.5 571 371.5 571 371.5 517 c 0,44,45
 371.5 490 371.5 490 364.5 467.5 c 128,-1,46
 357.5 445 357.5 445 345.5 428.5 c 128,-1,47
 333.5 412 333.5 412 317.5 402.5 c 128,-1,48
 301.5 393 301.5 393 283.5 393 c 0,31,32
283.5 460 m 0,49,50
 290.5 460 290.5 460 295.5 465.5 c 128,-1,51
 300.5 471 300.5 471 303.5 479.5 c 128,-1,52
 306.5 488 306.5 488 308 498 c 128,-1,53
 309.5 508 309.5 508 309.5 517 c 0,54,55
 309.5 534 309.5 534 302.5 546 c 128,-1,56
 295.5 558 295.5 558 283.5 558 c 0,57,58
 272.5 558 272.5 558 264.5 543.5 c 128,-1,59
 256.5 529 256.5 529 256.5 512 c 256,60,61
 256.5 495 256.5 495 263.5 477.5 c 128,-1,62
 270.5 460 270.5 460 283.5 460 c 0,49,50
215.5 512 m 256,63,64
 215.5 528 215.5 528 215.5 535.5 c 128,-1,65
 215.5 543 215.5 543 212.5 543 c 0,66,67
 206.5 543 206.5 543 204.5 530.5 c 128,-1,68
 202.5 518 202.5 518 202.5 514 c 0,69,70
 202.5 511 202.5 511 202.5 505.5 c 128,-1,71
 202.5 500 202.5 500 204 494.5 c 128,-1,72
 205.5 489 205.5 489 208 484.5 c 128,-1,73
 210.5 480 210.5 480 215.5 480 c 0,74,75
 219.5 480 219.5 480 217.5 488 c 128,-1,76
 215.5 496 215.5 496 215.5 512 c 256,63,64
240.5 453 m 0,77,78
 240.5 464 240.5 464 231.5 464 c 0,79,80
 225.5 464 225.5 464 225.5 456 c 0,81,82
 225.5 454 225.5 454 228 450 c 128,-1,83
 230.5 446 230.5 446 233.5 446 c 0,84,85
 240.5 446 240.5 446 240.5 453 c 0,77,78
552.5 -6 m 0,86,87
 529.5 -6 529.5 -6 512 3.5 c 128,-1,88
 494.5 13 494.5 13 482.5 29 c 128,-1,89
 470.5 45 470.5 45 464.5 66 c 128,-1,90
 458.5 87 458.5 87 458.5 111 c 0,91,92
 458.5 130 458.5 130 465 149 c 128,-1,93
 471.5 168 471.5 168 483.5 183.5 c 128,-1,94
 495.5 199 495.5 199 512.5 209 c 128,-1,95
 529.5 219 529.5 219 550.5 219 c 0,96,97
 592.5 219 592.5 219 616.5 195.5 c 128,-1,98
 640.5 172 640.5 172 640.5 118 c 0,99,100
 640.5 91 640.5 91 633.5 68.5 c 128,-1,101
 626.5 46 626.5 46 614.5 29.5 c 128,-1,102
 602.5 13 602.5 13 586.5 3.5 c 128,-1,103
 570.5 -6 570.5 -6 552.5 -6 c 0,86,87
552.5 61 m 0,104,105
 559.5 61 559.5 61 564.5 66.5 c 128,-1,106
 569.5 72 569.5 72 572.5 80.5 c 128,-1,107
 575.5 89 575.5 89 577 99 c 128,-1,108
 578.5 109 578.5 109 578.5 118 c 0,109,110
 578.5 135 578.5 135 571.5 147 c 128,-1,111
 564.5 159 564.5 159 552.5 159 c 0,112,113
 541.5 159 541.5 159 533.5 144.5 c 128,-1,114
 525.5 130 525.5 130 525.5 113 c 256,115,116
 525.5 96 525.5 96 532.5 78.5 c 128,-1,117
 539.5 61 539.5 61 552.5 61 c 0,104,105
484.5 113 m 256,118,119
 484.5 129 484.5 129 484.5 136.5 c 128,-1,120
 484.5 144 484.5 144 481.5 144 c 0,121,122
 475.5 144 475.5 144 473.5 131.5 c 128,-1,123
 471.5 119 471.5 119 471.5 115 c 0,124,125
 471.5 112 471.5 112 471.5 106.5 c 128,-1,126
 471.5 101 471.5 101 473 95.5 c 128,-1,127
 474.5 90 474.5 90 477 85.5 c 128,-1,128
 479.5 81 479.5 81 484.5 81 c 0,129,130
 488.5 81 488.5 81 486.5 89 c 128,-1,131
 484.5 97 484.5 97 484.5 113 c 256,118,119
275.5 82 m 0,132,133
 270.5 87 270.5 87 265 82 c 128,-1,134
 259.5 77 259.5 77 256.5 69 c 256,135,136
 253.5 61 253.5 61 250.5 50 c 128,-1,137
 247.5 39 247.5 39 247.5 34 c 0,138,139
 248.5 23 248.5 23 252 23 c 128,-1,140
 255.5 23 255.5 23 262.5 40 c 0,141,142
 267.5 52 267.5 52 272.5 66 c 128,-1,143
 277.5 80 277.5 80 275.5 82 c 0,132,133
509.5 54 m 0,144,145
 509.5 65 509.5 65 500.5 65 c 0,146,147
 494.5 65 494.5 65 494.5 57 c 0,148,149
 494.5 55 494.5 55 497 51 c 128,-1,150
 499.5 47 499.5 47 502.5 47 c 0,151,152
 509.5 47 509.5 47 509.5 54 c 0,144,145
EndSplineSet
EndChar

StartChar: quotesingle.beng
Encoding: 39 39 7
Width: 830
Flags: W
LayerCount: 2
Fore
SplineSet
462.5 714 m 1,0,-1
 442.5 456 l 1,1,-1
 387.5 456 l 1,2,-1
 367.5 714 l 1,3,-1
 462.5 714 l 1,0,-1
EndSplineSet
EndChar

StartChar: parenleft.beng
Encoding: 40 40 8
Width: 830
Flags: W
LayerCount: 2
Fore
SplineSet
479.5 -72 m 0,0,1
 425.5 -51 425.5 -51 389 -13 c 128,-1,2
 352.5 25 352.5 25 330 71.5 c 128,-1,3
 307.5 118 307.5 118 297.5 169.5 c 128,-1,4
 287.5 221 287.5 221 287.5 269 c 0,5,6
 287.5 315 287.5 315 296 363 c 128,-1,7
 304.5 411 304.5 411 320 456 c 128,-1,8
 335.5 501 335.5 501 358.5 540.5 c 128,-1,9
 381.5 580 381.5 580 409.5 609 c 0,10,11
 436.5 636 436.5 636 461.5 654 c 128,-1,12
 486.5 672 486.5 672 506.5 672 c 0,13,14
 521.5 672 521.5 672 530.5 660 c 128,-1,15
 539.5 648 539.5 648 539.5 636 c 0,16,17
 539.5 628 539.5 628 527 617 c 128,-1,18
 514.5 606 514.5 606 491.5 582 c 0,19,20
 461.5 550 461.5 550 441.5 512 c 128,-1,21
 421.5 474 421.5 474 409.5 433.5 c 128,-1,22
 397.5 393 397.5 393 393 351.5 c 128,-1,23
 388.5 310 388.5 310 388.5 272 c 256,24,25
 388.5 234 388.5 234 394.5 192.5 c 128,-1,26
 400.5 151 400.5 151 414.5 113 c 128,-1,27
 428.5 75 428.5 75 451.5 43.5 c 128,-1,28
 474.5 12 474.5 12 508.5 -7 c 0,29,30
 525.5 -16 525.5 -16 534 -22.5 c 128,-1,31
 542.5 -29 542.5 -29 542.5 -43 c 0,32,33
 542.5 -56 542.5 -56 529.5 -66 c 128,-1,34
 516.5 -76 516.5 -76 499.5 -76 c 0,35,36
 488.5 -76 488.5 -76 479.5 -72 c 0,0,1
465.5 620 m 0,37,38
 470.5 625 470.5 625 476.5 630.5 c 128,-1,39
 482.5 636 482.5 636 475.5 636 c 0,40,41
 467.5 636 467.5 636 457 628.5 c 128,-1,42
 446.5 621 446.5 621 436.5 611 c 128,-1,43
 426.5 601 426.5 601 420 590.5 c 128,-1,44
 413.5 580 413.5 580 413.5 574 c 0,45,46
 413.5 569 413.5 569 417.5 569 c 0,47,48
 422.5 569 422.5 569 427 575.5 c 128,-1,49
 431.5 582 431.5 582 434.5 587 c 0,50,51
 438.5 594 438.5 594 445.5 601.5 c 128,-1,52
 452.5 609 452.5 609 465.5 620 c 0,37,38
407.5 547 m 0,53,54
 407.5 555 407.5 555 401.5 555 c 0,55,56
 389.5 555 389.5 555 389.5 547 c 0,57,58
 389.5 541 389.5 541 392.5 539.5 c 128,-1,59
 395.5 538 395.5 538 397.5 538 c 256,60,61
 399.5 538 399.5 538 403.5 539.5 c 128,-1,62
 407.5 541 407.5 541 407.5 547 c 0,53,54
EndSplineSet
EndChar

StartChar: parenright.beng
Encoding: 41 41 9
Width: 830
Flags: W
LayerCount: 2
Fore
SplineSet
344 -93 m 0,0,1
 330 -93 330 -93 317.5 -84.5 c 128,-1,2
 305 -76 305 -76 305 -66 c 0,3,4
 305 -57 305 -57 315 -43 c 128,-1,5
 325 -29 325 -29 339.5 -8.5 c 128,-1,6
 354 12 354 12 371.5 41 c 128,-1,7
 389 70 389 70 403.5 108 c 128,-1,8
 418 146 418 146 428 195 c 128,-1,9
 438 244 438 244 438 305 c 0,10,11
 438 352 438 352 430.5 398.5 c 128,-1,12
 423 445 423 445 409 484 c 128,-1,13
 395 523 395 523 375.5 552 c 128,-1,14
 356 581 356 581 332 594 c 0,15,16
 320 601 320 601 306 610.5 c 128,-1,17
 292 620 292 620 292 638 c 0,18,19
 292 653 292 653 305 662.5 c 128,-1,20
 318 672 318 672 339 672 c 0,21,22
 376 672 376 672 412 646 c 128,-1,23
 448 620 448 620 476 572 c 128,-1,24
 504 524 504 524 521 455.5 c 128,-1,25
 538 387 538 387 538 302 c 0,26,27
 538 227 538 227 529.5 175 c 128,-1,28
 521 123 521 123 505.5 85 c 128,-1,29
 490 47 490 47 469 17 c 128,-1,30
 448 -13 448 -13 423 -44 c 0,31,32
 400 -73 400 -73 380.5 -83 c 128,-1,33
 361 -93 361 -93 344 -93 c 0,0,1
312 621 m 0,34,35
 316 621 316 621 319.5 628.5 c 128,-1,36
 323 636 323 636 323 644 c 0,37,38
 323 657 323 657 316 657 c 0,39,40
 312 657 312 657 308.5 649.5 c 128,-1,41
 305 642 305 642 305 634 c 0,42,43
 305 621 305 621 312 621 c 0,34,35
339 -60 m 256,44,45
 344 -50 344 -50 344.5 -40 c 128,-1,46
 345 -30 345 -30 341 -29 c 0,47,48
 339 -29 339 -29 335.5 -33 c 128,-1,49
 332 -37 332 -37 328.5 -43 c 128,-1,50
 325 -49 325 -49 322.5 -55 c 128,-1,51
 320 -61 320 -61 320 -64 c 0,52,53
 320 -72 320 -72 324 -73 c 0,54,55
 327 -74 327 -74 330.5 -72 c 128,-1,56
 334 -70 334 -70 339 -60 c 256,44,45
EndSplineSet
EndChar

StartChar: asterisk.beng
Encoding: 42 42 10
Width: 830
Flags: W
LayerCount: 2
Fore
SplineSet
462.5 760 m 1,0,-1
 442.5 568 l 1,1,-1
 634.5 622 l 1,2,-1
 648.5 530 l 1,3,-1
 464.5 515 l 1,4,-1
 583.5 357 l 1,5,-1
 497.5 310 l 1,6,-1
 412.5 485 l 1,7,-1
 335.5 310 l 1,8,-1
 246.5 357 l 1,9,-1
 363.5 515 l 1,10,-1
 181.5 530 l 1,11,-1
 195.5 622 l 1,12,-1
 385.5 568 l 1,13,-1
 364.5 760 l 1,14,-1
 462.5 760 l 1,0,-1
EndSplineSet
EndChar

StartChar: plus.beng
Encoding: 43 43 11
Width: 830
Flags: W
LayerCount: 2
Fore
SplineSet
451 388 m 1,0,-1
 650 388 l 1,1,-1
 650 317 l 1,2,-1
 451 317 l 1,3,-1
 451 111 l 1,4,-1
 379 111 l 1,5,-1
 379 317 l 1,6,-1
 180 317 l 1,7,-1
 180 388 l 1,8,-1
 379 388 l 1,9,-1
 379 595 l 1,10,-1
 451 595 l 1,11,-1
 451 388 l 1,0,-1
EndSplineSet
EndChar

StartChar: comma.beng
Encoding: 44 44 12
Width: 830
Flags: W
LayerCount: 2
Fore
SplineSet
490.5 105 m 1,0,1
 481.5 70 481.5 70 467.5 29 c 128,-1,2
 453.5 -12 453.5 -12 437 -52.5 c 128,-1,3
 420.5 -93 420.5 -93 404.5 -129 c 1,4,-1
 339.5 -129 l 1,5,6
 349.5 -91 349.5 -91 359 -47.5 c 128,-1,7
 368.5 -4 368.5 -4 376.5 38.5 c 128,-1,8
 384.5 81 384.5 81 389.5 116 c 1,9,-1
 483.5 116 l 1,10,-1
 490.5 105 l 1,0,1
EndSplineSet
EndChar

StartChar: hyphen.beng
Encoding: 45 45 13
Width: 830
Flags: W
LayerCount: 2
Fore
SplineSet
294 229 m 1,0,-1
 294 307 l 1,1,-1
 536 307 l 1,2,-1
 536 229 l 1,3,-1
 294 229 l 1,0,-1
EndSplineSet
EndChar

StartChar: period.beng
Encoding: 46 46 14
Width: 830
Flags: W
LayerCount: 2
Fore
SplineSet
409.5 -8 m 0,0,1
 369.5 -8 369.5 -8 341 20 c 128,-1,2
 312.5 48 312.5 48 312.5 92 c 0,3,4
 312.5 116 312.5 116 321 137.5 c 128,-1,5
 329.5 159 329.5 159 344.5 174.5 c 128,-1,6
 359.5 190 359.5 190 380.5 199.5 c 128,-1,7
 401.5 209 401.5 209 426.5 209 c 0,8,9
 446.5 209 446.5 209 463.5 200.5 c 128,-1,10
 480.5 192 480.5 192 492.5 177 c 128,-1,11
 504.5 162 504.5 162 511 143 c 128,-1,12
 517.5 124 517.5 124 517.5 103 c 0,13,14
 517.5 76 517.5 76 509 55.5 c 128,-1,15
 500.5 35 500.5 35 485.5 21 c 128,-1,16
 470.5 7 470.5 7 451 -0.5 c 128,-1,17
 431.5 -8 431.5 -8 409.5 -8 c 0,0,1
372.5 165 m 0,18,19
 379.5 172 379.5 172 381 177 c 128,-1,20
 382.5 182 382.5 182 380.5 182 c 0,21,22
 372.5 182 372.5 182 363.5 174.5 c 128,-1,23
 354.5 167 354.5 167 347 156.5 c 128,-1,24
 339.5 146 339.5 146 334.5 134 c 128,-1,25
 329.5 122 329.5 122 329.5 112 c 0,26,27
 329.5 110 329.5 110 331 104 c 128,-1,28
 332.5 98 332.5 98 335.5 98 c 0,29,30
 339.5 98 339.5 98 345.5 120 c 0,31,32
 348.5 134 348.5 134 356.5 145.5 c 128,-1,33
 364.5 157 364.5 157 372.5 165 c 0,18,19
413.5 49 m 0,34,35
 425.5 49 425.5 49 442 63 c 128,-1,36
 458.5 77 458.5 77 458.5 103 c 0,37,38
 458.5 123 458.5 123 448 136.5 c 128,-1,39
 437.5 150 437.5 150 420.5 150 c 256,40,41
 403.5 150 403.5 150 389.5 136.5 c 128,-1,42
 375.5 123 375.5 123 375.5 99 c 256,43,44
 375.5 75 375.5 75 386.5 62 c 128,-1,45
 397.5 49 397.5 49 413.5 49 c 0,34,35
EndSplineSet
EndChar

StartChar: slash.beng
Encoding: 47 47 15
Width: 830
Flags: W
LayerCount: 2
Fore
SplineSet
301.5 -77 m 0,0,1
 297.5 -77 297.5 -77 286 -75 c 128,-1,2
 274.5 -73 274.5 -73 262.5 -68.5 c 128,-1,3
 250.5 -64 250.5 -64 241.5 -57 c 128,-1,4
 232.5 -50 232.5 -50 232.5 -41 c 0,5,6
 232.5 -38 232.5 -38 243 -9.5 c 128,-1,7
 253.5 19 253.5 19 270.5 64 c 128,-1,8
 287.5 109 287.5 109 310 166 c 128,-1,9
 332.5 223 332.5 223 356.5 283 c 128,-1,10
 380.5 343 380.5 343 404.5 402 c 128,-1,11
 428.5 461 428.5 461 448.5 509.5 c 128,-1,12
 468.5 558 468.5 558 483.5 592 c 128,-1,13
 498.5 626 498.5 626 504.5 636 c 0,14,15
 511.5 647 511.5 647 523 656.5 c 128,-1,16
 534.5 666 534.5 666 548.5 666 c 0,17,18
 555.5 666 555.5 666 564 663.5 c 128,-1,19
 572.5 661 572.5 661 580 656.5 c 128,-1,20
 587.5 652 587.5 652 592.5 646 c 128,-1,21
 597.5 640 597.5 640 597.5 633 c 0,22,23
 597.5 625 597.5 625 589 599.5 c 128,-1,24
 580.5 574 580.5 574 569 544.5 c 128,-1,25
 557.5 515 557.5 515 546 487.5 c 128,-1,26
 534.5 460 534.5 460 528.5 447 c 0,27,28
 524.5 438 524.5 438 513.5 410.5 c 128,-1,29
 502.5 383 502.5 383 487.5 344.5 c 128,-1,30
 472.5 306 472.5 306 454.5 259.5 c 128,-1,31
 436.5 213 436.5 213 417.5 166.5 c 128,-1,32
 398.5 120 398.5 120 380 76 c 128,-1,33
 361.5 32 361.5 32 346 -2 c 128,-1,34
 330.5 -36 330.5 -36 318.5 -56.5 c 128,-1,35
 306.5 -77 306.5 -77 301.5 -77 c 0,0,1
276.5 -37 m 0,36,37
 280.5 -25 280.5 -25 288.5 -7 c 128,-1,38
 296.5 11 296.5 11 303.5 27.5 c 128,-1,39
 310.5 44 310.5 44 314 56.5 c 128,-1,40
 317.5 69 317.5 69 312.5 70 c 0,41,42
 310.5 71 310.5 71 305.5 71 c 128,-1,43
 300.5 71 300.5 71 297.5 66 c 0,44,45
 295.5 62 295.5 62 289 48.5 c 128,-1,46
 282.5 35 282.5 35 276 19.5 c 128,-1,47
 269.5 4 269.5 4 264.5 -10.5 c 128,-1,48
 259.5 -25 259.5 -25 259.5 -31 c 0,49,50
 259.5 -38 259.5 -38 267 -40 c 128,-1,51
 274.5 -42 274.5 -42 276.5 -37 c 0,36,37
EndSplineSet
EndChar

StartChar: zero.beng
Encoding: 48 48 16
Width: 830
Flags: W
LayerCount: 2
Fore
SplineSet
420 -17 m 0,0,1
 368 -17 368 -17 333.5 11.5 c 128,-1,2
 299 40 299 40 278 86 c 128,-1,3
 257 132 257 132 248.5 190 c 128,-1,4
 240 248 240 248 240 307 c 256,5,6
 240 366 240 366 250 422.5 c 128,-1,7
 260 479 260 479 282.5 523 c 128,-1,8
 305 567 305 567 341 594 c 128,-1,9
 377 621 377 621 428 621 c 0,10,11
 462 621 462 621 487 604 c 128,-1,12
 512 587 512 587 530 560 c 128,-1,13
 548 533 548 533 560 499 c 128,-1,14
 572 465 572 465 578.5 430 c 128,-1,15
 585 395 585 395 587.5 362.5 c 128,-1,16
 590 330 590 330 590 307 c 0,17,18
 590 258 590 258 581 201 c 128,-1,19
 572 144 572 144 552 95.5 c 128,-1,20
 532 47 532 47 499.5 15 c 128,-1,21
 467 -17 467 -17 420 -17 c 0,0,1
313 512 m 0,22,23
 322 531 322 531 327 540.5 c 128,-1,24
 332 550 332 550 332 553 c 0,25,26
 332 555 332 555 328 555.5 c 128,-1,27
 324 556 324 556 319 549 c 0,28,29
 315 543 315 543 308 530.5 c 128,-1,30
 301 518 301 518 294 504 c 128,-1,31
 287 490 287 490 282.5 476.5 c 128,-1,32
 278 463 278 463 278 456 c 256,33,34
 278 449 278 449 283 451 c 128,-1,35
 288 453 288 453 291 460 c 0,36,37
 294 468 294 468 299 481 c 128,-1,38
 304 494 304 494 313 512 c 0,22,23
421 59 m 0,39,40
 452 59 452 59 470 85 c 128,-1,41
 488 111 488 111 497.5 150 c 128,-1,42
 507 189 507 189 509.5 234 c 128,-1,43
 512 279 512 279 512 316 c 0,44,45
 512 339 512 339 509 377 c 128,-1,46
 506 415 506 415 497 451.5 c 128,-1,47
 488 488 488 488 471.5 514.5 c 128,-1,48
 455 541 455 541 428 541 c 0,49,50
 406 541 406 541 390 514 c 128,-1,51
 374 487 374 487 363.5 449.5 c 128,-1,52
 353 412 353 412 348 371 c 128,-1,53
 343 330 343 330 343 301 c 0,54,55
 343 286 343 286 343 262.5 c 128,-1,56
 343 239 343 239 345 212 c 128,-1,57
 347 185 347 185 351.5 158 c 128,-1,58
 356 131 356 131 364.5 109 c 128,-1,59
 373 87 373 87 387 73 c 128,-1,60
 401 59 401 59 421 59 c 0,39,40
EndSplineSet
EndChar

StartChar: one.beng
Encoding: 49 49 17
Width: 830
Flags: W
LayerCount: 2
Fore
SplineSet
464.5 0 m 0,0,1
 419.5 0 419.5 0 419.5 47 c 2,2,-1
 419.5 450 l 2,3,4
 419.5 459 419.5 459 419 466 c 128,-1,5
 418.5 473 418.5 473 416.5 473 c 0,6,7
 413.5 473 413.5 473 407.5 465.5 c 128,-1,8
 401.5 458 401.5 458 394 448.5 c 128,-1,9
 386.5 439 386.5 439 378 429.5 c 128,-1,10
 369.5 420 369.5 420 361.5 416 c 0,11,12
 352.5 411 352.5 411 342.5 411 c 0,13,14
 328.5 411 328.5 411 319.5 421 c 128,-1,15
 310.5 431 310.5 431 310.5 445 c 0,16,17
 310.5 450 310.5 450 320 463 c 128,-1,18
 329.5 476 329.5 476 336.5 486 c 0,19,20
 345.5 499 345.5 499 363.5 521 c 128,-1,21
 381.5 543 381.5 543 402 564 c 128,-1,22
 422.5 585 422.5 585 441.5 600.5 c 128,-1,23
 460.5 616 460.5 616 472.5 616 c 0,24,25
 478.5 616 478.5 616 486.5 615 c 128,-1,26
 494.5 614 494.5 614 502 611 c 128,-1,27
 509.5 608 509.5 608 514.5 602.5 c 128,-1,28
 519.5 597 519.5 597 519.5 587 c 2,29,-1
 519.5 48 l 2,30,31
 519.5 30 519.5 30 503 15 c 128,-1,32
 486.5 0 486.5 0 464.5 0 c 0,0,1
463.5 592 m 0,33,34
 468.5 600 468.5 600 471.5 602.5 c 128,-1,35
 474.5 605 474.5 605 471.5 606 c 0,36,37
 469.5 606 469.5 606 462.5 603.5 c 128,-1,38
 455.5 601 455.5 601 449.5 595 c 0,39,40
 444.5 590 444.5 590 436.5 583 c 128,-1,41
 428.5 576 428.5 576 428.5 572 c 0,42,43
 428.5 569 428.5 569 432.5 568 c 0,44,45
 439.5 567 439.5 567 449.5 577 c 128,-1,46
 459.5 587 459.5 587 463.5 592 c 0,33,34
452.5 45 m 0,47,48
 452.5 53 452.5 53 450 58 c 128,-1,49
 447.5 63 447.5 63 447.5 74 c 0,50,51
 447.5 79 447.5 79 447 83 c 128,-1,52
 446.5 87 446.5 87 441.5 87 c 0,53,54
 437.5 87 437.5 87 435.5 77.5 c 128,-1,55
 433.5 68 433.5 68 433.5 57 c 128,-1,56
 433.5 46 433.5 46 435.5 36.5 c 128,-1,57
 437.5 27 437.5 27 441.5 27 c 0,58,59
 452.5 27 452.5 27 452.5 45 c 0,47,48
EndSplineSet
EndChar

StartChar: two.beng
Encoding: 50 50 18
Width: 830
Flags: W
LayerCount: 2
Fore
SplineSet
284.2109375 0 m 2,0,1
 275.2109375 0 275.2109375 0 267.7109375 13 c 128,-1,2
 260.2109375 26 260.2109375 26 262.2109375 38 c 256,3,4
 264.2109375 50 264.2109375 50 278.2109375 68 c 128,-1,5
 292.2109375 86 292.2109375 86 308.2109375 106 c 0,6,7
 344.2109375 151 344.2109375 151 373.2109375 198.5 c 128,-1,8
 402.2109375 246 402.2109375 246 422.7109375 292.5 c 128,-1,9
 443.2109375 339 443.2109375 339 454.2109375 383 c 128,-1,10
 465.2109375 427 465.2109375 427 465.2109375 465 c 0,11,12
 465.2109375 506 465.2109375 506 447.7109375 520 c 128,-1,13
 430.2109375 534 430.2109375 534 410.2109375 534 c 256,14,15
 390.2109375 534 390.2109375 534 375.2109375 517.5 c 128,-1,16
 360.2109375 501 360.2109375 501 360.2109375 464 c 0,17,18
 360.2109375 442 360.2109375 442 365.2109375 430.5 c 128,-1,19
 370.2109375 419 370.2109375 419 370.2109375 403 c 0,20,21
 370.2109375 389 370.2109375 389 354.7109375 383 c 128,-1,22
 339.2109375 377 339.2109375 377 328.2109375 377 c 0,23,24
 302.2109375 377 302.2109375 377 284.7109375 403.5 c 128,-1,25
 267.2109375 430 267.2109375 430 267.2109375 470 c 0,26,27
 267.2109375 502 267.2109375 502 277.7109375 529.5 c 128,-1,28
 288.2109375 557 288.2109375 557 307.7109375 577.5 c 128,-1,29
 327.2109375 598 327.2109375 598 353.7109375 610 c 128,-1,30
 380.2109375 622 380.2109375 622 411.2109375 622 c 0,31,32
 441.2109375 622 441.2109375 622 469.7109375 610.5 c 128,-1,33
 498.2109375 599 498.2109375 599 520.2109375 577.5 c 128,-1,34
 542.2109375 556 542.2109375 556 555.2109375 525.5 c 128,-1,35
 568.2109375 495 568.2109375 495 568.2109375 457 c 0,36,37
 568.2109375 410 568.2109375 410 556.2109375 364 c 128,-1,38
 544.2109375 318 544.2109375 318 525.7109375 277 c 128,-1,39
 507.2109375 236 507.2109375 236 486.2109375 201 c 128,-1,40
 465.2109375 166 465.2109375 166 446.7109375 140 c 128,-1,41
 428.2109375 114 428.2109375 114 416.2109375 98 c 128,-1,42
 404.2109375 82 404.2109375 82 404.2109375 79 c 1,43,44
 407.2109375 79 407.2109375 79 412.2109375 79 c 2,45,-1
 436.2109375 79 l 1,46,-1
 523.2109375 82 l 2,47,48
 541.2109375 83 541.2109375 83 550.2109375 79 c 128,-1,49
 559.2109375 75 559.2109375 75 563.2109375 67.5 c 128,-1,50
 567.2109375 60 567.2109375 60 567.2109375 50 c 128,-1,51
 567.2109375 40 567.2109375 40 567.2109375 29 c 0,52,53
 567.2109375 11 567.2109375 11 556.7109375 5.5 c 128,-1,54
 546.2109375 0 546.2109375 0 514.2109375 0 c 2,55,-1
 284.2109375 0 l 2,0,1
300.2109375 488 m 0,56,57
 301.2109375 500 301.2109375 500 299.2109375 507 c 128,-1,58
 297.2109375 514 297.2109375 514 294.2109375 513 c 0,59,60
 290.2109375 513 290.2109375 513 287.7109375 506.5 c 128,-1,61
 285.2109375 500 285.2109375 500 284.7109375 491.5 c 128,-1,62
 284.2109375 483 284.2109375 483 284.2109375 475.5 c 128,-1,63
 284.2109375 468 284.2109375 468 284.2109375 465 c 0,64,65
 286.2109375 452 286.2109375 452 289.2109375 450 c 0,66,67
 294.2109375 445 294.2109375 445 296.2109375 452 c 128,-1,68
 298.2109375 459 298.2109375 459 300.2109375 488 c 0,56,57
302.2109375 424 m 0,69,70
 302.2109375 431 302.2109375 431 295.2109375 431 c 256,71,72
 288.2109375 431 288.2109375 431 288.2109375 423 c 0,73,74
 288.2109375 421 288.2109375 421 290.2109375 418 c 128,-1,75
 292.2109375 415 292.2109375 415 294.2109375 415 c 0,76,77
 298.2109375 415 298.2109375 415 300.2109375 418 c 128,-1,78
 302.2109375 421 302.2109375 421 302.2109375 424 c 0,69,70
301.2109375 50 m 0,79,80
 309.2109375 69 309.2109375 69 306.2109375 69 c 0,81,82
 299.2109375 69 299.2109375 69 291.7109375 60 c 128,-1,83
 284.2109375 51 284.2109375 51 284.2109375 40 c 0,84,85
 284.2109375 32 284.2109375 32 288.2109375 32 c 0,86,87
 293.2109375 32 293.2109375 32 301.2109375 50 c 0,79,80
EndSplineSet
EndChar

StartChar: three.beng
Encoding: 51 51 19
Width: 830
Flags: W
LayerCount: 2
Fore
SplineSet
467 486 m 0,0,1
 467 515 467 515 453 527.5 c 128,-1,2
 439 540 439 540 411 540 c 0,3,4
 378 540 378 540 362 514.5 c 128,-1,5
 346 489 346 489 346 430 c 0,6,7
 346 416 346 416 335.5 410 c 128,-1,8
 325 404 325 404 314 404 c 0,9,10
 253 404 253 404 253 493 c 0,11,12
 253 520 253 520 266.5 543.5 c 128,-1,13
 280 567 280 567 301.5 584.5 c 128,-1,14
 323 602 323 602 351 612 c 128,-1,15
 379 622 379 622 407 622 c 0,16,17
 451 622 451 622 482.5 611 c 128,-1,18
 514 600 514 600 534 581 c 128,-1,19
 554 562 554 562 564 537.5 c 128,-1,20
 574 513 574 513 574 487 c 0,21,22
 574 447 574 447 556.5 418 c 128,-1,23
 539 389 539 389 517.5 368.5 c 128,-1,24
 496 348 496 348 478.5 336 c 128,-1,25
 461 324 461 324 461 318 c 256,26,27
 461 312 461 312 479 305.5 c 128,-1,28
 497 299 497 299 519 284 c 128,-1,29
 541 269 541 269 559 241.5 c 128,-1,30
 577 214 577 214 577 167 c 0,31,32
 577 121 577 121 559.5 88.5 c 128,-1,33
 542 56 542 56 513.5 35 c 128,-1,34
 485 14 485 14 449 4 c 128,-1,35
 413 -6 413 -6 376 -6 c 0,36,37
 360 -6 360 -6 340 -1.5 c 128,-1,38
 320 3 320 3 302.5 12.5 c 128,-1,39
 285 22 285 22 273 36.5 c 128,-1,40
 261 51 261 51 261 71 c 0,41,42
 261 86 261 86 267 95.5 c 128,-1,43
 273 105 273 105 284 105 c 0,44,45
 297 105 297 105 307.5 100.5 c 128,-1,46
 318 96 318 96 328.5 90.5 c 128,-1,47
 339 85 339 85 351 80.5 c 128,-1,48
 363 76 363 76 378 76 c 0,49,50
 405 76 405 76 423 84 c 128,-1,51
 441 92 441 92 451.5 105 c 128,-1,52
 462 118 462 118 466 134 c 128,-1,53
 470 150 470 150 470 166 c 0,54,55
 470 198 470 198 452 220 c 128,-1,56
 434 242 434 242 405 242 c 0,57,58
 363 242 363 242 346 257 c 128,-1,59
 329 272 329 272 329 292 c 0,60,61
 329 311 329 311 350.5 334.5 c 128,-1,62
 372 358 372 358 398 383 c 128,-1,63
 424 408 424 408 445.5 434.5 c 128,-1,64
 467 461 467 461 467 486 c 0,0,1
294 515 m 0,65,66
 295 527 295 527 293 534 c 128,-1,67
 291 541 291 541 288 540 c 0,68,69
 284 540 284 540 280.5 534 c 128,-1,70
 277 528 277 528 274.5 520 c 128,-1,71
 272 512 272 512 270.5 504 c 128,-1,72
 269 496 269 496 270 492 c 0,73,74
 272 479 272 479 275 477 c 0,75,76
 280 472 280 472 286 479 c 128,-1,77
 292 486 292 486 294 515 c 0,65,66
288 451 m 0,78,79
 288 458 288 458 281 458 c 256,80,81
 274 458 274 458 274 450 c 0,82,83
 274 448 274 448 276 445 c 128,-1,84
 278 442 278 442 280 442 c 0,85,86
 284 442 284 442 286 445 c 128,-1,87
 288 448 288 448 288 451 c 0,78,79
362 291 m 0,88,89
 364 296 364 296 368 304 c 128,-1,90
 372 312 372 312 377 319 c 0,91,92
 381 325 381 325 382 330 c 128,-1,93
 383 335 383 335 381 335 c 0,94,95
 377 335 377 335 371 329 c 128,-1,96
 365 323 365 323 359.5 315 c 128,-1,97
 354 307 354 307 350 298.5 c 128,-1,98
 346 290 346 290 346 284 c 0,99,100
 346 275 346 275 351 275 c 256,101,102
 356 275 356 275 362 291 c 0,88,89
292 80 m 0,103,104
 292 101 292 101 283 92 c 0,105,106
 278 87 278 87 276 78 c 128,-1,107
 274 69 274 69 275 62 c 0,108,109
 276 58 276 58 278 56.5 c 128,-1,110
 280 55 280 55 282 55 c 256,111,112
 284 55 284 55 288 63.5 c 128,-1,113
 292 72 292 72 292 80 c 0,103,104
EndSplineSet
EndChar

StartChar: four.beng
Encoding: 52 52 20
Width: 830
Flags: W
LayerCount: 2
Fore
SplineSet
522.5 0 m 0,0,1
 498.5 0 498.5 0 490 19.5 c 128,-1,2
 481.5 39 481.5 39 481.5 62 c 2,3,-1
 481.5 130 l 2,4,5
 481.5 142 481.5 142 468.5 142 c 2,6,-1
 287.5 142 l 2,7,8
 265.5 142 265.5 142 255 152 c 128,-1,9
 244.5 162 244.5 162 244.5 173 c 0,10,11
 244.5 178 244.5 178 253 209.5 c 128,-1,12
 261.5 241 261.5 241 274 286 c 128,-1,13
 286.5 331 286.5 331 301.5 382 c 128,-1,14
 316.5 433 316.5 433 330 478 c 128,-1,15
 343.5 523 343.5 523 353.5 555 c 128,-1,16
 363.5 587 363.5 587 366.5 592 c 0,17,18
 374.5 607 374.5 607 384.5 610.5 c 128,-1,19
 394.5 614 394.5 614 404.5 614 c 0,20,21
 409.5 614 409.5 614 418.5 612 c 128,-1,22
 427.5 610 427.5 610 436 606.5 c 128,-1,23
 444.5 603 444.5 603 451 598 c 128,-1,24
 457.5 593 457.5 593 457.5 587 c 256,25,26
 457.5 581 457.5 581 452.5 558.5 c 128,-1,27
 447.5 536 447.5 536 439.5 503.5 c 128,-1,28
 431.5 471 431.5 471 421.5 433 c 128,-1,29
 411.5 395 411.5 395 401.5 358.5 c 128,-1,30
 391.5 322 391.5 322 382.5 291.5 c 128,-1,31
 373.5 261 373.5 261 367.5 243 c 0,32,33
 365.5 238 365.5 238 364.5 235 c 128,-1,34
 363.5 232 363.5 232 363.5 229 c 0,35,36
 363.5 224 363.5 224 371.5 224 c 2,37,-1
 468.5 224 l 2,38,39
 476.5 224 476.5 224 479 226.5 c 128,-1,40
 481.5 229 481.5 229 481.5 235 c 2,41,-1
 481.5 536 l 2,42,43
 481.5 561 481.5 561 486 576.5 c 128,-1,44
 490.5 592 490.5 592 497.5 601 c 128,-1,45
 504.5 610 504.5 610 513.5 613 c 128,-1,46
 522.5 616 522.5 616 532.5 616 c 0,47,48
 559.5 616 559.5 616 572.5 597 c 128,-1,49
 585.5 578 585.5 578 585.5 550 c 2,50,-1
 585.5 70 l 2,51,52
 585.5 49 585.5 49 580.5 35 c 128,-1,53
 575.5 21 575.5 21 566.5 13.5 c 128,-1,54
 557.5 6 557.5 6 546 3 c 128,-1,55
 534.5 0 534.5 0 522.5 0 c 0,0,1
501.5 541 m 256,56,57
 505.5 541 505.5 541 509 547 c 128,-1,58
 512.5 553 512.5 553 515 561 c 128,-1,59
 517.5 569 517.5 569 519 577.5 c 128,-1,60
 520.5 586 520.5 586 520.5 591 c 0,61,62
 520.5 598 520.5 598 513.5 598 c 0,63,64
 510.5 598 510.5 598 507.5 593.5 c 128,-1,65
 504.5 589 504.5 589 502 582.5 c 128,-1,66
 499.5 576 499.5 576 497.5 569.5 c 128,-1,67
 495.5 563 495.5 563 495.5 558 c 0,68,69
 495.5 552 495.5 552 496.5 546.5 c 128,-1,70
 497.5 541 497.5 541 501.5 541 c 256,56,57
288.5 215 m 0,71,72
 292.5 228 292.5 228 295 235 c 128,-1,73
 297.5 242 297.5 242 296.5 251 c 0,74,75
 296.5 259 296.5 259 291.5 259 c 0,76,77
 288.5 259 288.5 259 285 251.5 c 128,-1,78
 281.5 244 281.5 244 278 234 c 128,-1,79
 274.5 224 274.5 224 272.5 214 c 128,-1,80
 270.5 204 270.5 204 270.5 199 c 0,81,82
 270.5 188 270.5 188 275.5 188 c 0,83,84
 282.5 189 282.5 189 288.5 215 c 0,71,72
278.5 169 m 0,85,86
 278.5 179 278.5 179 270.5 179 c 256,87,88
 262.5 179 262.5 179 262.5 169 c 0,89,90
 262.5 167 262.5 167 263.5 166 c 0,91,92
 267.5 162 267.5 162 270.5 162 c 0,93,94
 272.5 162 272.5 162 275.5 164 c 128,-1,95
 278.5 166 278.5 166 278.5 169 c 0,85,86
514.5 29 m 0,96,97
 511.5 35 511.5 35 508.5 37.5 c 128,-1,98
 505.5 40 505.5 40 505.5 45 c 0,99,100
 505.5 49 505.5 49 504.5 53 c 0,101,102
 504.5 61 504.5 61 499.5 61 c 0,103,104
 493.5 61 493.5 61 493.5 50 c 0,105,106
 493.5 42 493.5 42 498 28.5 c 128,-1,107
 502.5 15 502.5 15 508.5 15 c 0,108,109
 511.5 15 511.5 15 514.5 19.5 c 128,-1,110
 517.5 24 517.5 24 514.5 29 c 0,96,97
EndSplineSet
EndChar

StartChar: five.beng
Encoding: 53 53 21
Width: 830
Flags: W
LayerCount: 2
Fore
SplineSet
315 -8 m 0,0,1
 293 -8 293 -8 280.5 -1.5 c 128,-1,2
 268 5 268 5 262 14 c 128,-1,3
 256 23 256 23 254.5 32.5 c 128,-1,4
 253 42 253 42 253 48 c 0,5,6
 253 62 253 62 258.5 70 c 128,-1,7
 264 78 264 78 273 81.5 c 128,-1,8
 282 85 282 85 293 85.5 c 128,-1,9
 304 86 304 86 315 86 c 0,10,11
 402 86 402 86 438.5 112.5 c 128,-1,12
 475 139 475 139 475 196 c 0,13,14
 475 251 475 251 449 277 c 128,-1,15
 423 303 423 303 374 303 c 0,16,17
 355 303 355 303 343 300 c 128,-1,18
 331 297 331 297 322 293.5 c 128,-1,19
 313 290 313 290 305 287 c 128,-1,20
 297 284 297 284 287 284 c 256,21,22
 277 284 277 284 271 293 c 128,-1,23
 265 302 265 302 262 314.5 c 128,-1,24
 259 327 259 327 258.5 341.5 c 128,-1,25
 258 356 258 356 258 366 c 2,26,-1
 258 568 l 2,27,28
 258 595 258 595 271.5 605.5 c 128,-1,29
 285 616 285 616 304 616 c 2,30,-1
 537 616 l 2,31,32
 545 616 545 616 552 608.5 c 128,-1,33
 559 601 559 601 559 587 c 0,34,35
 559 569 559 569 551.5 552.5 c 128,-1,36
 544 536 544 536 535 536 c 2,37,-1
 367 535 l 2,38,39
 362 535 362 535 360 530.5 c 128,-1,40
 358 526 358 526 358 521 c 2,41,-1
 358 399 l 2,42,43
 358 383 358 383 361 381 c 128,-1,44
 364 379 364 379 371 379 c 2,45,-1
 395 380 l 2,46,47
 435 382 435 382 468.5 371.5 c 128,-1,48
 502 361 502 361 526 338 c 128,-1,49
 550 315 550 315 563.5 280 c 128,-1,50
 577 245 577 245 577 197 c 0,51,52
 577 158 577 158 561 121.5 c 128,-1,53
 545 85 545 85 512.5 56 c 128,-1,54
 480 27 480 27 431 9.5 c 128,-1,55
 382 -8 382 -8 315 -8 c 0,0,1
286 403 m 0,56,57
 286 422 286 422 285 432 c 128,-1,58
 284 442 284 442 278 436 c 0,59,60
 275 433 275 433 273 421 c 128,-1,61
 271 409 271 409 271 395 c 128,-1,62
 271 381 271 381 273 369 c 128,-1,63
 275 357 275 357 278 354 c 256,64,65
 281 351 281 351 282 351 c 0,66,67
 286 351 286 351 286 403 c 0,56,57
294 326 m 0,68,69
 294 336 294 336 289 336 c 0,70,71
 278 336 278 336 278 322 c 0,72,73
 278 315 278 315 286 315 c 0,74,75
 291 315 291 315 292.5 319.5 c 128,-1,76
 294 324 294 324 294 326 c 0,68,69
285 48 m 0,77,78
 284 50 284 50 284.5 54 c 128,-1,79
 285 58 285 58 285.5 61.5 c 128,-1,80
 286 65 286 65 285 67.5 c 128,-1,81
 284 70 284 70 280 70 c 0,82,83
 275 70 275 70 273 61.5 c 128,-1,84
 271 53 271 53 272 42 c 256,85,86
 273 31 273 31 276 21.5 c 128,-1,87
 279 12 279 12 285 12 c 0,88,89
 287 12 287 12 288.5 23 c 128,-1,90
 290 34 290 34 285 48 c 0,77,78
EndSplineSet
EndChar

StartChar: six.beng
Encoding: 54 54 22
Width: 830
Flags: W
LayerCount: 2
Fore
SplineSet
416.5 -11 m 0,0,1
 364.5 -11 364.5 -11 328 8.5 c 128,-1,2
 291.5 28 291.5 28 268.5 61 c 128,-1,3
 245.5 94 245.5 94 235 136.5 c 128,-1,4
 224.5 179 224.5 179 224.5 225 c 0,5,6
 224.5 276 224.5 276 232.5 328.5 c 128,-1,7
 240.5 381 240.5 381 257.5 429 c 128,-1,8
 274.5 477 274.5 477 302 518 c 128,-1,9
 329.5 559 329.5 559 368.5 587 c 0,10,11
 396.5 607 396.5 607 424.5 613.5 c 128,-1,12
 452.5 620 452.5 620 474.5 620 c 0,13,14
 479.5 620 479.5 620 487 618.5 c 128,-1,15
 494.5 617 494.5 617 501.5 614 c 128,-1,16
 508.5 611 508.5 611 514 606 c 128,-1,17
 519.5 601 519.5 601 519.5 593 c 0,18,19
 519.5 579 519.5 579 514.5 567.5 c 128,-1,20
 509.5 556 509.5 556 482.5 547 c 0,21,22
 456.5 538 456.5 538 435.5 521 c 128,-1,23
 414.5 504 414.5 504 398 482.5 c 128,-1,24
 381.5 461 381.5 461 369.5 435.5 c 128,-1,25
 357.5 410 357.5 410 348.5 385 c 0,26,27
 343.5 373 343.5 373 339.5 354.5 c 128,-1,28
 335.5 336 335.5 336 335.5 325 c 0,29,30
 335.5 315 335.5 315 339.5 315 c 0,31,32
 342.5 315 342.5 315 349.5 324.5 c 128,-1,33
 356.5 334 356.5 334 369.5 345 c 128,-1,34
 382.5 356 382.5 356 401.5 365.5 c 128,-1,35
 420.5 375 420.5 375 447.5 375 c 0,36,37
 524.5 375 524.5 375 565 323 c 128,-1,38
 605.5 271 605.5 271 605.5 187 c 0,39,40
 605.5 146 605.5 146 590.5 110 c 128,-1,41
 575.5 74 575.5 74 549.5 47 c 128,-1,42
 523.5 20 523.5 20 489 4.5 c 128,-1,43
 454.5 -11 454.5 -11 416.5 -11 c 0,0,1
411.5 80 m 0,44,45
 453.5 80 453.5 80 479 106.5 c 128,-1,46
 504.5 133 504.5 133 504.5 190 c 0,47,48
 504.5 207 504.5 207 501.5 224 c 128,-1,49
 498.5 241 498.5 241 490.5 255 c 128,-1,50
 482.5 269 482.5 269 469 277.5 c 128,-1,51
 455.5 286 455.5 286 434.5 286 c 0,52,53
 415.5 286 415.5 286 396 276 c 128,-1,54
 376.5 266 376.5 266 361.5 250.5 c 128,-1,55
 346.5 235 346.5 235 337 215.5 c 128,-1,56
 327.5 196 327.5 196 327.5 178 c 0,57,58
 327.5 137 327.5 137 345 108.5 c 128,-1,59
 362.5 80 362.5 80 411.5 80 c 0,44,45
285.5 107 m 0,60,61
 282.5 118 282.5 118 278.5 127.5 c 128,-1,62
 274.5 137 274.5 137 271.5 148 c 0,63,64
 269.5 154 269.5 154 268 159 c 128,-1,65
 266.5 164 266.5 164 262.5 163 c 0,66,67
 259.5 163 259.5 163 257.5 155 c 0,68,69
 256.5 148 256.5 148 260 135 c 128,-1,70
 263.5 122 263.5 122 268.5 110 c 128,-1,71
 273.5 98 273.5 98 279 89.5 c 128,-1,72
 284.5 81 284.5 81 286.5 81 c 0,73,74
 291.5 81 291.5 81 291.5 86 c 0,75,76
 291.5 90 291.5 90 289.5 95 c 128,-1,77
 287.5 100 287.5 100 285.5 107 c 0,60,61
EndSplineSet
EndChar

StartChar: seven.beng
Encoding: 55 55 23
Width: 830
Flags: W
LayerCount: 2
Fore
SplineSet
336.5 -2 m 0,0,1
 322.5 -2 322.5 -2 313 6.5 c 128,-1,2
 303.5 15 303.5 15 303.5 25 c 0,3,4
 303.5 34 303.5 34 313.5 70 c 128,-1,5
 323.5 106 323.5 106 338.5 156 c 128,-1,6
 353.5 206 353.5 206 371.5 263 c 128,-1,7
 389.5 320 389.5 320 406 371 c 128,-1,8
 422.5 422 422.5 422 435.5 461 c 128,-1,9
 448.5 500 448.5 500 453.5 514 c 0,10,11
 458.5 529 458.5 529 446.5 529 c 2,12,-1
 316.5 529 l 2,13,14
 289.5 529 289.5 529 274.5 537.5 c 128,-1,15
 259.5 546 259.5 546 259.5 573 c 256,16,17
 259.5 600 259.5 600 276 608 c 128,-1,18
 292.5 616 292.5 616 318.5 616 c 2,19,-1
 529.5 616 l 2,20,21
 546.5 616 546.5 616 558.5 605.5 c 128,-1,22
 570.5 595 570.5 595 570.5 581 c 0,23,24
 570.5 571 570.5 571 559.5 529 c 128,-1,25
 548.5 487 548.5 487 531 429 c 128,-1,26
 513.5 371 513.5 371 492 303.5 c 128,-1,27
 470.5 236 470.5 236 450.5 176 c 128,-1,28
 430.5 116 430.5 116 414.5 71 c 128,-1,29
 398.5 26 398.5 26 390.5 11 c 0,30,31
 388.5 6 388.5 6 374 2 c 128,-1,32
 359.5 -2 359.5 -2 336.5 -2 c 0,0,1
291.5 594 m 0,33,34
 291.5 602 291.5 602 286.5 602 c 256,35,36
 281.5 602 281.5 602 275 594.5 c 128,-1,37
 268.5 587 268.5 587 268.5 576 c 0,38,39
 268.5 556 268.5 556 276.5 556 c 0,40,41
 279.5 556 279.5 556 282.5 560.5 c 128,-1,42
 285.5 565 285.5 565 287.5 571 c 128,-1,43
 289.5 577 289.5 577 290.5 583.5 c 128,-1,44
 291.5 590 291.5 590 291.5 594 c 0,33,34
336.5 38 m 0,45,46
 338.5 48 338.5 48 340.5 58.5 c 128,-1,47
 342.5 69 342.5 69 344.5 73 c 0,48,49
 348.5 78 348.5 78 347 83 c 128,-1,50
 345.5 88 345.5 88 340.5 88 c 0,51,52
 337.5 88 337.5 88 334 81 c 128,-1,53
 330.5 74 330.5 74 328 64.5 c 128,-1,54
 325.5 55 325.5 55 323.5 45.5 c 128,-1,55
 321.5 36 321.5 36 321.5 31 c 0,56,57
 321.5 19 321.5 19 326.5 19 c 256,58,59
 331.5 19 331.5 19 336.5 38 c 0,45,46
EndSplineSet
EndChar

StartChar: eight.beng
Encoding: 56 56 24
Width: 830
Flags: W
LayerCount: 2
Fore
SplineSet
406.5 -6 m 0,0,1
 366.5 -6 366.5 -6 333 8.5 c 128,-1,2
 299.5 23 299.5 23 276 46.5 c 128,-1,3
 252.5 70 252.5 70 239.5 100.5 c 128,-1,4
 226.5 131 226.5 131 226.5 163 c 0,5,6
 226.5 201 226.5 201 243.5 228 c 128,-1,7
 260.5 255 260.5 255 281 274 c 128,-1,8
 301.5 293 301.5 293 318.5 305.5 c 128,-1,9
 335.5 318 335.5 318 335.5 325 c 0,10,11
 335.5 333 335.5 333 320 342 c 128,-1,12
 304.5 351 304.5 351 285.5 367 c 128,-1,13
 266.5 383 266.5 383 251 407.5 c 128,-1,14
 235.5 432 235.5 432 235.5 471 c 0,15,16
 235.5 503 235.5 503 250 531 c 128,-1,17
 264.5 559 264.5 559 289.5 580 c 128,-1,18
 314.5 601 314.5 601 346.5 613 c 128,-1,19
 378.5 625 378.5 625 413.5 625 c 0,20,21
 439.5 625 439.5 625 469.5 614.5 c 128,-1,22
 499.5 604 499.5 604 525 584.5 c 128,-1,23
 550.5 565 550.5 565 567 536 c 128,-1,24
 583.5 507 583.5 507 583.5 469 c 0,25,26
 583.5 432 583.5 432 569.5 409.5 c 128,-1,27
 555.5 387 555.5 387 539 373.5 c 128,-1,28
 522.5 360 522.5 360 508.5 353 c 128,-1,29
 494.5 346 494.5 346 494.5 340 c 0,30,31
 494.5 331 494.5 331 511.5 319.5 c 128,-1,32
 528.5 308 528.5 308 549 289.5 c 128,-1,33
 569.5 271 569.5 271 586.5 242 c 128,-1,34
 603.5 213 603.5 213 603.5 169 c 0,35,36
 603.5 136 603.5 136 588 104.5 c 128,-1,37
 572.5 73 572.5 73 545.5 48 c 128,-1,38
 518.5 23 518.5 23 483 8.5 c 128,-1,39
 447.5 -6 447.5 -6 406.5 -6 c 0,0,1
278.5 512 m 0,40,41
 279.5 518 279.5 518 284.5 525 c 128,-1,42
 289.5 532 289.5 532 295.5 538.5 c 128,-1,43
 301.5 545 301.5 545 307 550.5 c 128,-1,44
 312.5 556 312.5 556 315.5 559 c 0,45,46
 326.5 571 326.5 571 326.5 578 c 0,47,48
 326.5 582 326.5 582 322.5 582 c 0,49,50
 313.5 582 313.5 582 303 572.5 c 128,-1,51
 292.5 563 292.5 563 283.5 549.5 c 128,-1,52
 274.5 536 274.5 536 268.5 522.5 c 128,-1,53
 262.5 509 262.5 509 262.5 501 c 256,54,55
 262.5 493 262.5 493 266.5 493 c 0,56,57
 273.5 493 273.5 493 278.5 512 c 0,40,41
413.5 371 m 0,58,59
 426.5 371 426.5 371 439 379.5 c 128,-1,60
 451.5 388 451.5 388 461.5 402 c 128,-1,61
 471.5 416 471.5 416 478 433.5 c 128,-1,62
 484.5 451 484.5 451 484.5 469 c 0,63,64
 484.5 504 484.5 504 464.5 529.5 c 128,-1,65
 444.5 555 444.5 555 412.5 555 c 256,66,67
 380.5 555 380.5 555 357.5 533 c 128,-1,68
 334.5 511 334.5 511 334.5 473 c 0,69,70
 334.5 459 334.5 459 339.5 441.5 c 128,-1,71
 344.5 424 344.5 424 354.5 408 c 128,-1,72
 364.5 392 364.5 392 379.5 381.5 c 128,-1,73
 394.5 371 394.5 371 413.5 371 c 0,58,59
268.5 469 m 0,74,75
 268.5 478 268.5 478 261.5 478 c 0,76,77
 256.5 478 256.5 478 255 475 c 128,-1,78
 253.5 472 253.5 472 253.5 469 c 0,79,80
 253.5 467 253.5 467 254.5 465 c 0,81,82
 256.5 461 256.5 461 260.5 461 c 0,83,84
 262.5 461 262.5 461 265.5 463 c 128,-1,85
 268.5 465 268.5 465 268.5 469 c 0,74,75
408.5 73 m 0,86,87
 456.5 73 456.5 73 474 98 c 128,-1,88
 491.5 123 491.5 123 491.5 169 c 0,89,90
 491.5 188 491.5 188 484 208.5 c 128,-1,91
 476.5 229 476.5 229 465 246 c 128,-1,92
 453.5 263 453.5 263 440.5 274 c 128,-1,93
 427.5 285 427.5 285 416.5 285 c 0,94,95
 401.5 285 401.5 285 386.5 273.5 c 128,-1,96
 371.5 262 371.5 262 359.5 244.5 c 128,-1,97
 347.5 227 347.5 227 340 205.5 c 128,-1,98
 332.5 184 332.5 184 332.5 163 c 0,99,100
 332.5 147 332.5 147 338 131 c 128,-1,101
 343.5 115 343.5 115 353 102 c 128,-1,102
 362.5 89 362.5 89 376.5 81 c 128,-1,103
 390.5 73 390.5 73 408.5 73 c 0,86,87
272.5 222 m 256,104,105
 275.5 230 275.5 230 272.5 233 c 128,-1,106
 269.5 236 269.5 236 262.5 229 c 0,107,108
 259.5 226 259.5 226 254.5 218.5 c 128,-1,109
 249.5 211 249.5 211 245 202 c 128,-1,110
 240.5 193 240.5 193 237 183.5 c 128,-1,111
 233.5 174 233.5 174 233.5 166 c 0,112,113
 232.5 158 232.5 158 236 150.5 c 128,-1,114
 239.5 143 239.5 143 246.5 143 c 0,115,116
 254.5 143 254.5 143 253.5 155.5 c 128,-1,117
 252.5 168 252.5 168 254.5 179 c 0,118,119
 257.5 194 257.5 194 263.5 204 c 128,-1,120
 269.5 214 269.5 214 272.5 222 c 256,104,105
EndSplineSet
EndChar

StartChar: nine.beng
Encoding: 57 57 25
Width: 830
Flags: W
LayerCount: 2
Fore
SplineSet
413 623 m 0,0,1
 468 623 468 623 505 601.5 c 128,-1,2
 542 580 542 580 564 546 c 128,-1,3
 586 512 586 512 595.5 470 c 128,-1,4
 605 428 605 428 605 387 c 0,5,6
 605 336 605 336 593.5 284 c 128,-1,7
 582 232 582 232 561.5 185 c 128,-1,8
 541 138 541 138 513 99 c 128,-1,9
 485 60 485 60 452 34 c 0,10,11
 425 13 425 13 396.5 2.5 c 128,-1,12
 368 -8 368 -8 346 -8 c 0,13,14
 328 -8 328 -8 315.5 -1.5 c 128,-1,15
 303 5 303 5 303 21 c 0,16,17
 303 36 303 36 311 51.5 c 128,-1,18
 319 67 319 67 346 76 c 0,19,20
 372 85 372 85 392.5 100 c 128,-1,21
 413 115 413 115 429 135 c 128,-1,22
 445 155 445 155 456.5 178.5 c 128,-1,23
 468 202 468 202 477 227 c 0,24,25
 482 239 482 239 486 257.5 c 128,-1,26
 490 276 490 276 490 287 c 0,27,28
 490 297 490 297 486 297 c 0,29,30
 483 297 483 297 476.5 289 c 128,-1,31
 470 281 470 281 457 272 c 128,-1,32
 444 263 444 263 424 255 c 128,-1,33
 404 247 404 247 374 247 c 0,34,35
 304 247 304 247 264.5 295 c 128,-1,36
 225 343 225 343 225 425 c 0,37,38
 225 463 225 463 237 499 c 128,-1,39
 249 535 249 535 273 562.5 c 128,-1,40
 297 590 297 590 332 606.5 c 128,-1,41
 367 623 367 623 413 623 c 0,0,1
418 535 m 0,42,43
 376 535 376 535 350.5 508 c 128,-1,44
 325 481 325 481 325 432 c 0,45,46
 325 390 325 390 343.5 364.5 c 128,-1,47
 362 339 362 339 395 339 c 0,48,49
 415 339 415 339 433.5 347 c 128,-1,50
 452 355 452 355 466 368 c 128,-1,51
 480 381 480 381 489 398.5 c 128,-1,52
 498 416 498 416 498 434 c 0,53,54
 498 455 498 455 494.5 473 c 128,-1,55
 491 491 491 491 482 505 c 128,-1,56
 473 519 473 519 457.5 527 c 128,-1,57
 442 535 442 535 418 535 c 0,42,43
275 486 m 0,58,59
 277 496 277 496 279.5 503.5 c 128,-1,60
 282 511 282 511 282 517 c 0,61,62
 282 524 282 524 275 524 c 0,63,64
 272 524 272 524 266.5 511 c 128,-1,65
 261 498 261 498 256.5 480 c 128,-1,66
 252 462 252 462 249 444 c 128,-1,67
 246 426 246 426 248 415 c 0,68,69
 251 403 251 403 256 403 c 256,70,71
 261 403 261 403 263.5 410.5 c 128,-1,72
 266 418 266 418 268 426 c 0,73,74
 272 443 272 443 272 457 c 128,-1,75
 272 471 272 471 275 486 c 0,58,59
271 380 m 0,76,77
 271 385 271 385 269.5 388.5 c 128,-1,78
 268 392 268 392 265 392 c 0,79,80
 260 392 260 392 256 389 c 128,-1,81
 252 386 252 386 252 376 c 0,82,83
 252 373 252 373 254.5 370 c 128,-1,84
 257 367 257 367 261 367 c 0,85,86
 267 367 267 367 269 372.5 c 128,-1,87
 271 378 271 378 271 380 c 0,76,77
343 58 m 2,88,89
 343 61 343 61 338.5 60 c 128,-1,90
 334 59 334 59 329 55 c 128,-1,91
 324 51 324 51 320 44 c 128,-1,92
 316 37 316 37 316 28 c 0,93,94
 316 26 316 26 317.5 20 c 128,-1,95
 319 14 319 14 323 14 c 0,96,97
 326 14 326 14 329.5 20.5 c 128,-1,98
 333 27 333 27 336 35.5 c 128,-1,99
 339 44 339 44 341 51 c 128,-1,100
 343 58 343 58 343 58 c 2,88,89
EndSplineSet
EndChar

StartChar: colon.beng
Encoding: 58 58 26
Width: 830
Flags: W
LayerCount: 2
Fore
SplineSet
353 54 m 0,0,1
 353 91 353 91 371 106 c 128,-1,2
 389 121 389 121 414 121 c 0,3,4
 440 121 440 121 458.5 106 c 128,-1,5
 477 91 477 91 477 54 c 0,6,7
 477 18 477 18 458.5 2 c 128,-1,8
 440 -14 440 -14 414 -14 c 0,9,10
 389 -14 389 -14 371 2 c 128,-1,11
 353 18 353 18 353 54 c 0,0,1
353 482 m 0,12,13
 353 520 353 520 371 535 c 128,-1,14
 389 550 389 550 414 550 c 0,15,16
 440 550 440 550 458.5 535 c 128,-1,17
 477 520 477 520 477 482 c 0,18,19
 477 446 477 446 458.5 430 c 128,-1,20
 440 414 440 414 414 414 c 0,21,22
 389 414 389 414 371 430 c 128,-1,23
 353 446 353 446 353 482 c 0,12,13
EndSplineSet
EndChar

StartChar: semicolon.beng
Encoding: 59 59 27
Width: 830
Flags: W
LayerCount: 2
Fore
SplineSet
485.5 105 m 1,0,1
 476.5 70 476.5 70 462.5 29 c 128,-1,2
 448.5 -12 448.5 -12 432 -52.5 c 128,-1,3
 415.5 -93 415.5 -93 399.5 -129 c 1,4,-1
 333.5 -129 l 1,5,6
 340.5 -101 340.5 -101 348 -69 c 128,-1,7
 355.5 -37 355.5 -37 362.5 -4.5 c 128,-1,8
 369.5 28 369.5 28 375 59 c 128,-1,9
 380.5 90 380.5 90 384.5 116 c 1,10,-1
 478.5 116 l 1,11,-1
 485.5 105 l 1,0,1
372.5 482 m 0,12,13
 372.5 520 372.5 520 390.5 535 c 128,-1,14
 408.5 550 408.5 550 433.5 550 c 0,15,16
 459.5 550 459.5 550 478 535 c 128,-1,17
 496.5 520 496.5 520 496.5 482 c 0,18,19
 496.5 446 496.5 446 478 430 c 128,-1,20
 459.5 414 459.5 414 433.5 414 c 0,21,22
 408.5 414 408.5 414 390.5 430 c 128,-1,23
 372.5 446 372.5 446 372.5 482 c 0,12,13
EndSplineSet
EndChar

StartChar: less.beng
Encoding: 60 60 28
Width: 830
Flags: W
LayerCount: 2
Fore
SplineSet
650.5 116 m 1,0,-1
 179.5 323 l 1,1,-1
 179.5 373 l 1,2,-1
 650.5 608 l 1,3,-1
 650.5 530 l 1,4,-1
 273.5 352 l 1,5,-1
 650.5 194 l 1,6,-1
 650.5 116 l 1,0,-1
EndSplineSet
EndChar

StartChar: equal.beng
Encoding: 61 61 29
Width: 830
Flags: W
LayerCount: 2
Fore
SplineSet
186 416 m 1,0,-1
 186 487 l 1,1,-1
 644 487 l 1,2,-1
 644 416 l 1,3,-1
 186 416 l 1,0,-1
186 217 m 1,4,-1
 186 288 l 1,5,-1
 644 288 l 1,6,-1
 644 217 l 1,7,-1
 186 217 l 1,4,-1
EndSplineSet
EndChar

StartChar: greater.beng
Encoding: 62 62 30
Width: 830
Flags: W
LayerCount: 2
Fore
SplineSet
179.5 194 m 1,0,-1
 556.5 351 l 1,1,-1
 179.5 530 l 1,2,-1
 179.5 608 l 1,3,-1
 650.5 373 l 1,4,-1
 650.5 323 l 1,5,-1
 179.5 116 l 1,6,-1
 179.5 194 l 1,0,-1
EndSplineSet
EndChar

StartChar: question.beng
Encoding: 63 63 31
Width: 830
Flags: W
LayerCount: 2
Fore
SplineSet
345 199 m 6,0,1
 345 237 345 237 352.5 264.5 c 132,-1,2
 360 292 360 292 378.5 317 c 132,-1,3
 397 342 397 342 429 369 c 4,4,5
 468 402 468 402 489.5 424 c 132,-1,6
 511 446 511 446 520 467 c 132,-1,7
 529 488 529 488 529 518 c 4,8,9
 529 566 529 566 498 592 c 132,-1,10
 467 618 467 618 408 618 c 4,11,12
 359 618 359 618 321 605.5 c 132,-1,13
 283 593 283 593 248 576 c 5,14,-1
 217 646 l 5,15,16
 257 667 257 667 305.5 681 c 132,-1,17
 354 695 354 695 414 695 c 4,18,19
 509 695 509 695 561 648 c 132,-1,20
 613 601 613 601 613 520 c 4,21,22
 613 475 613 475 598.5 443.5 c 132,-1,23
 584 412 584 412 557.5 385.5 c 132,-1,24
 531 359 531 359 495 329 c 4,25,26
 462 301 462 301 444.5 280 c 132,-1,27
 427 259 427 259 421 238.5 c 132,-1,28
 415 218 415 218 415 189 c 6,29,-1
 415 172 l 5,30,-1
 345 172 l 5,31,-1
 345 199 l 6,0,1
322 25 m 4,32,33
 322 62 322 62 339.5 77 c 132,-1,34
 357 92 357 92 384 92 c 4,35,36
 409 92 409 92 427 77 c 132,-1,37
 445 62 445 62 445 25 c 4,38,39
 445 -11 445 -11 427 -27 c 132,-1,40
 409 -43 409 -43 384 -43 c 4,41,42
 357 -43 357 -43 339.5 -27 c 132,-1,43
 322 -11 322 -11 322 25 c 4,32,33
EndSplineSet
EndChar

StartChar: bracketleft.beng
Encoding: 91 91 32
Width: 830
Flags: W
LayerCount: 2
Fore
SplineSet
319.930664062 -70 m 0,0,1
 316.930664062 -67 316.930664062 -67 315.430664062 -56.5 c 128,-1,2
 313.930664062 -46 313.930664062 -46 312.930664062 -12.5 c 128,-1,3
 311.930664062 21 311.930664062 21 311.930664062 86.5 c 128,-1,4
 311.930664062 152 311.930664062 152 311.930664062 266 c 0,5,6
 311.930664062 347 311.930664062 347 311.930664062 405 c 128,-1,7
 311.930664062 463 311.930664062 463 311.930664062 503.5 c 128,-1,8
 311.930664062 544 311.930664062 544 312.930664062 570 c 128,-1,9
 313.930664062 596 313.930664062 596 315.930664062 611.5 c 128,-1,10
 317.930664062 627 317.930664062 627 320.930664062 635 c 128,-1,11
 323.930664062 643 323.930664062 643 328.930664062 649 c 0,12,13
 332.930664062 654 332.930664062 654 344.430664062 657 c 128,-1,14
 355.930664062 660 355.930664062 660 371.430664062 661.5 c 128,-1,15
 386.930664062 663 386.930664062 663 406.430664062 663.5 c 128,-1,16
 425.930664062 664 425.930664062 664 445.930664062 664 c 0,17,18
 486.930664062 664 486.930664062 664 507.430664062 650 c 128,-1,19
 527.930664062 636 527.930664062 636 508.930664062 616 c 0,20,21
 503.930664062 610 503.930664062 610 489.930664062 606 c 128,-1,22
 475.930664062 602 475.930664062 602 445.930664062 602 c 0,23,24
 431.930664062 602 431.930664062 602 424.430664062 600 c 128,-1,25
 416.930664062 598 416.930664062 598 413.930664062 593 c 128,-1,26
 410.930664062 588 410.930664062 588 410.930664062 579.5 c 128,-1,27
 410.930664062 571 410.930664062 571 410.930664062 557 c 2,28,-1
 410.930664062 -20 l 1,29,-1
 428.930664062 -20 l 2,30,31
 471.930664062 -20 471.930664062 -20 486.430664062 -27.5 c 128,-1,32
 500.930664062 -35 500.930664062 -35 500.930664062 -56 c 0,33,34
 500.930664062 -66 500.930664062 -66 497.430664062 -71.5 c 128,-1,35
 493.930664062 -77 493.930664062 -77 483.430664062 -79.5 c 128,-1,36
 472.930664062 -82 472.930664062 -82 454.930664062 -82.5 c 128,-1,37
 436.930664062 -83 436.930664062 -83 406.930664062 -83 c 0,38,39
 379.930664062 -83 379.930664062 -83 364.430664062 -83 c 128,-1,40
 348.930664062 -83 348.930664062 -83 339.930664062 -81.5 c 128,-1,41
 330.930664062 -80 330.930664062 -80 326.930664062 -77.5 c 128,-1,42
 322.930664062 -75 322.930664062 -75 319.930664062 -70 c 0,0,1
356.930664062 616 m 256,43,44
 358.930664062 624 358.930664062 624 367.930664062 630 c 128,-1,45
 376.930664062 636 376.930664062 636 382.930664062 636 c 0,46,47
 391.930664062 636 391.930664062 636 391.930664062 643 c 0,48,49
 391.930664062 644 391.930664062 644 390.430664062 644 c 128,-1,50
 388.930664062 644 388.930664062 644 382.930664062 644 c 0,51,52
 367.930664062 644 367.930664062 644 353.930664062 634 c 128,-1,53
 339.930664062 624 339.930664062 624 339.930664062 610 c 0,54,55
 339.930664062 598 339.930664062 598 343.930664062 598 c 256,56,57
 347.930664062 598 347.930664062 598 351.430664062 603 c 128,-1,58
 354.930664062 608 354.930664062 608 356.930664062 616 c 256,43,44
EndSplineSet
EndChar

StartChar: backslash.beng
Encoding: 92 92 33
Width: 830
Flags: W
LayerCount: 2
Fore
SplineSet
301.5 666 m 0,0,1
 308.5 666 308.5 666 326.5 630.5 c 128,-1,2
 344.5 595 344.5 595 368 541 c 128,-1,3
 391.5 487 391.5 487 417.5 422.5 c 128,-1,4
 443.5 358 443.5 358 466.5 299.5 c 128,-1,5
 489.5 241 489.5 241 506 197.5 c 128,-1,6
 522.5 154 522.5 154 528.5 142 c 0,7,8
 534.5 129 534.5 129 546 101.5 c 128,-1,9
 557.5 74 557.5 74 569 44.5 c 128,-1,10
 580.5 15 580.5 15 589 -10.5 c 128,-1,11
 597.5 -36 597.5 -36 597.5 -44 c 0,12,13
 597.5 -51 597.5 -51 592.5 -57 c 128,-1,14
 587.5 -63 587.5 -63 580 -67.5 c 128,-1,15
 572.5 -72 572.5 -72 564 -74.5 c 128,-1,16
 555.5 -77 555.5 -77 548.5 -77 c 0,17,18
 534.5 -77 534.5 -77 523 -67.5 c 128,-1,19
 511.5 -58 511.5 -58 504.5 -47 c 0,20,21
 498.5 -37 498.5 -37 483.5 -3 c 128,-1,22
 468.5 31 468.5 31 448.5 79.5 c 128,-1,23
 428.5 128 428.5 128 404.5 187 c 128,-1,24
 380.5 246 380.5 246 356.5 306 c 128,-1,25
 332.5 366 332.5 366 310 423 c 128,-1,26
 287.5 480 287.5 480 270.5 525 c 128,-1,27
 253.5 570 253.5 570 243 598.5 c 128,-1,28
 232.5 627 232.5 627 232.5 630 c 0,29,30
 232.5 639 232.5 639 241.5 646 c 128,-1,31
 250.5 653 250.5 653 262.5 657.5 c 128,-1,32
 274.5 662 274.5 662 286 664 c 128,-1,33
 297.5 666 297.5 666 301.5 666 c 0,0,1
276.5 626 m 0,34,35
 274.5 631 274.5 631 267 629 c 128,-1,36
 259.5 627 259.5 627 259.5 620 c 0,37,38
 259.5 614 259.5 614 264.5 599.5 c 128,-1,39
 269.5 585 269.5 585 276 569.5 c 128,-1,40
 282.5 554 282.5 554 289 540.5 c 128,-1,41
 295.5 527 295.5 527 297.5 523 c 0,42,43
 300.5 518 300.5 518 305.5 518 c 128,-1,44
 310.5 518 310.5 518 312.5 519 c 0,45,46
 317.5 520 317.5 520 314 532.5 c 128,-1,47
 310.5 545 310.5 545 303.5 561.5 c 128,-1,48
 296.5 578 296.5 578 288.5 596 c 128,-1,49
 280.5 614 280.5 614 276.5 626 c 0,34,35
EndSplineSet
EndChar

StartChar: bracketright.beng
Encoding: 93 93 34
Width: 830
Flags: W
LayerCount: 2
Fore
SplineSet
344.75 -80 m 0,0,1
 329.75 -80 329.75 -80 319.25 -71.5 c 128,-1,2
 308.75 -63 308.75 -63 308.75 -55 c 0,3,4
 308.75 -33 308.75 -33 322.25 -25 c 128,-1,5
 335.75 -17 335.75 -17 355.75 -17 c 0,6,7
 379.75 -17 379.75 -17 393.25 -15 c 128,-1,8
 406.75 -13 406.75 -13 413.25 -8.5 c 128,-1,9
 419.75 -4 419.75 -4 421.25 3.5 c 128,-1,10
 422.75 11 422.75 11 422.75 21 c 2,11,-1
 422.75 551 l 2,12,13
 422.75 580 422.75 580 410.75 590 c 128,-1,14
 398.75 600 398.75 600 387.75 600 c 256,15,16
 376.75 600 376.75 600 364.75 598 c 128,-1,17
 352.75 596 352.75 596 341.75 596 c 0,18,19
 327.75 596 327.75 596 318.25 603 c 128,-1,20
 308.75 610 308.75 610 308.75 633 c 0,21,22
 308.75 645 308.75 645 325.25 653.5 c 128,-1,23
 341.75 662 341.75 662 370.75 662 c 0,24,25
 395.75 662 395.75 662 419.75 662 c 128,-1,26
 443.75 662 443.75 662 463.25 660.5 c 128,-1,27
 482.75 659 482.75 659 495.75 656 c 128,-1,28
 508.75 653 508.75 653 511.75 647 c 0,29,30
 514.75 642 514.75 642 515.25 625.5 c 128,-1,31
 515.75 609 515.75 609 515.75 570.5 c 128,-1,32
 515.75 532 515.75 532 516.25 466 c 128,-1,33
 516.75 400 516.75 400 517.75 295 c 0,34,35
 519.75 193 519.75 193 520.75 127.5 c 128,-1,36
 521.75 62 521.75 62 520.75 21 c 0,37,38
 520.75 -7 520.75 -7 516.75 -25 c 128,-1,39
 512.75 -43 512.75 -43 506.75 -54 c 128,-1,40
 500.75 -65 500.75 -65 492.25 -70 c 128,-1,41
 483.75 -75 483.75 -75 473.75 -76 c 0,42,43
 455.75 -78 455.75 -78 434.25 -79 c 128,-1,44
 412.75 -80 412.75 -80 393.75 -80 c 128,-1,45
 374.75 -80 374.75 -80 360.75 -80 c 128,-1,46
 346.75 -80 346.75 -80 344.75 -80 c 0,0,1
339.75 644 m 256,47,48
 335.75 649 335.75 649 328.75 645 c 128,-1,49
 321.75 641 321.75 641 321.75 633 c 0,50,51
 321.75 623 321.75 623 325.75 623 c 256,52,53
 329.75 623 329.75 623 329.75 630 c 0,54,55
 330.75 634 330.75 634 337.25 636.5 c 128,-1,56
 343.75 639 343.75 639 339.75 644 c 256,47,48
EndSplineSet
EndChar

StartChar: asciicircum.beng
Encoding: 94 94 35
Width: 830
Flags: W
LayerCount: 2
Fore
SplineSet
167 267 m 1,0,-1
 379 719 l 1,1,-1
 429 719 l 1,2,-1
 663 267 l 1,3,-1
 585 267 l 1,4,-1
 405 626 l 1,5,-1
 245 267 l 1,6,-1
 167 267 l 1,0,-1
EndSplineSet
EndChar

StartChar: underscore.beng
Encoding: 95 95 36
Width: 830
Flags: W
LayerCount: 2
Fore
SplineSet
639 -154 m 1,0,-1
 191 -154 l 1,1,-1
 191 -90 l 1,2,-1
 639 -90 l 1,3,-1
 639 -154 l 1,0,-1
EndSplineSet
EndChar

StartChar: braceleft.beng
Encoding: 123 123 37
Width: 830
Flags: W
LayerCount: 2
Fore
SplineSet
491.5 -77 m 0,0,1
 438.5 -77 438.5 -77 408.5 -62 c 128,-1,2
 378.5 -47 378.5 -47 363 -21 c 128,-1,3
 347.5 5 347.5 5 343 39 c 128,-1,4
 338.5 73 338.5 73 336.5 111 c 0,5,6
 334.5 156 334.5 156 324 178 c 128,-1,7
 313.5 200 313.5 200 302 213 c 128,-1,8
 290.5 226 290.5 226 281.5 238 c 128,-1,9
 272.5 250 272.5 250 272.5 276 c 256,10,11
 272.5 302 272.5 302 285.5 315.5 c 128,-1,12
 298.5 329 298.5 329 314.5 345 c 128,-1,13
 330.5 361 330.5 361 344.5 387.5 c 128,-1,14
 358.5 414 358.5 414 360.5 466 c 0,15,16
 362.5 505 362.5 505 365.5 540.5 c 128,-1,17
 368.5 576 368.5 576 382 602.5 c 128,-1,18
 395.5 629 395.5 629 424 644.5 c 128,-1,19
 452.5 660 452.5 660 506.5 660 c 0,20,21
 521.5 660 521.5 660 531.5 656 c 128,-1,22
 541.5 652 541.5 652 547.5 646 c 128,-1,23
 553.5 640 553.5 640 555.5 633.5 c 128,-1,24
 557.5 627 557.5 627 557.5 622 c 0,25,26
 557.5 606 557.5 606 545 602 c 128,-1,27
 532.5 598 532.5 598 515.5 596.5 c 128,-1,28
 498.5 595 498.5 595 480.5 591 c 128,-1,29
 462.5 587 462.5 587 450.5 572 c 0,30,31
 442.5 562 442.5 562 443.5 540.5 c 128,-1,32
 444.5 519 444.5 519 447.5 492.5 c 128,-1,33
 450.5 466 450.5 466 452 436 c 128,-1,34
 453.5 406 453.5 406 447.5 378 c 0,35,36
 444.5 364 444.5 364 431 348 c 128,-1,37
 417.5 332 417.5 332 403.5 318 c 128,-1,38
 389.5 304 389.5 304 378 293 c 128,-1,39
 366.5 282 366.5 282 366.5 277 c 256,40,41
 366.5 272 366.5 272 377.5 260.5 c 128,-1,42
 388.5 249 388.5 249 401.5 232 c 128,-1,43
 414.5 215 414.5 215 425.5 192.5 c 128,-1,44
 436.5 170 436.5 170 436.5 143 c 0,45,46
 436.5 135 436.5 135 435.5 115.5 c 128,-1,47
 434.5 96 434.5 96 434 74.5 c 128,-1,48
 433.5 53 433.5 53 435 34 c 128,-1,49
 436.5 15 436.5 15 441.5 9 c 0,50,51
 450.5 -2 450.5 -2 463.5 -10 c 128,-1,52
 476.5 -18 476.5 -18 493.5 -18 c 0,53,54
 501.5 -18 501.5 -18 511 -18.5 c 128,-1,55
 520.5 -19 520.5 -19 528 -21.5 c 128,-1,56
 535.5 -24 535.5 -24 540.5 -30 c 128,-1,57
 545.5 -36 545.5 -36 545.5 -47 c 0,58,59
 545.5 -56 545.5 -56 540 -62 c 128,-1,60
 534.5 -68 534.5 -68 526.5 -71.5 c 128,-1,61
 518.5 -75 518.5 -75 509 -76 c 128,-1,62
 499.5 -77 499.5 -77 491.5 -77 c 0,0,1
410.5 584 m 0,63,64
 417.5 594 417.5 594 426 601.5 c 128,-1,65
 434.5 609 434.5 609 442 615 c 128,-1,66
 449.5 621 449.5 621 454 626 c 128,-1,67
 458.5 631 458.5 631 458.5 636 c 0,68,69
 458.5 640 458.5 640 453.5 640 c 0,70,71
 446.5 640 446.5 640 435.5 633 c 128,-1,72
 424.5 626 424.5 626 414.5 616 c 128,-1,73
 404.5 606 404.5 606 397.5 594.5 c 128,-1,74
 390.5 583 390.5 583 390.5 574 c 0,75,76
 390.5 572 390.5 572 392.5 571 c 128,-1,77
 394.5 570 394.5 570 395.5 570 c 0,78,79
 400.5 570 400.5 570 404 575 c 128,-1,80
 407.5 580 407.5 580 410.5 584 c 0,63,64
EndSplineSet
EndChar

StartChar: bar.beng
Encoding: 124 124 38
Width: 830
Flags: W
LayerCount: 2
Fore
SplineSet
417 -99 m 256,0,1
 390 -99 390 -99 378.5 -80 c 128,-1,2
 367 -61 367 -61 367 -43 c 2,3,-1
 368 666 l 2,4,5
 368 682 368 682 378.5 694 c 128,-1,6
 389 706 389 706 409 706 c 0,7,8
 433 706 433 706 447 698 c 128,-1,9
 461 690 461 690 463 672 c 2,10,-1
 463 -38 l 2,11,12
 463 -60 463 -60 453.5 -79.5 c 128,-1,13
 444 -99 444 -99 417 -99 c 256,0,1
395 653 m 0,14,15
 395 664 395 664 397.5 671.5 c 128,-1,16
 400 679 400 679 401.5 683.5 c 128,-1,17
 403 688 403 688 403 690 c 128,-1,18
 403 692 403 692 398 692 c 0,19,20
 392 692 392 692 388.5 686.5 c 128,-1,21
 385 681 385 681 383 673.5 c 128,-1,22
 381 666 381 666 380.5 658.5 c 128,-1,23
 380 651 380 651 380 646 c 0,24,25
 380 633 380 633 383 622.5 c 128,-1,26
 386 612 386 612 392 612 c 0,27,28
 395 612 395 612 395.5 616.5 c 128,-1,29
 396 621 396 621 396 628 c 128,-1,30
 396 635 396 635 395.5 642 c 128,-1,31
 395 649 395 649 395 653 c 0,14,15
EndSplineSet
EndChar

StartChar: braceright.beng
Encoding: 125 125 39
Width: 830
Flags: W
LayerCount: 2
Fore
SplineSet
341 -74 m 0,0,1
 334 -74 334 -74 325 -72.5 c 128,-1,2
 316 -71 316 -71 307.5 -67 c 128,-1,3
 299 -63 299 -63 293 -57 c 128,-1,4
 287 -51 287 -51 287 -42 c 0,5,6
 287 -34 287 -34 292 -29.5 c 128,-1,7
 297 -25 297 -25 303.5 -23 c 128,-1,8
 310 -21 310 -21 318 -21 c 128,-1,9
 326 -21 326 -21 332 -21 c 0,10,11
 359 -21 359 -21 371 -12.5 c 128,-1,12
 383 -4 383 -4 387.5 10.5 c 128,-1,13
 392 25 392 25 392 43 c 128,-1,14
 392 61 392 61 394 80 c 0,15,16
 396 97 396 97 398 122.5 c 128,-1,17
 400 148 400 148 405.5 175 c 128,-1,18
 411 202 411 202 419.5 226.5 c 128,-1,19
 428 251 428 251 441 264 c 0,20,21
 443 267 443 267 451 271.5 c 128,-1,22
 459 276 459 276 459 280 c 0,23,24
 459 286 459 286 447.5 289.5 c 128,-1,25
 436 293 436 293 432 296 c 0,26,27
 416 306 416 306 405.5 334 c 128,-1,28
 395 362 395 362 389.5 395 c 128,-1,29
 384 428 384 428 381.5 459 c 128,-1,30
 379 490 379 490 378 505 c 0,31,32
 377 514 377 514 377.5 529 c 128,-1,33
 378 544 378 544 376.5 558 c 128,-1,34
 375 572 375 572 371.5 583 c 128,-1,35
 368 594 368 594 359 596 c 0,36,37
 341 601 341 601 323 599 c 0,38,39
 294 597 294 597 281.5 605.5 c 128,-1,40
 269 614 269 614 269 631 c 0,41,42
 269 653 269 653 291.5 660.5 c 128,-1,43
 314 668 314 668 347 663 c 0,44,45
 383 659 383 659 406.5 642.5 c 128,-1,46
 430 626 430 626 444 603 c 128,-1,47
 458 580 458 580 464.5 553.5 c 128,-1,48
 471 527 471 527 473 502 c 0,49,50
 475 472 475 472 476 443 c 128,-1,51
 477 414 477 414 481.5 389 c 128,-1,52
 486 364 486 364 496.5 344.5 c 128,-1,53
 507 325 507 325 528 315 c 0,54,55
 537 311 537 311 549 301.5 c 128,-1,56
 561 292 561 292 561 281 c 0,57,58
 561 273 561 273 555 267.5 c 128,-1,59
 549 262 549 262 543 257 c 0,60,61
 523 242 523 242 514 227.5 c 128,-1,62
 505 213 505 213 501.5 197.5 c 128,-1,63
 498 182 498 182 498 164.5 c 128,-1,64
 498 147 498 147 497 126 c 0,65,66
 495 87 495 87 491.5 51 c 128,-1,67
 488 15 488 15 473.5 -12.5 c 128,-1,68
 459 -40 459 -40 428 -57 c 128,-1,69
 397 -74 397 -74 341 -74 c 0,0,1
294 616 m 0,70,71
 297 616 297 616 300.5 620.5 c 128,-1,72
 304 625 304 625 306.5 630.5 c 128,-1,73
 309 636 309 636 310.5 641.5 c 128,-1,74
 312 647 312 647 312 649 c 0,75,76
 312 656 312 656 305 656 c 0,77,78
 299 656 299 656 295 652 c 128,-1,79
 291 648 291 648 288.5 643 c 128,-1,80
 286 638 286 638 285 632.5 c 128,-1,81
 284 627 284 627 285 625 c 0,82,83
 288 616 288 616 294 616 c 0,70,71
EndSplineSet
EndChar

StartChar: asciitilde.beng
Encoding: 126 126 40
Width: 830
Flags: W
LayerCount: 2
Fore
SplineSet
398.5 319 m 0,0,1
 362.5 335 362.5 335 339 340.5 c 128,-1,2
 315.5 346 315.5 346 293.5 346 c 0,3,4
 265.5 346 265.5 346 234.5 329 c 128,-1,5
 203.5 312 203.5 312 179.5 287 c 1,6,-1
 179.5 365 l 1,7,8
 203.5 391 203.5 391 233.5 404.5 c 128,-1,9
 263.5 418 263.5 418 299.5 418 c 0,10,11
 328.5 418 328.5 418 357 412 c 128,-1,12
 385.5 406 385.5 406 431.5 386 c 0,13,14
 467.5 370 467.5 370 491 364.5 c 128,-1,15
 514.5 359 514.5 359 535.5 359 c 0,16,17
 564.5 359 564.5 359 595.5 376 c 128,-1,18
 626.5 393 626.5 393 650.5 418 c 1,19,-1
 650.5 341 l 1,20,21
 626.5 315 626.5 315 596.5 301 c 128,-1,22
 566.5 287 566.5 287 530.5 287 c 0,23,24
 502.5 287 502.5 287 473 293.5 c 128,-1,25
 443.5 300 443.5 300 398.5 319 c 0,0,1
EndSplineSet
EndChar

StartChar: A
Encoding: 65 65 41
Width: 830
Flags: W
LayerCount: 2
Fore
SplineSet
370.5 -8 m 0,0,1
 303.5 -8 303.5 -8 266 71 c 128,-1,2
 228.5 150 228.5 150 228.5 291 c 0,3,4
 228.5 444 228.5 444 272.5 530 c 128,-1,5
 316.5 616 316.5 616 396.5 621 c 0,6,7
 425.5 623 425.5 623 444 614.5 c 128,-1,8
 462.5 606 462.5 606 474.5 595 c 128,-1,9
 486.5 584 486.5 584 492.5 575 c 128,-1,10
 498.5 566 498.5 566 501.5 566 c 256,11,12
 504.5 566 504.5 566 505.5 575 c 128,-1,13
 506.5 584 506.5 584 510.5 595 c 128,-1,14
 514.5 606 514.5 606 523 615 c 128,-1,15
 531.5 624 531.5 624 550.5 624 c 256,16,17
 569.5 624 569.5 624 582.5 615 c 128,-1,18
 595.5 606 595.5 606 595.5 592 c 2,19,-1
 595.5 204 l 2,20,21
 595.5 163 595.5 163 598.5 126.5 c 128,-1,22
 601.5 90 601.5 90 601.5 71 c 0,23,24
 601.5 36 601.5 36 588 14 c 128,-1,25
 574.5 -8 574.5 -8 553.5 -8 c 0,26,27
 529.5 -8 529.5 -8 514.5 19 c 128,-1,28
 499.5 46 499.5 46 499.5 88 c 0,29,30
 499.5 114 499.5 114 494.5 114 c 0,31,32
 490.5 114 490.5 114 483.5 95 c 128,-1,33
 476.5 76 476.5 76 463 53 c 128,-1,34
 449.5 30 449.5 30 427.5 11 c 128,-1,35
 405.5 -8 405.5 -8 370.5 -8 c 0,0,1
524.5 557 m 0,36,37
 528.5 557 528.5 557 530 563.5 c 128,-1,38
 531.5 570 531.5 570 533.5 577 c 0,39,40
 536.5 587 536.5 587 539.5 594 c 128,-1,41
 542.5 601 542.5 601 542.5 606 c 256,42,43
 542.5 611 542.5 611 538.5 611 c 0,44,45
 533.5 611 533.5 611 525.5 601 c 128,-1,46
 517.5 591 517.5 591 517.5 575 c 0,47,48
 517.5 567 517.5 567 519.5 562 c 128,-1,49
 521.5 557 521.5 557 524.5 557 c 0,36,37
394.5 90 m 0,50,51
 408.5 90 408.5 90 424.5 117 c 128,-1,52
 440.5 144 440.5 144 454 185.5 c 128,-1,53
 467.5 227 467.5 227 476.5 275.5 c 128,-1,54
 485.5 324 485.5 324 485.5 366 c 0,55,56
 485.5 399 485.5 399 480 428.5 c 128,-1,57
 474.5 458 474.5 458 464.5 480.5 c 128,-1,58
 454.5 503 454.5 503 442 516 c 128,-1,59
 429.5 529 429.5 529 415.5 529 c 0,60,61
 399.5 529 399.5 529 384.5 511.5 c 128,-1,62
 369.5 494 369.5 494 359 463.5 c 128,-1,63
 348.5 433 348.5 433 342 392.5 c 128,-1,64
 335.5 352 335.5 352 335.5 306 c 0,65,66
 335.5 265 335.5 265 340.5 226 c 128,-1,67
 345.5 187 345.5 187 354 157 c 128,-1,68
 362.5 127 362.5 127 373 108.5 c 128,-1,69
 383.5 90 383.5 90 394.5 90 c 0,50,51
322.5 33 m 0,70,71
 326.5 33 326.5 33 329 36.5 c 128,-1,72
 331.5 40 331.5 40 330.5 43 c 256,73,74
 329.5 46 329.5 46 325 51.5 c 128,-1,75
 320.5 57 320.5 57 314.5 64.5 c 128,-1,76
 308.5 72 308.5 72 303 80.5 c 128,-1,77
 297.5 89 297.5 89 295.5 97 c 0,78,79
 294.5 101 294.5 101 293 107.5 c 128,-1,80
 291.5 114 291.5 114 289.5 120.5 c 128,-1,81
 287.5 127 287.5 127 285.5 131.5 c 128,-1,82
 283.5 136 283.5 136 280.5 136 c 0,83,84
 275.5 136 275.5 136 275.5 122.5 c 128,-1,85
 275.5 109 275.5 109 282.5 89 c 0,86,87
 290.5 69 290.5 69 302.5 51 c 128,-1,88
 314.5 33 314.5 33 322.5 33 c 0,70,71
551.5 22 m 256,89,90
 551.5 25 551.5 25 548 29 c 128,-1,91
 544.5 33 544.5 33 540 38 c 128,-1,92
 535.5 43 535.5 43 532 49.5 c 128,-1,93
 528.5 56 528.5 56 528.5 63 c 0,94,95
 528.5 66 528.5 66 527.5 69 c 0,96,97
 525.5 74 525.5 74 521.5 74 c 0,98,99
 514.5 74 514.5 74 514.5 62 c 0,100,101
 514.5 46 514.5 46 523.5 29.5 c 128,-1,102
 532.5 13 532.5 13 541.5 13 c 0,103,104
 545.5 13 545.5 13 548.5 16 c 128,-1,105
 551.5 19 551.5 19 551.5 22 c 256,89,90
347.5 17 m 256,106,107
 350.5 17 350.5 17 354 21 c 128,-1,108
 357.5 25 357.5 25 359 29.5 c 128,-1,109
 360.5 34 360.5 34 359 38 c 128,-1,110
 357.5 42 357.5 42 351.5 42 c 0,111,112
 339.5 42 339.5 42 339.5 30 c 0,113,114
 339.5 25 339.5 25 342 21 c 128,-1,115
 344.5 17 344.5 17 347.5 17 c 256,106,107
EndSplineSet

EndChar

StartChar: B
Encoding: 66 66 42
Width: 830
Flags: W
LayerCount: 2
Fore
SplineSet
480 546 m 0,0,1
 440 546 440 546 411.5 574 c 128,-1,2
 383 602 383 602 383 646 c 0,3,4
 383 670 383 670 391.5 691.5 c 128,-1,5
 400 713 400 713 415 728.5 c 128,-1,6
 430 744 430 744 451 753.5 c 128,-1,7
 472 763 472 763 497 763 c 0,8,9
 517 763 517 763 534 754.5 c 128,-1,10
 551 746 551 746 563 731 c 128,-1,11
 575 716 575 716 581.5 697 c 128,-1,12
 588 678 588 678 588 657 c 0,13,14
 588 630 588 630 579.5 609.5 c 128,-1,15
 571 589 571 589 556 575 c 128,-1,16
 541 561 541 561 521.5 553.5 c 128,-1,17
 502 546 502 546 480 546 c 0,0,1
443 719 m 0,18,19
 450 726 450 726 451.5 731 c 128,-1,20
 453 736 453 736 451 736 c 0,21,22
 443 736 443 736 434 728.5 c 128,-1,23
 425 721 425 721 417.5 710.5 c 128,-1,24
 410 700 410 700 405 688 c 128,-1,25
 400 676 400 676 400 666 c 0,26,27
 400 664 400 664 401.5 658 c 128,-1,28
 403 652 403 652 406 652 c 0,29,30
 410 652 410 652 416 674 c 0,31,32
 419 688 419 688 427 699.5 c 128,-1,33
 435 711 435 711 443 719 c 0,18,19
484 603 m 0,34,35
 496 603 496 603 512.5 617 c 128,-1,36
 529 631 529 631 529 657 c 0,37,38
 529 677 529 677 518.5 690.5 c 128,-1,39
 508 704 508 704 491 704 c 256,40,41
 474 704 474 704 460 690.5 c 128,-1,42
 446 677 446 677 446 653 c 256,43,44
 446 629 446 629 457 616 c 128,-1,45
 468 603 468 603 484 603 c 0,34,35
287 655 m 0,46,47
 267 655 267 655 250 640 c 128,-1,48
 233 625 233 625 233 586 c 2,49,-1
 233 91 l 2,50,51
 233 70 233 70 241.5 53 c 128,-1,52
 250 36 250 36 264.5 24.5 c 128,-1,53
 279 13 279 13 297.5 7 c 128,-1,54
 316 1 316 1 336 1 c 2,55,-1
 395 1 l 2,56,57
 426 1 426 1 461.5 13 c 128,-1,58
 497 25 497 25 527 51 c 128,-1,59
 557 77 557 77 577 119 c 128,-1,60
 597 161 597 161 597 220 c 256,61,62
 597 279 597 279 577.5 325.5 c 128,-1,63
 558 372 558 372 529 403.5 c 128,-1,64
 500 435 500 435 466 451.5 c 128,-1,65
 432 468 432 468 402 468 c 2,66,-1
 373 468 l 2,67,68
 364 468 364 468 355.5 472 c 128,-1,69
 347 476 347 476 347 485 c 2,70,-1
 347 590 l 2,71,72
 347 608 347 608 341.5 620 c 128,-1,73
 336 632 336 632 327 640 c 128,-1,74
 318 648 318 648 307.5 651.5 c 128,-1,75
 297 655 297 655 287 655 c 0,46,47
391 379 m 2,76,77
 408 379 408 379 424 371 c 128,-1,78
 440 363 440 363 453.5 345.5 c 128,-1,79
 467 328 467 328 475 300 c 128,-1,80
 483 272 483 272 483 232 c 0,81,82
 483 189 483 189 475 160.5 c 128,-1,83
 467 132 467 132 454 115.5 c 128,-1,84
 441 99 441 99 425 92 c 128,-1,85
 409 85 409 85 394 85 c 2,86,-1
 372 85 l 2,87,88
 347 85 347 85 347 119 c 2,89,-1
 347 356 l 2,90,91
 347 379 347 379 378 379 c 2,92,-1
 391 379 l 2,76,77
273 620 m 256,93,94
 268 615 268 615 264.5 602 c 128,-1,95
 261 589 261 589 261 550.5 c 128,-1,96
 261 512 261 512 254 512 c 0,97,98
 249 512 249 512 247.5 520.5 c 128,-1,99
 246 529 246 529 246 541 c 0,100,101
 246 603 246 603 253 619 c 128,-1,102
 260 635 260 635 270 635 c 0,103,104
 272 635 272 635 275 633 c 128,-1,105
 278 631 278 631 278 629 c 0,106,107
 278 625 278 625 273 620 c 256,93,94
EndSplineSet
EndChar

StartChar: C
Encoding: 67 67 43
Width: 830
Flags: W
LayerCount: 2
Fore
SplineSet
476 584 m 0,0,1
 436 584 436 584 407.5 612 c 0,2,3
 379 640 379 640 379 684 c 0,4,5
 379 708 379 708 387.5 729.5 c 0,6,7
 396 751 396 751 411 766.5 c 0,8,9
 426 782 426 782 447 791.5 c 0,10,11
 468 801 468 801 493 801 c 0,12,13
 513 801 513 801 530 792.5 c 0,14,15
 547 784 547 784 559 769 c 0,16,17
 571 754 571 754 577.5 735 c 0,18,19
 584 716 584 716 584 695 c 0,20,21
 584 668 584 668 575.5 647.5 c 0,22,23
 567 627 567 627 552 613 c 0,24,25
 537 599 537 599 517.5 591.5 c 0,26,27
 498 584 498 584 476 584 c 0,0,1
439 757 m 0,28,29
 446 764 446 764 447.5 769 c 0,30,31
 449 774 449 774 447 774 c 0,32,33
 439 774 439 774 430 766.5 c 0,34,35
 421 759 421 759 413.5 748.5 c 0,36,37
 406 738 406 738 401 726 c 0,38,39
 396 714 396 714 396 704 c 0,40,41
 396 702 396 702 397.5 696 c 0,42,43
 399 690 399 690 402 690 c 0,44,45
 406 690 406 690 412 712 c 0,46,47
 415 726 415 726 423 737.5 c 0,48,49
 431 749 431 749 439 757 c 0,28,29
480 641 m 0,50,51
 492 641 492 641 508.5 655 c 0,52,53
 525 669 525 669 525 695 c 0,54,55
 525 715 525 715 514.5 728.5 c 0,56,57
 504 742 504 742 487 742 c 256,58,59
 470 742 470 742 456 728.5 c 0,60,61
 442 715 442 715 442 691 c 256,62,63
 442 667 442 667 453 654 c 0,64,65
 464 641 464 641 480 641 c 0,50,51
EndSplineSet
Refer: 69 99 N 1 0 0 1 15 -15 2
EndChar

StartChar: D
Encoding: 68 68 44
Width: 830
Flags: W
LayerCount: 2
Fore
SplineSet
315.5 0 m 2,0,1
 297.5 0 297.5 0 281 4 c 128,-1,2
 264.5 8 264.5 8 252 18 c 128,-1,3
 239.5 28 239.5 28 232 45 c 128,-1,4
 224.5 62 224.5 62 224.5 88 c 2,5,-1
 224.5 516 l 2,6,7
 224.5 543 224.5 543 234 562.5 c 128,-1,8
 243.5 582 243.5 582 259 594.5 c 128,-1,9
 274.5 607 274.5 607 295.5 612.5 c 128,-1,10
 316.5 618 316.5 618 339.5 618 c 2,11,-1
 384.5 618 l 2,12,13
 427.5 618 427.5 618 467.5 598.5 c 128,-1,14
 507.5 579 507.5 579 538 541.5 c 128,-1,15
 568.5 504 568.5 504 587 449.5 c 128,-1,16
 605.5 395 605.5 395 605.5 326 c 0,17,18
 605.5 253 605.5 253 586.5 192.5 c 128,-1,19
 567.5 132 567.5 132 535.5 89.5 c 128,-1,20
 503.5 47 503.5 47 460.5 23.5 c 128,-1,21
 417.5 0 417.5 0 370.5 0 c 2,22,-1
 315.5 0 l 2,0,1
365.5 96 m 2,23,24
 391.5 96 391.5 96 414.5 112.5 c 128,-1,25
 437.5 129 437.5 129 454 159.5 c 128,-1,26
 470.5 190 470.5 190 480 233 c 128,-1,27
 489.5 276 489.5 276 489.5 329 c 0,28,29
 489.5 424 489.5 424 459.5 472 c 128,-1,30
 429.5 520 429.5 520 381.5 520 c 2,31,-1
 366.5 520 l 2,32,33
 349.5 520 349.5 520 344 512.5 c 128,-1,34
 338.5 505 338.5 505 338.5 480 c 2,35,-1
 338.5 132 l 2,36,37
 338.5 112 338.5 112 342 104 c 128,-1,38
 345.5 96 345.5 96 352.5 96 c 2,39,-1
 365.5 96 l 2,23,24
255.5 83 m 0,40,41
 259.5 83 259.5 83 261 93.5 c 128,-1,42
 262.5 104 262.5 104 262.5 117.5 c 128,-1,43
 262.5 131 262.5 131 262 143.5 c 128,-1,44
 261.5 156 261.5 156 261.5 161 c 0,45,46
 261.5 216 261.5 216 255.5 216 c 0,47,48
 252.5 216 252.5 216 249.5 203.5 c 128,-1,49
 246.5 191 246.5 191 246.5 161 c 0,50,51
 246.5 116 246.5 116 247 99.5 c 128,-1,52
 247.5 83 247.5 83 255.5 83 c 0,40,41
254.5 69 m 0,53,54
 247.5 69 247.5 69 247.5 58 c 0,55,56
 247.5 40 247.5 40 255.5 40 c 0,57,58
 258.5 40 258.5 40 260.5 46 c 128,-1,59
 262.5 52 262.5 52 262.5 58 c 0,60,61
 262.5 69 262.5 69 254.5 69 c 0,53,54
EndSplineSet

EndChar

StartChar: E
Encoding: 69 69 45
Width: 830
Flags: W
AnchorPoint: "Anchor-5" 411 0 basechar 0
AnchorPoint: "Anchor-4" 437 536 basechar 0
LayerCount: 2
Fore
SplineSet
300 333.5 m 0,0,1
 288 349.5 288 349.5 279 365 c 128,-1,2
 270 380.5 270 380.5 268 395.5 c 0,3,4
 265 409.5 265 409.5 259 408.5 c 0,5,6
 251 408.5 251 408.5 254 390.5 c 0,7,8
 255 381.5 255 381.5 259.5 368.5 c 128,-1,9
 264 355.5 264 355.5 270 344.5 c 128,-1,10
 276 333.5 276 333.5 284 326 c 128,-1,11
 292 318.5 292 318.5 301 319.5 c 0,12,13
 309 321.5 309 321.5 300 333.5 c 0,0,1
286 60 m 0,14,15
 274 76 274 76 265 91.5 c 128,-1,16
 256 107 256 107 254 122 c 0,17,18
 251 136 251 136 245 135 c 0,19,20
 237 135 237 135 240 117 c 0,21,22
 241 108 241 108 245.5 95 c 128,-1,23
 250 82 250 82 256 71 c 128,-1,24
 262 60 262 60 270 52.5 c 128,-1,25
 278 45 278 45 287 46 c 0,26,27
 295 48 295 48 286 60 c 0,14,15
524 315 m 1,28,-1
 524 243 l 1,29,-1
 451 243 l 2,30,31
 400 243 400 243 366.5 232.5 c 128,-1,32
 333 222 333 222 316.5 202 c 128,-1,33
 300 182 300 182 300 151 c 0,34,35
 300 118 300 118 319 98.5 c 128,-1,36
 338 79 338 79 370 70.5 c 128,-1,37
 402 62 402 62 442 62 c 0,38,39
 498 62 498 62 540.5 75 c 128,-1,40
 583 88 583 88 616 104 c 1,41,-1
 616 27 l 1,42,43
 585 11 585 11 542 0.5 c 128,-1,44
 499 -10 499 -10 437 -10 c 0,45,46
 322 -10 322 -10 267 34.5 c 128,-1,47
 212 79 212 79 212 146 c 0,48,49
 212 186 212 186 228.5 211.5 c 128,-1,50
 245 237 245 237 272 252.5 c 128,-1,51
 299 268 299 268 331 277 c 1,52,-1
 331 282 l 1,53,54
 286 296 286 296 258.5 325.5 c 128,-1,55
 231 355 231 355 231 404 c 0,56,57
 231 449 231 449 257.5 481 c 128,-1,58
 284 513 284 513 330.5 529.5 c 128,-1,59
 377 546 377 546 437 546 c 0,60,61
 495 546 495 546 536.5 536 c 128,-1,62
 578 526 578 526 618 508 c 1,63,-1
 585 438 l 1,64,65
 552 453 552 453 517.5 463 c 128,-1,66
 483 473 483 473 436 473 c 0,67,68
 376 473 376 473 345.5 454 c 128,-1,69
 315 435 315 435 315 397 c 0,70,71
 315 353 315 353 356.5 334 c 128,-1,72
 398 315 398 315 468 315 c 2,73,-1
 524 315 l 1,28,-1
EndSplineSet

EndChar

StartChar: F
Encoding: 70 70 46
Width: 830
Flags: W
LayerCount: 2
Fore
SplineSet
326.5 0 m 0,0,1
 299.5 0 299.5 0 282 9.5 c 128,-1,2
 264.5 19 264.5 19 264.5 49 c 2,3,-1
 264.5 543 l 2,4,5
 264.5 582 264.5 582 293 599.5 c 128,-1,6
 321.5 617 321.5 617 366.5 617 c 2,7,-1
 536.5 616 l 2,8,9
 547.5 616 547.5 616 556.5 604.5 c 128,-1,10
 565.5 593 565.5 593 565.5 579 c 0,11,12
 565.5 572 565.5 572 564 561.5 c 128,-1,13
 562.5 551 562.5 551 559.5 541.5 c 128,-1,14
 556.5 532 556.5 532 552 525.5 c 128,-1,15
 547.5 519 547.5 519 541.5 519 c 2,16,-1
 404.5 520 l 2,17,18
 378.5 520 378.5 520 378.5 494 c 2,19,-1
 378.5 345 l 2,20,21
 378.5 335 378.5 335 385 330.5 c 128,-1,22
 391.5 326 391.5 326 401.5 326 c 2,23,-1
 507.5 329 l 2,24,25
 515.5 329 515.5 329 521.5 324 c 128,-1,26
 527.5 319 527.5 319 532.5 310.5 c 128,-1,27
 537.5 302 537.5 302 540 293 c 128,-1,28
 542.5 284 542.5 284 542.5 276 c 0,29,30
 542.5 237 542.5 237 504.5 236 c 2,31,-1
 398.5 233 l 2,32,33
 390.5 233 390.5 233 384.5 227 c 128,-1,34
 378.5 221 378.5 221 378.5 213 c 2,35,-1
 378.5 48 l 2,36,37
 378.5 32 378.5 32 374 22.5 c 128,-1,38
 369.5 13 369.5 13 362 8 c 128,-1,39
 354.5 3 354.5 3 345 1.5 c 128,-1,40
 335.5 0 335.5 0 326.5 0 c 0,0,1
314.5 26 m 0,41,42
 313.5 31 313.5 31 305 42 c 128,-1,43
 296.5 53 296.5 53 294.5 78 c 0,44,45
 292.5 91 292.5 91 289 94 c 128,-1,46
 285.5 97 285.5 97 283.5 97 c 256,47,48
 281.5 97 281.5 97 280 91 c 128,-1,49
 278.5 85 278.5 85 280.5 75 c 0,50,51
 280.5 70 280.5 70 282.5 60.5 c 128,-1,52
 284.5 51 284.5 51 288 41.5 c 128,-1,53
 291.5 32 291.5 32 296.5 25 c 128,-1,54
 301.5 18 301.5 18 308.5 19 c 0,55,56
 314.5 19 314.5 19 314.5 26 c 0,41,42
EndSplineSet

EndChar

StartChar: G
Encoding: 71 71 47
Width: 830
Flags: W
LayerCount: 2
Fore
SplineSet
445 621 m 0,0,1
 405 621 405 621 376.5 649 c 128,-1,2
 348 677 348 677 348 721 c 0,3,4
 348 745 348 745 356.5 766.5 c 128,-1,5
 365 788 365 788 380 803.5 c 128,-1,6
 395 819 395 819 416 828.5 c 128,-1,7
 437 838 437 838 462 838 c 0,8,9
 482 838 482 838 499 829.5 c 128,-1,10
 516 821 516 821 528 806 c 128,-1,11
 540 791 540 791 546.5 772 c 128,-1,12
 553 753 553 753 553 732 c 0,13,14
 553 705 553 705 544.5 684.5 c 128,-1,15
 536 664 536 664 521 650 c 128,-1,16
 506 636 506 636 486.5 628.5 c 128,-1,17
 467 621 467 621 445 621 c 0,0,1
408 794 m 0,18,19
 415 801 415 801 416.5 806 c 128,-1,20
 418 811 418 811 416 811 c 0,21,22
 408 811 408 811 399 803.5 c 128,-1,23
 390 796 390 796 382.5 785.5 c 128,-1,24
 375 775 375 775 370 763 c 128,-1,25
 365 751 365 751 365 741 c 0,26,27
 365 739 365 739 366.5 733 c 128,-1,28
 368 727 368 727 371 727 c 0,29,30
 375 727 375 727 381 749 c 0,31,32
 384 763 384 763 392 774.5 c 128,-1,33
 400 786 400 786 408 794 c 0,18,19
449 678 m 0,34,35
 461 678 461 678 477.5 692 c 128,-1,36
 494 706 494 706 494 732 c 0,37,38
 494 752 494 752 483.5 765.5 c 128,-1,39
 473 779 473 779 456 779 c 256,40,41
 439 779 439 779 425 765.5 c 128,-1,42
 411 752 411 752 411 728 c 256,43,44
 411 704 411 704 422 691 c 128,-1,45
 433 678 433 678 449 678 c 0,34,35
414 -37 m 0,46,47
 351 -37 351 -37 310.5 -4 c 128,-1,48
 270 29 270 29 247 79 c 128,-1,49
 224 129 224 129 215.5 187 c 128,-1,50
 207 245 207 245 207 296 c 0,51,52
 207 352 207 352 220.5 405.5 c 128,-1,53
 234 459 234 459 262.5 500.5 c 128,-1,54
 291 542 291 542 336.5 567.5 c 128,-1,55
 382 593 382 593 446 593 c 0,56,57
 473 593 473 593 502.5 587 c 128,-1,58
 532 581 532 581 556.5 564.5 c 128,-1,59
 581 548 581 548 597.5 520 c 128,-1,60
 614 492 614 492 614 448 c 0,61,62
 614 432 614 432 607.5 422.5 c 128,-1,63
 601 413 601 413 591.5 407.5 c 128,-1,64
 582 402 582 402 572 400.5 c 128,-1,65
 562 399 562 399 556 399 c 0,66,67
 542 399 542 399 529.5 409 c 128,-1,68
 517 419 517 419 517 448 c 0,69,70
 517 471 517 471 509 483 c 128,-1,71
 501 495 501 495 490 500.5 c 128,-1,72
 479 506 479 506 468.5 507 c 128,-1,73
 458 508 458 508 452 508 c 0,74,75
 426 508 426 508 403 492.5 c 128,-1,76
 380 477 380 477 362.5 448 c 128,-1,77
 345 419 345 419 335 377 c 128,-1,78
 325 335 325 335 325 282 c 0,79,80
 325 253 325 253 328.5 213 c 128,-1,81
 332 173 332 173 344 137 c 128,-1,82
 356 101 356 101 378 75.5 c 128,-1,83
 400 50 400 50 436 50 c 0,84,85
 459 50 459 50 476 65 c 128,-1,86
 493 80 493 80 504.5 102 c 128,-1,87
 516 124 516 124 522 148.5 c 128,-1,88
 528 173 528 173 527 192 c 0,89,90
 526 208 526 208 507.5 209.5 c 128,-1,91
 489 211 489 211 466 211 c 2,92,-1
 404 211 l 2,93,94
 398 211 398 211 393 217 c 128,-1,95
 388 223 388 223 385 231.5 c 128,-1,96
 382 240 382 240 380 249 c 128,-1,97
 378 258 378 258 378 264 c 0,98,99
 378 280 378 280 388.5 292.5 c 128,-1,100
 399 305 399 305 422 305 c 2,101,-1
 547 304 l 2,102,103
 560 304 560 304 573.5 298.5 c 128,-1,104
 587 293 587 293 597.5 282.5 c 128,-1,105
 608 272 608 272 615 255.5 c 128,-1,106
 622 239 622 239 622 216 c 0,107,108
 622 181 622 181 622.5 151 c 128,-1,109
 623 121 623 121 623 77 c 0,110,111
 623 43 623 43 620.5 22 c 128,-1,112
 618 1 618 1 612 -11 c 128,-1,113
 606 -23 606 -23 597.5 -27.5 c 128,-1,114
 589 -32 589 -32 577 -32 c 0,115,116
 560 -32 560 -32 552 -19.5 c 128,-1,117
 544 -7 544 -7 540.5 8 c 128,-1,118
 537 23 537 23 536 35.5 c 128,-1,119
 535 48 535 48 532 48 c 256,120,121
 529 48 529 48 523 34.5 c 128,-1,122
 517 21 517 21 504 5.5 c 128,-1,123
 491 -10 491 -10 470 -23.5 c 128,-1,124
 449 -37 449 -37 414 -37 c 0,46,47
319 44 m 0,125,126
 319 49 319 49 303 72 c 0,127,128
 296 83 296 83 289 97.5 c 128,-1,129
 282 112 282 112 277 126 c 128,-1,130
 272 140 272 140 269 152 c 128,-1,131
 266 164 266 164 267 168 c 0,132,133
 268 173 268 173 265 175.5 c 128,-1,134
 262 178 262 178 261 178 c 0,135,136
 253 178 253 178 251 167 c 256,137,138
 249 156 249 156 254.5 135 c 128,-1,139
 260 114 260 114 269.5 93 c 128,-1,140
 279 72 279 72 290.5 56 c 128,-1,141
 302 40 302 40 311 39 c 0,142,143
 318 37 318 37 319 44 c 0,125,126
582 -7 m 0,144,145
 582 1 582 1 574 6.5 c 128,-1,146
 566 12 566 12 565 24 c 0,147,148
 565 27 565 27 564.5 35 c 128,-1,149
 564 43 564 43 559 43 c 256,150,151
 554 43 554 43 553 36.5 c 128,-1,152
 552 30 552 30 552 25 c 256,153,154
 552 20 552 20 553.5 12.5 c 128,-1,155
 555 5 555 5 558 -1.5 c 128,-1,156
 561 -8 561 -8 565 -13 c 128,-1,157
 569 -18 569 -18 574 -18 c 256,158,159
 579 -18 579 -18 580.5 -14 c 128,-1,160
 582 -10 582 -10 582 -7 c 0,144,145
339 27 m 0,161,162
 340 30 340 30 337.5 32.5 c 128,-1,163
 335 35 335 35 333 35 c 0,164,165
 329 36 329 36 327.5 33 c 128,-1,166
 326 30 326 30 325 28 c 0,167,168
 324 23 324 23 326.5 21.5 c 128,-1,169
 329 20 329 20 331 20 c 0,170,171
 337 20 337 20 339 27 c 0,161,162
EndSplineSet
EndChar

StartChar: H
Encoding: 72 72 48
Width: 830
Flags: W
LayerCount: 2
Fore
SplineSet
534 0 m 256,0,1
 517 0 517 0 507 9.5 c 128,-1,2
 497 19 497 19 492 33 c 128,-1,3
 487 47 487 47 485.5 63 c 128,-1,4
 484 79 484 79 484 92 c 2,5,-1
 484 238 l 2,6,7
 484 242 484 242 484 247 c 128,-1,8
 484 252 484 252 483 256.5 c 128,-1,9
 482 261 482 261 479 263.5 c 128,-1,10
 476 266 476 266 471 264 c 2,11,-1
 364 233 l 2,12,13
 355 231 355 231 350.5 229 c 128,-1,14
 346 227 346 227 346 217 c 2,15,-1
 346 105 l 2,16,17
 346 93 346 93 344 75 c 128,-1,18
 342 57 342 57 336.5 40.5 c 128,-1,19
 331 24 331 24 321 12 c 128,-1,20
 311 0 311 0 294 0 c 0,21,22
 273 0 273 0 261 10.5 c 128,-1,23
 249 21 249 21 243 37 c 128,-1,24
 237 53 237 53 235.5 71 c 128,-1,25
 234 89 234 89 234 105 c 2,26,-1
 234 542 l 2,27,28
 234 567 234 567 248.5 589.5 c 128,-1,29
 263 612 263 612 291 612 c 0,30,31
 305 612 305 612 315.5 605.5 c 128,-1,32
 326 599 326 599 333 588.5 c 128,-1,33
 340 578 340 578 343 565 c 128,-1,34
 346 552 346 552 346 540 c 2,35,-1
 346 339 l 2,36,37
 346 332 346 332 348 324.5 c 128,-1,38
 350 317 350 317 359 319 c 2,39,-1
 473 349 l 2,40,41
 482 351 482 351 483 356 c 128,-1,42
 484 361 484 361 484 368 c 2,43,-1
 484 540 l 2,44,45
 484 551 484 551 485.5 564 c 128,-1,46
 487 577 487 577 492 588.5 c 128,-1,47
 497 600 497 600 506 608 c 128,-1,48
 515 616 515 616 529 616 c 0,49,50
 562 616 562 616 579 591.5 c 128,-1,51
 596 567 596 567 596 537 c 2,52,-1
 596 91 l 2,53,54
 596 78 596 78 592.5 62 c 128,-1,55
 589 46 589 46 581.5 32 c 128,-1,56
 574 18 574 18 562.5 9 c 128,-1,57
 551 0 551 0 534 0 c 256,0,1
505 552 m 256,58,59
 508 552 508 552 512.5 558 c 128,-1,60
 517 564 517 564 521 571.5 c 128,-1,61
 525 579 525 579 527.5 586.5 c 128,-1,62
 530 594 530 594 530 597 c 256,63,64
 530 600 530 600 526 600 c 0,65,66
 514 600 514 600 507 586 c 128,-1,67
 500 572 500 572 500 562 c 0,68,69
 500 560 500 560 501 556 c 128,-1,70
 502 552 502 552 505 552 c 256,58,59
276 30 m 1,71,72
 275 36 275 36 273 40.5 c 128,-1,73
 271 45 271 45 268.5 50.5 c 128,-1,74
 266 56 266 56 264.5 64.5 c 128,-1,75
 263 73 263 73 263 86 c 0,76,77
 263 90 263 90 262 96.5 c 128,-1,78
 261 103 261 103 256 103 c 0,79,80
 252 103 252 103 251 96 c 128,-1,81
 250 89 250 89 250 86 c 0,82,83
 250 82 250 82 251 72 c 128,-1,84
 252 62 252 62 254 52 c 128,-1,85
 256 42 256 42 260 34.5 c 128,-1,86
 264 27 264 27 270 27 c 2,87,-1
 276 30 l 1,71,72
525 20 m 0,88,89
 525 22 525 22 524 23 c 128,-1,90
 523 24 523 24 522 26 c 0,91,92
 515 35 515 35 511 50.5 c 128,-1,93
 507 66 507 66 507 77 c 1,94,-1
 505 81 l 1,95,96
 500 81 500 81 499 71 c 128,-1,97
 498 61 498 61 498 58 c 0,98,99
 498 47 498 47 502.5 32 c 128,-1,100
 507 17 507 17 522 17 c 0,101,102
 525 17 525 17 525 20 c 0,88,89
EndSplineSet
EndChar

StartChar: I
Encoding: 73 73 49
Width: 830
Flags: W
LayerCount: 2
Fore
SplineSet
282 484 m 1,0,-1
 392 792 l 1,1,-1
 442 792 l 1,2,-1
 548 484 l 1,3,-1
 470 484 l 1,4,-1
 418 699 l 1,5,-1
 360 484 l 1,6,-1
 282 484 l 1,0,-1
410 -4 m 256,7,8
 386 -4 386 -4 373 6.5 c 128,-1,9
 360 17 360 17 360 32 c 2,10,-1
 360 387 l 2,11,12
 360 396 360 396 362.5 408 c 128,-1,13
 365 420 365 420 370.5 430 c 128,-1,14
 376 440 376 440 385.5 447 c 128,-1,15
 395 454 395 454 410 454 c 256,16,17
 425 454 425 454 435.5 448 c 128,-1,18
 446 442 446 442 452.5 433 c 128,-1,19
 459 424 459 424 462.5 413 c 128,-1,20
 466 402 466 402 466 392 c 2,21,-1
 466 32 l 2,22,23
 466 16 466 16 450 6 c 128,-1,24
 434 -4 434 -4 410 -4 c 256,7,8
378 359 m 0,25,26
 381 359 381 359 382 365 c 128,-1,27
 383 371 383 371 383 379.5 c 128,-1,28
 383 388 383 388 383.5 397.5 c 128,-1,29
 384 407 384 407 386 413 c 0,30,31
 387 417 387 417 389 424 c 128,-1,32
 391 431 391 431 388 431 c 0,33,34
 383 431 383 431 379.5 425.5 c 128,-1,35
 376 420 376 420 373.5 412.5 c 128,-1,36
 371 405 371 405 370 396.5 c 128,-1,37
 369 388 369 388 369 383 c 0,38,39
 369 376 369 376 371 367.5 c 128,-1,40
 373 359 373 359 378 359 c 0,25,26
EndSplineSet
EndChar

StartChar: J
Encoding: 74 74 50
Width: 830
Flags: W
LayerCount: 2
Fore
SplineSet
418 -8 m 0,0,1
 373 -8 373 -8 341 4.5 c 128,-1,2
 309 17 309 17 289 38.5 c 128,-1,3
 269 60 269 60 260 88.5 c 128,-1,4
 251 117 251 117 251 149 c 0,5,6
 251 203 251 203 264 221.5 c 128,-1,7
 277 240 277 240 293 240 c 0,8,9
 301 240 301 240 310 238 c 128,-1,10
 319 236 319 236 327 230.5 c 128,-1,11
 335 225 335 225 340 215 c 128,-1,12
 345 205 345 205 345 188 c 0,13,14
 345 172 345 172 346.5 153 c 128,-1,15
 348 134 348 134 353.5 118 c 128,-1,16
 359 102 359 102 370 91.5 c 128,-1,17
 381 81 381 81 401 81 c 0,18,19
 419 81 419 81 431 86 c 128,-1,20
 443 91 443 91 450.5 104.5 c 128,-1,21
 458 118 458 118 461 141 c 128,-1,22
 464 164 464 164 464 199 c 0,23,24
 464 237 464 237 464.5 290 c 128,-1,25
 465 343 465 343 465 412 c 2,26,-1
 465 517 l 2,27,28
 465 525 465 525 457.5 530.5 c 128,-1,29
 450 536 450 536 442 536 c 2,30,-1
 401 536 l 2,31,32
 347 536 347 536 324.5 546 c 128,-1,33
 302 556 302 556 302 579 c 0,34,35
 302 594 302 594 310 601.5 c 128,-1,36
 318 609 318 609 336 612 c 128,-1,37
 354 615 354 615 383 615.5 c 128,-1,38
 412 616 412 616 454 616 c 0,39,40
 514 616 514 616 543.5 609 c 128,-1,41
 573 602 573 602 578 584 c 0,42,43
 579 581 579 581 579 558.5 c 128,-1,44
 579 536 579 536 579 502.5 c 128,-1,45
 579 469 579 469 578.5 429.5 c 128,-1,46
 578 390 578 390 578 353 c 0,47,48
 577 289 577 289 577 247 c 128,-1,49
 577 205 577 205 576.5 177 c 128,-1,50
 576 149 576 149 573.5 129.5 c 128,-1,51
 571 110 571 110 566 90 c 0,52,53
 559 65 559 65 543 46.5 c 128,-1,54
 527 28 527 28 506 16 c 128,-1,55
 485 4 485 4 462 -2 c 128,-1,56
 439 -8 439 -8 418 -8 c 0,0,1
358 594 m 0,57,58
 360 599 360 599 356 600 c 0,59,60
 349 602 349 602 335.5 598 c 128,-1,61
 322 594 322 594 320 587 c 0,62,63
 319 584 319 584 320 580.5 c 128,-1,64
 321 577 321 577 323 576 c 0,65,66
 331 574 331 574 343.5 581 c 128,-1,67
 356 588 356 588 358 594 c 0,57,58
272 144 m 0,68,69
 277 145 277 145 278.5 157 c 128,-1,70
 280 169 280 169 281 173 c 0,71,72
 283 183 283 183 285.5 194 c 128,-1,73
 288 205 288 205 295 214 c 0,74,75
 300 219 300 219 299 223 c 0,76,77
 299 225 299 225 297 226.5 c 128,-1,78
 295 228 295 228 293 227 c 0,79,80
 284 226 284 226 278 217 c 128,-1,81
 272 208 272 208 269 197 c 128,-1,82
 266 186 266 186 265 176 c 128,-1,83
 264 166 264 166 264 163 c 0,84,85
 265 155 265 155 267 149 c 128,-1,86
 269 143 269 143 272 144 c 0,68,69
EndSplineSet
EndChar

StartChar: K
Encoding: 75 75 51
Width: 830
Flags: W
LayerCount: 2
Fore
SplineSet
366.5 575 m 0,0,1
 326.5 575 326.5 575 298 603 c 128,-1,2
 269.5 631 269.5 631 269.5 675 c 0,3,4
 269.5 699 269.5 699 278 720.5 c 128,-1,5
 286.5 742 286.5 742 301.5 757.5 c 128,-1,6
 316.5 773 316.5 773 337.5 782.5 c 128,-1,7
 358.5 792 358.5 792 383.5 792 c 0,8,9
 403.5 792 403.5 792 420.5 783.5 c 128,-1,10
 437.5 775 437.5 775 449.5 760 c 128,-1,11
 461.5 745 461.5 745 468 726 c 128,-1,12
 474.5 707 474.5 707 474.5 686 c 0,13,14
 474.5 659 474.5 659 466 638.5 c 128,-1,15
 457.5 618 457.5 618 442.5 604 c 128,-1,16
 427.5 590 427.5 590 408 582.5 c 128,-1,17
 388.5 575 388.5 575 366.5 575 c 0,0,1
329.5 748 m 0,18,19
 336.5 755 336.5 755 338 760 c 128,-1,20
 339.5 765 339.5 765 337.5 765 c 0,21,22
 329.5 765 329.5 765 320.5 757.5 c 128,-1,23
 311.5 750 311.5 750 304 739.5 c 128,-1,24
 296.5 729 296.5 729 291.5 717 c 128,-1,25
 286.5 705 286.5 705 286.5 695 c 0,26,27
 286.5 693 286.5 693 288 687 c 128,-1,28
 289.5 681 289.5 681 292.5 681 c 0,29,30
 296.5 681 296.5 681 302.5 703 c 0,31,32
 305.5 717 305.5 717 313.5 728.5 c 128,-1,33
 321.5 740 321.5 740 329.5 748 c 0,18,19
370.5 632 m 0,34,35
 382.5 632 382.5 632 399 646 c 128,-1,36
 415.5 660 415.5 660 415.5 686 c 0,37,38
 415.5 706 415.5 706 405 719.5 c 128,-1,39
 394.5 733 394.5 733 377.5 733 c 256,40,41
 360.5 733 360.5 733 346.5 719.5 c 128,-1,42
 332.5 706 332.5 706 332.5 682 c 256,43,44
 332.5 658 332.5 658 343.5 645 c 128,-1,45
 354.5 632 354.5 632 370.5 632 c 0,34,35
281.5 0 m 0,46,47
 260.5 0 260.5 0 250.5 11 c 128,-1,48
 240.5 22 240.5 22 237 38.5 c 128,-1,49
 233.5 55 233.5 55 233.5 73 c 128,-1,50
 233.5 91 233.5 91 233.5 105 c 2,51,-1
 233.5 204 l 1,52,-1
 232.5 402 l 1,53,-1
 232.5 428 l 2,54,55
 232.5 455 232.5 455 234.5 476 c 128,-1,56
 236.5 497 236.5 497 242.5 512 c 128,-1,57
 248.5 527 248.5 527 260 535 c 128,-1,58
 271.5 543 271.5 543 291.5 543 c 0,59,60
 314.5 543 314.5 543 332 524.5 c 128,-1,61
 349.5 506 349.5 506 349.5 476 c 0,62,63
 349.5 471 349.5 471 349 456 c 128,-1,64
 348.5 441 348.5 441 348.5 421 c 2,65,-1
 348.5 429 l 1,66,-1
 348.5 410 l 2,67,68
 348.5 391 348.5 391 350 379 c 128,-1,69
 351.5 367 351.5 367 353.5 367 c 0,70,71
 357.5 367 357.5 367 369 385.5 c 128,-1,72
 380.5 404 380.5 404 396 431.5 c 128,-1,73
 411.5 459 411.5 459 429.5 491.5 c 128,-1,74
 447.5 524 447.5 524 465.5 551.5 c 128,-1,75
 483.5 579 483.5 579 500 597.5 c 128,-1,76
 516.5 616 516.5 616 527.5 616 c 0,77,78
 536.5 616 536.5 616 547.5 613 c 128,-1,79
 558.5 610 558.5 610 567.5 604 c 128,-1,80
 576.5 598 576.5 598 582.5 589 c 128,-1,81
 588.5 580 588.5 580 588.5 567 c 0,82,83
 588.5 559 588.5 559 577.5 537.5 c 128,-1,84
 566.5 516 566.5 516 550.5 489 c 128,-1,85
 534.5 462 534.5 462 515.5 432 c 128,-1,86
 496.5 402 496.5 402 480.5 376.5 c 128,-1,87
 464.5 351 464.5 351 453.5 333.5 c 128,-1,88
 442.5 316 442.5 316 442.5 313 c 0,89,90
 442.5 309 442.5 309 454 290 c 128,-1,91
 465.5 271 465.5 271 482.5 245 c 128,-1,92
 499.5 219 499.5 219 520 188.5 c 128,-1,93
 540.5 158 540.5 158 557.5 130 c 128,-1,94
 574.5 102 574.5 102 586 80 c 128,-1,95
 597.5 58 597.5 58 597.5 48 c 0,96,97
 597.5 35 597.5 35 589 26 c 128,-1,98
 580.5 17 580.5 17 568.5 11 c 128,-1,99
 556.5 5 556.5 5 544.5 2 c 128,-1,100
 532.5 -1 532.5 -1 524.5 -1 c 0,101,102
 510.5 -1 510.5 -1 495.5 17.5 c 128,-1,103
 480.5 36 480.5 36 468.5 57 c 0,104,105
 464.5 64 464.5 64 456 80.5 c 128,-1,106
 447.5 97 447.5 97 436 118 c 128,-1,107
 424.5 139 424.5 139 412 161.5 c 128,-1,108
 399.5 184 399.5 184 388 203 c 128,-1,109
 376.5 222 376.5 222 368 234 c 128,-1,110
 359.5 246 359.5 246 355.5 246 c 0,111,112
 347.5 246 347.5 246 347.5 234.5 c 128,-1,113
 347.5 223 347.5 223 347.5 215 c 2,114,-1
 347.5 164 l 1,115,-1
 348.5 125 l 1,116,-1
 348.5 102 l 2,117,118
 348.5 51 348.5 51 332.5 25.5 c 128,-1,119
 316.5 0 316.5 0 281.5 0 c 0,46,47
251.5 488 m 0,120,121
 256.5 487 256.5 487 261 491 c 128,-1,122
 265.5 495 265.5 495 269 500.5 c 128,-1,123
 272.5 506 272.5 506 275.5 512.5 c 128,-1,124
 278.5 519 278.5 519 279.5 523 c 0,125,126
 280.5 526 280.5 526 277.5 528.5 c 128,-1,127
 274.5 531 274.5 531 271.5 531 c 0,128,129
 267.5 531 267.5 531 263.5 526 c 128,-1,130
 259.5 521 259.5 521 256 514.5 c 128,-1,131
 252.5 508 252.5 508 250.5 501.5 c 128,-1,132
 248.5 495 248.5 495 248.5 492 c 0,133,134
 248.5 488 248.5 488 251.5 488 c 0,120,121
501.5 558 m 0,135,136
 504.5 558 504.5 558 510.5 562.5 c 128,-1,137
 516.5 567 516.5 567 522.5 573 c 128,-1,138
 528.5 579 528.5 579 532.5 585.5 c 128,-1,139
 536.5 592 536.5 592 535.5 596 c 0,140,141
 535.5 600 535.5 600 531.5 600 c 0,142,143
 528.5 601 528.5 601 522 596.5 c 128,-1,144
 515.5 592 515.5 592 509 585.5 c 128,-1,145
 502.5 579 502.5 579 498 573 c 128,-1,146
 493.5 567 493.5 567 494.5 564 c 0,147,148
 496.5 559 496.5 559 501.5 558 c 0,135,136
266.5 70 m 0,149,150
 266.5 74 266.5 74 266.5 84.5 c 128,-1,151
 266.5 95 266.5 95 265.5 106 c 128,-1,152
 264.5 117 264.5 117 262.5 125.5 c 128,-1,153
 260.5 134 260.5 134 256.5 134 c 0,154,155
 253.5 134 253.5 134 251 129 c 128,-1,156
 248.5 124 248.5 124 247.5 117 c 128,-1,157
 246.5 110 246.5 110 246 103.5 c 128,-1,158
 245.5 97 245.5 97 245.5 95 c 0,159,160
 245.5 91 245.5 91 245.5 82.5 c 128,-1,161
 245.5 74 245.5 74 247 65 c 128,-1,162
 248.5 56 248.5 56 251.5 49.5 c 128,-1,163
 254.5 43 254.5 43 260.5 43 c 0,164,165
 262.5 43 262.5 43 264 47 c 128,-1,166
 265.5 51 265.5 51 266 55.5 c 128,-1,167
 266.5 60 266.5 60 266.5 64.5 c 128,-1,168
 266.5 69 266.5 69 266.5 70 c 0,149,150
527.5 21 m 0,169,170
 527.5 24 527.5 24 524.5 30.5 c 128,-1,171
 521.5 37 521.5 37 517 43 c 128,-1,172
 512.5 49 512.5 49 507.5 54 c 128,-1,173
 502.5 59 502.5 59 499.5 59 c 0,174,175
 497.5 59 497.5 59 496.5 55.5 c 128,-1,176
 495.5 52 495.5 52 495.5 50 c 0,177,178
 495.5 47 495.5 47 498 41 c 128,-1,179
 500.5 35 500.5 35 504 29 c 128,-1,180
 507.5 23 507.5 23 512.5 19 c 128,-1,181
 517.5 15 517.5 15 521.5 15 c 0,182,183
 527.5 15 527.5 15 527.5 21 c 0,169,170
276.5 25 m 0,184,185
 278.5 29 278.5 29 275.5 32.5 c 128,-1,186
 272.5 36 272.5 36 268.5 36 c 0,187,188
 263.5 36 263.5 36 261 32.5 c 128,-1,189
 258.5 29 258.5 29 260.5 25 c 0,190,191
 262.5 17 262.5 17 268.5 17 c 256,192,193
 274.5 17 274.5 17 276.5 25 c 0,184,185
EndSplineSet
EndChar

StartChar: L
Encoding: 76 76 52
Width: 830
Flags: W
LayerCount: 2
Fore
SplineSet
433 569 m 0,0,1
 393 569 393 569 364.5 597 c 128,-1,2
 336 625 336 625 336 669 c 0,3,4
 336 693 336 693 344.5 714.5 c 128,-1,5
 353 736 353 736 368 751.5 c 128,-1,6
 383 767 383 767 404 776.5 c 128,-1,7
 425 786 425 786 450 786 c 0,8,9
 470 786 470 786 487 777.5 c 128,-1,10
 504 769 504 769 516 754 c 128,-1,11
 528 739 528 739 534.5 720 c 128,-1,12
 541 701 541 701 541 680 c 0,13,14
 541 653 541 653 532.5 632.5 c 128,-1,15
 524 612 524 612 509 598 c 128,-1,16
 494 584 494 584 474.5 576.5 c 128,-1,17
 455 569 455 569 433 569 c 0,0,1
396 742 m 0,18,19
 403 749 403 749 404.5 754 c 128,-1,20
 406 759 406 759 404 759 c 0,21,22
 396 759 396 759 387 751.5 c 128,-1,23
 378 744 378 744 370.5 733.5 c 128,-1,24
 363 723 363 723 358 711 c 128,-1,25
 353 699 353 699 353 689 c 0,26,27
 353 687 353 687 354.5 681 c 128,-1,28
 356 675 356 675 359 675 c 0,29,30
 363 675 363 675 369 697 c 0,31,32
 372 711 372 711 380 722.5 c 128,-1,33
 388 734 388 734 396 742 c 0,18,19
437 626 m 0,34,35
 449 626 449 626 465.5 640 c 128,-1,36
 482 654 482 654 482 680 c 0,37,38
 482 700 482 700 471.5 713.5 c 128,-1,39
 461 727 461 727 444 727 c 256,40,41
 427 727 427 727 413 713.5 c 128,-1,42
 399 700 399 700 399 676 c 256,43,44
 399 652 399 652 410 639 c 128,-1,45
 421 626 421 626 437 626 c 0,34,35
306 0 m 2,46,47
 295 0 295 0 286.5 8 c 128,-1,48
 278 16 278 16 278 27 c 2,49,-1
 278 492 l 2,50,51
 278 503 278 503 279.5 514 c 128,-1,52
 281 525 281 525 287 534 c 128,-1,53
 293 543 293 543 304.5 549 c 128,-1,54
 316 555 316 555 336 555 c 0,55,56
 359 555 359 555 375.5 537 c 128,-1,57
 392 519 392 519 392 499 c 2,58,-1
 392 121 l 2,59,60
 392 103 392 103 399 98.5 c 128,-1,61
 406 94 406 94 415 94 c 0,62,63
 432 94 432 94 445.5 94.5 c 128,-1,64
 459 95 459 95 471.5 95.5 c 128,-1,65
 484 96 484 96 497.5 96.5 c 128,-1,66
 511 97 511 97 528 97 c 0,67,68
 542 97 542 97 547 82.5 c 128,-1,69
 552 68 552 68 552 54 c 0,70,71
 552 34 552 34 539.5 16.5 c 128,-1,72
 527 -1 527 -1 513 -1 c 2,73,-1
 466 -1 l 1,74,-1
 383 0 l 1,75,-1
 306 0 l 2,46,47
296 488 m 0,76,77
 299 488 299 488 303.5 494.5 c 128,-1,78
 308 501 308 501 312.5 510 c 128,-1,79
 317 519 317 519 320.5 527 c 128,-1,80
 324 535 324 535 324 538 c 0,81,82
 324 543 324 543 316 543 c 0,83,84
 311 543 311 543 306 536.5 c 128,-1,85
 301 530 301 530 297.5 522 c 128,-1,86
 294 514 294 514 292 506 c 128,-1,87
 290 498 290 498 291 494 c 0,88,89
 291 488 291 488 296 488 c 0,76,77
307 59 m 0,90,91
 312 59 312 59 314 70 c 128,-1,92
 316 81 316 81 317 96.5 c 128,-1,93
 318 112 318 112 317.5 128.5 c 128,-1,94
 317 145 317 145 317 155 c 0,95,96
 317 159 317 159 316.5 165 c 128,-1,97
 316 171 316 171 314.5 177 c 128,-1,98
 313 183 313 183 310.5 187 c 128,-1,99
 308 191 308 191 303 191 c 0,100,101
 300 191 300 191 298.5 182.5 c 128,-1,102
 297 174 297 174 296 163 c 128,-1,103
 295 152 295 152 295 142.5 c 128,-1,104
 295 133 295 133 295 130 c 256,105,106
 295 127 295 127 295.5 115.5 c 128,-1,107
 296 104 296 104 297.5 91.5 c 128,-1,108
 299 79 299 79 301 69 c 128,-1,109
 303 59 303 59 307 59 c 0,90,91
324 30 m 0,110,111
 324 41 324 41 317 41 c 0,112,113
 307 41 307 41 307 30 c 0,114,115
 307 22 307 22 315 22 c 0,116,117
 318 22 318 22 321 24 c 128,-1,118
 324 26 324 26 324 30 c 0,110,111
EndSplineSet
EndChar

StartChar: M
Encoding: 77 77 53
Width: 830
Flags: W
LayerCount: 2
Fore
SplineSet
438.5 599 m 0,0,1
 398.5 599 398.5 599 370 627 c 128,-1,2
 341.5 655 341.5 655 341.5 699 c 0,3,4
 341.5 723 341.5 723 350 744.5 c 128,-1,5
 358.5 766 358.5 766 373.5 781.5 c 128,-1,6
 388.5 797 388.5 797 409.5 806.5 c 128,-1,7
 430.5 816 430.5 816 455.5 816 c 0,8,9
 475.5 816 475.5 816 492.5 807.5 c 128,-1,10
 509.5 799 509.5 799 521.5 784 c 128,-1,11
 533.5 769 533.5 769 540 750 c 128,-1,12
 546.5 731 546.5 731 546.5 710 c 0,13,14
 546.5 683 546.5 683 538 662.5 c 128,-1,15
 529.5 642 529.5 642 514.5 628 c 128,-1,16
 499.5 614 499.5 614 480 606.5 c 128,-1,17
 460.5 599 460.5 599 438.5 599 c 0,0,1
401.5 772 m 0,18,19
 408.5 779 408.5 779 410 784 c 128,-1,20
 411.5 789 411.5 789 409.5 789 c 0,21,22
 401.5 789 401.5 789 392.5 781.5 c 128,-1,23
 383.5 774 383.5 774 376 763.5 c 128,-1,24
 368.5 753 368.5 753 363.5 741 c 128,-1,25
 358.5 729 358.5 729 358.5 719 c 0,26,27
 358.5 717 358.5 717 360 711 c 128,-1,28
 361.5 705 361.5 705 364.5 705 c 0,29,30
 368.5 705 368.5 705 374.5 727 c 0,31,32
 377.5 741 377.5 741 385.5 752.5 c 128,-1,33
 393.5 764 393.5 764 401.5 772 c 0,18,19
442.5 656 m 0,34,35
 454.5 656 454.5 656 471 670 c 128,-1,36
 487.5 684 487.5 684 487.5 710 c 0,37,38
 487.5 730 487.5 730 477 743.5 c 128,-1,39
 466.5 757 466.5 757 449.5 757 c 256,40,41
 432.5 757 432.5 757 418.5 743.5 c 128,-1,42
 404.5 730 404.5 730 404.5 706 c 256,43,44
 404.5 682 404.5 682 415.5 669 c 128,-1,45
 426.5 656 426.5 656 442.5 656 c 0,34,35
190.5 0 m 0,46,47
 175.5 0 175.5 0 166.5 5.5 c 128,-1,48
 157.5 11 157.5 11 153 20 c 128,-1,49
 148.5 29 148.5 29 147 40.5 c 128,-1,50
 145.5 52 145.5 52 145.5 65 c 2,51,-1
 145.5 496 l 2,52,53
 145.5 507 145.5 507 146 520 c 128,-1,54
 146.5 533 146.5 533 150.5 544 c 128,-1,55
 154.5 555 154.5 555 163.5 562.5 c 128,-1,56
 172.5 570 172.5 570 188.5 570 c 0,57,58
 208.5 570 208.5 570 218.5 555.5 c 128,-1,59
 228.5 541 228.5 541 233 523 c 128,-1,60
 237.5 505 237.5 505 238.5 490.5 c 128,-1,61
 239.5 476 239.5 476 241.5 476 c 256,62,63
 243.5 476 243.5 476 247.5 491.5 c 128,-1,64
 251.5 507 251.5 507 262 525 c 128,-1,65
 272.5 543 272.5 543 291.5 558.5 c 128,-1,66
 310.5 574 310.5 574 343.5 574 c 0,67,68
 371.5 574 371.5 574 389.5 559 c 128,-1,69
 407.5 544 407.5 544 418.5 525.5 c 128,-1,70
 429.5 507 429.5 507 435.5 492 c 128,-1,71
 441.5 477 441.5 477 444.5 477 c 256,72,73
 447.5 477 447.5 477 453 492 c 128,-1,74
 458.5 507 458.5 507 469.5 525.5 c 128,-1,75
 480.5 544 480.5 544 500 559 c 128,-1,76
 519.5 574 519.5 574 551.5 574 c 0,77,78
 592.5 574 592.5 574 618.5 554 c 128,-1,79
 644.5 534 644.5 534 659 498.5 c 128,-1,80
 673.5 463 673.5 463 679 414.5 c 128,-1,81
 684.5 366 684.5 366 684.5 310 c 2,82,-1
 684.5 27 l 2,83,84
 684.5 13 684.5 13 665.5 6.5 c 128,-1,85
 646.5 0 646.5 0 626.5 0 c 256,86,87
 606.5 0 606.5 0 595.5 5.5 c 128,-1,88
 584.5 11 584.5 11 584.5 26 c 2,89,-1
 584.5 301 l 2,90,91
 584.5 313 584.5 313 584.5 341.5 c 128,-1,92
 584.5 370 584.5 370 580 400 c 128,-1,93
 575.5 430 575.5 430 565 452.5 c 128,-1,94
 554.5 475 554.5 475 533.5 475 c 0,95,96
 515.5 475 515.5 475 504 461 c 128,-1,97
 492.5 447 492.5 447 485.5 422.5 c 128,-1,98
 478.5 398 478.5 398 475 363.5 c 128,-1,99
 471.5 329 471.5 329 469.5 287 c 0,100,101
 466.5 238 466.5 238 465.5 211 c 128,-1,102
 464.5 184 464.5 184 465 141.5 c 128,-1,103
 465.5 99 465.5 99 466 69.5 c 128,-1,104
 466.5 40 466.5 40 466.5 31 c 0,105,106
 466.5 17 466.5 17 450 8.5 c 128,-1,107
 433.5 0 433.5 0 409.5 0 c 256,108,109
 385.5 0 385.5 0 375.5 7 c 128,-1,110
 365.5 14 365.5 14 365.5 38 c 2,111,-1
 365.5 301 l 2,112,113
 365.5 312 365.5 312 365.5 341 c 128,-1,114
 365.5 370 365.5 370 361.5 400 c 128,-1,115
 357.5 430 357.5 430 347.5 453 c 128,-1,116
 337.5 476 337.5 476 317.5 476 c 0,117,118
 299.5 476 299.5 476 287 460.5 c 128,-1,119
 274.5 445 274.5 445 266.5 421 c 128,-1,120
 258.5 397 258.5 397 254 367 c 128,-1,121
 249.5 337 249.5 337 247.5 309 c 128,-1,122
 245.5 281 245.5 281 245 257 c 128,-1,123
 244.5 233 244.5 233 244.5 221 c 2,124,-1
 244.5 45 l 2,125,126
 244.5 26 244.5 26 228.5 13 c 128,-1,127
 212.5 0 212.5 0 190.5 0 c 0,46,47
169.5 476 m 0,128,129
 175.5 477 175.5 477 176 487.5 c 128,-1,130
 176.5 498 176.5 498 176.5 506 c 0,131,132
 176.5 513 176.5 513 178.5 521.5 c 128,-1,133
 180.5 530 180.5 530 182 537 c 128,-1,134
 183.5 544 183.5 544 183.5 549 c 128,-1,135
 183.5 554 183.5 554 179.5 554 c 0,136,137
 172.5 554 172.5 554 168 547.5 c 128,-1,138
 163.5 541 163.5 541 161.5 532 c 128,-1,139
 159.5 523 159.5 523 158.5 515 c 128,-1,140
 157.5 507 157.5 507 157.5 504 c 0,141,142
 157.5 496 157.5 496 159.5 485.5 c 128,-1,143
 161.5 475 161.5 475 169.5 476 c 0,128,129
400.5 23 m 0,144,145
 400.5 33 400.5 33 394 36.5 c 128,-1,146
 387.5 40 387.5 40 387.5 51 c 0,147,148
 387.5 53 387.5 53 387.5 58.5 c 128,-1,149
 387.5 64 387.5 64 387 69.5 c 128,-1,150
 386.5 75 386.5 75 384.5 79.5 c 128,-1,151
 382.5 84 382.5 84 379.5 84 c 0,152,153
 377.5 84 377.5 84 376.5 79.5 c 128,-1,154
 375.5 75 375.5 75 375 69 c 128,-1,155
 374.5 63 374.5 63 374.5 57.5 c 128,-1,156
 374.5 52 374.5 52 374.5 50 c 0,157,158
 374.5 38 374.5 38 378 24.5 c 128,-1,159
 381.5 11 381.5 11 391.5 11 c 0,160,161
 400.5 11 400.5 11 400.5 23 c 0,144,145
616.5 24 m 0,162,163
 616.5 34 616.5 34 611 41.5 c 128,-1,164
 605.5 49 605.5 49 605.5 60 c 0,165,166
 605.5 64 605.5 64 605 74 c 128,-1,167
 604.5 84 604.5 84 598.5 84 c 0,168,169
 593.5 84 593.5 84 593 73 c 128,-1,170
 592.5 62 592.5 62 592.5 59 c 256,171,172
 592.5 56 592.5 56 593 48 c 128,-1,173
 593.5 40 593.5 40 595.5 32.5 c 128,-1,174
 597.5 25 597.5 25 600.5 19 c 128,-1,175
 603.5 13 603.5 13 608.5 13 c 0,176,177
 612.5 13 612.5 13 614.5 17.5 c 128,-1,178
 616.5 22 616.5 22 616.5 24 c 0,162,163
188.5 24 m 0,179,180
 188.5 35 188.5 35 184 36 c 128,-1,181
 179.5 37 179.5 37 174.5 44 c 0,182,183
 173.5 46 173.5 46 173 51.5 c 128,-1,184
 172.5 57 172.5 57 172.5 62.5 c 128,-1,185
 172.5 68 172.5 68 171 72.5 c 128,-1,186
 169.5 77 169.5 77 166.5 77 c 0,187,188
 161.5 77 161.5 77 161 67.5 c 128,-1,189
 160.5 58 160.5 58 160.5 51 c 0,190,191
 160.5 47 160.5 47 161.5 41 c 128,-1,192
 162.5 35 162.5 35 165 29 c 128,-1,193
 167.5 23 167.5 23 171 18.5 c 128,-1,194
 174.5 14 174.5 14 179.5 14 c 0,195,196
 188.5 14 188.5 14 188.5 24 c 0,179,180
EndSplineSet
EndChar

StartChar: N
Encoding: 78 78 54
Width: 830
Flags: W
LayerCount: 2
Fore
SplineSet
394.5 558 m 4,0,1
 354.5 558 354.5 558 326 586 c 132,-1,2
 297.5 614 297.5 614 297.5 658 c 4,3,4
 297.5 682 297.5 682 306 703.5 c 132,-1,5
 314.5 725 314.5 725 329.5 740.5 c 132,-1,6
 344.5 756 344.5 756 365.5 765.5 c 132,-1,7
 386.5 775 386.5 775 411.5 775 c 4,8,9
 431.5 775 431.5 775 448.5 766.5 c 132,-1,10
 465.5 758 465.5 758 477.5 743 c 132,-1,11
 489.5 728 489.5 728 496 709 c 132,-1,12
 502.5 690 502.5 690 502.5 669 c 4,13,14
 502.5 642 502.5 642 494 621.5 c 132,-1,15
 485.5 601 485.5 601 470.5 587 c 132,-1,16
 455.5 573 455.5 573 436 565.5 c 132,-1,17
 416.5 558 416.5 558 394.5 558 c 4,0,1
357.5 731 m 4,18,19
 364.5 738 364.5 738 366 743 c 132,-1,20
 367.5 748 367.5 748 365.5 748 c 4,21,22
 357.5 748 357.5 748 348.5 740.5 c 132,-1,23
 339.5 733 339.5 733 332 722.5 c 132,-1,24
 324.5 712 324.5 712 319.5 700 c 132,-1,25
 314.5 688 314.5 688 314.5 678 c 4,26,27
 314.5 676 314.5 676 316 670 c 132,-1,28
 317.5 664 317.5 664 320.5 664 c 4,29,30
 324.5 664 324.5 664 330.5 686 c 4,31,32
 333.5 700 333.5 700 341.5 711.5 c 132,-1,33
 349.5 723 349.5 723 357.5 731 c 4,18,19
398.5 615 m 4,34,35
 410.5 615 410.5 615 427 629 c 132,-1,36
 443.5 643 443.5 643 443.5 669 c 4,37,38
 443.5 689 443.5 689 433 702.5 c 132,-1,39
 422.5 716 422.5 716 405.5 716 c 260,40,41
 388.5 716 388.5 716 374.5 702.5 c 132,-1,42
 360.5 689 360.5 689 360.5 665 c 260,43,44
 360.5 641 360.5 641 371.5 628 c 132,-1,45
 382.5 615 382.5 615 398.5 615 c 4,34,35
286.5 0 m 0,46,47
 261.5 0 261.5 0 251.5 14.5 c 128,-1,48
 241.5 29 241.5 29 241.5 65 c 2,49,-1
 241.5 422 l 2,50,51
 241.5 466 241.5 466 251 481 c 128,-1,52
 260.5 496 260.5 496 289.5 496 c 0,53,54
 308.5 496 308.5 496 326.5 486.5 c 128,-1,55
 344.5 477 344.5 477 344.5 451 c 2,56,-1
 344.5 437 l 2,57,58
 344.5 397 344.5 397 348.5 397 c 256,59,60
 352.5 397 352.5 397 357.5 413 c 128,-1,61
 362.5 429 362.5 429 374.5 448.5 c 128,-1,62
 386.5 468 386.5 468 408.5 484 c 128,-1,63
 430.5 500 430.5 500 466.5 500 c 0,64,65
 530.5 500 530.5 500 559.5 437 c 128,-1,66
 588.5 374 588.5 374 588.5 236 c 2,67,-1
 588.5 31 l 2,68,69
 588.5 0 588.5 0 532.5 0 c 0,70,71
 505.5 0 505.5 0 493.5 11.5 c 128,-1,72
 481.5 23 481.5 23 481.5 34 c 2,73,-1
 481.5 227 l 2,74,75
 481.5 279 481.5 279 478.5 311 c 128,-1,76
 475.5 343 475.5 343 469.5 361 c 128,-1,77
 463.5 379 463.5 379 454 385.5 c 128,-1,78
 444.5 392 444.5 392 430.5 392 c 0,79,80
 409.5 392 409.5 392 394 372.5 c 128,-1,81
 378.5 353 378.5 353 368.5 320 c 128,-1,82
 358.5 287 358.5 287 354 242.5 c 128,-1,83
 349.5 198 349.5 198 349.5 147 c 2,84,-1
 349.5 45 l 2,85,86
 349.5 30 349.5 30 342 21 c 128,-1,87
 334.5 12 334.5 12 324.5 7.5 c 128,-1,88
 314.5 3 314.5 3 304 1.5 c 128,-1,89
 293.5 0 293.5 0 286.5 0 c 0,46,47
261.5 395 m 0,90,91
 264.5 395 264.5 395 266.5 407 c 128,-1,92
 268.5 419 268.5 419 270.5 434 c 128,-1,93
 272.5 449 272.5 449 273.5 461.5 c 128,-1,94
 274.5 474 274.5 474 274.5 475 c 0,95,96
 274.5 477 274.5 477 274 480 c 128,-1,97
 273.5 483 273.5 483 271.5 483 c 0,98,99
 266.5 483 266.5 483 263 475.5 c 128,-1,100
 259.5 468 259.5 468 257.5 458.5 c 128,-1,101
 255.5 449 255.5 449 254.5 439.5 c 128,-1,102
 253.5 430 253.5 430 253.5 427 c 0,103,104
 253.5 419 253.5 419 255.5 407 c 128,-1,105
 257.5 395 257.5 395 261.5 395 c 0,90,91
518.5 29 m 0,106,107
 518.5 35 518.5 35 516.5 38 c 128,-1,108
 514.5 41 514.5 41 512 43 c 128,-1,109
 509.5 45 509.5 45 507.5 49 c 128,-1,110
 505.5 53 505.5 53 505.5 60 c 0,111,112
 505.5 76 505.5 76 504 80 c 128,-1,113
 502.5 84 502.5 84 497.5 84 c 256,114,115
 492.5 84 492.5 84 491 76.5 c 128,-1,116
 489.5 69 489.5 69 489.5 59 c 0,117,118
 489.5 39 489.5 39 495.5 27 c 128,-1,119
 501.5 15 501.5 15 509.5 15 c 0,120,121
 512.5 15 512.5 15 515.5 18.5 c 128,-1,122
 518.5 22 518.5 22 518.5 29 c 0,106,107
285.5 26 m 0,123,124
 285.5 31 285.5 31 283 33.5 c 128,-1,125
 280.5 36 280.5 36 277.5 38.5 c 128,-1,126
 274.5 41 274.5 41 272 45 c 128,-1,127
 269.5 49 269.5 49 269.5 56 c 0,128,129
 269.5 77 269.5 77 262.5 77 c 0,130,131
 260.5 77 260.5 77 258.5 69.5 c 128,-1,132
 256.5 62 256.5 62 256.5 51 c 0,133,134
 256.5 36 256.5 36 263 24 c 128,-1,135
 269.5 12 269.5 12 277.5 12 c 0,136,137
 279.5 12 279.5 12 282.5 16 c 128,-1,138
 285.5 20 285.5 20 285.5 26 c 0,123,124
EndSplineSet
EndChar

StartChar: O
Encoding: 79 79 55
Width: 830
Flags: W
LayerCount: 2
Fore
SplineSet
288.5 341.5 m 0,0,1
 275.5 346 275.5 346 267 355 c 128,-1,2
 258.5 364 258.5 364 256 374 c 128,-1,3
 253.5 384 253.5 384 257 394.5 c 0,4,5
 261.5 406 261.5 406 270.5 411.5 c 0,6,7
 275.5 414 275.5 414 283 416.5 c 0,8,9
 290.5 418 290.5 418 304 420 c 128,-1,10
 317.5 422 317.5 422 337.5 422 c 0,11,12
 397.5 422 397.5 422 428.5 422.5 c 0,13,14
 500.5 422 500.5 422 525.5 421 c 128,-1,15
 550.5 420 550.5 420 563 414.5 c 0,16,17
 575.5 410 575.5 410 578.5 400.5 c 0,18,19
 581.5 392 581.5 392 581.5 376.5 c 0,20,21
 581.5 364 581.5 364 576 357 c 128,-1,22
 570.5 350 570.5 350 556.5 345 c 128,-1,23
 542.5 340 542.5 340 518.5 338.5 c 0,24,25
 494.5 336 494.5 336 428.5 336.5 c 0,26,27
 350.5 336 350.5 336 322 338 c 128,-1,28
 293.5 340 293.5 340 288.5 341.5 c 0,0,1
296.5 402.5 m 0,29,30
 296.5 404 296.5 404 294 406 c 0,31,32
 292.5 407 292.5 407 287.5 404.5 c 128,-1,33
 282.5 402 282.5 402 280 392.5 c 0,34,35
 277.5 384 277.5 384 277.5 376.5 c 256,36,37
 277.5 370 277.5 370 279.5 369.5 c 0,38,39
 282.5 370 282.5 370 287.5 382.5 c 0,40,41
 293.5 396 293.5 396 293.5 396.5 c 0,42,43
 296.5 399 296.5 399 296.5 402.5 c 0,29,30
286.5 180.5 m 0,44,45
 267.5 184 267.5 184 258 198 c 128,-1,46
 248.5 212 248.5 212 255.5 226.5 c 0,47,48
 260.5 236 260.5 236 268 240.5 c 0,49,50
 275.5 246 275.5 246 291 248 c 0,51,52
 314.5 251 314.5 251 331.5 251 c 0,53,54
 395.5 251 395.5 251 449 251.5 c 128,-1,55
 502.5 252 502.5 252 528 250 c 128,-1,56
 553.5 248 553.5 248 567.5 245 c 128,-1,57
 581.5 242 581.5 242 587 235 c 128,-1,58
 592.5 228 592.5 228 592.5 217.5 c 0,59,60
 592.5 204 592.5 204 586.5 195.5 c 0,61,62
 580.5 186 580.5 186 565 181.5 c 0,63,64
 549.5 176 549.5 176 523.5 174 c 0,65,66
 486.5 171 486.5 171 429.5 171.5 c 0,67,68
 351.5 172 351.5 172 323 175 c 128,-1,69
 294.5 178 294.5 178 286.5 180.5 c 0,44,45
289.5 229.5 m 0,70,71
 289.5 232 289.5 232 286.5 232.5 c 256,72,73
 283.5 232 283.5 232 282.5 231.5 c 0,74,75
 280.5 230 280.5 230 277.5 226 c 128,-1,76
 274.5 222 274.5 222 274.5 214.5 c 0,77,78
 274.5 206 274.5 206 276 204.5 c 0,79,80
 277.5 204 277.5 204 282.5 208.5 c 0,81,82
 286.5 212 286.5 212 288 218.5 c 0,83,84
 289.5 224 289.5 224 289.5 229.5 c 0,70,71
412.5 -10 m 0,85,86
 340.5 -10 340.5 -10 287 17.5 c 128,-1,87
 233.5 45 233.5 45 198.5 88.5 c 128,-1,88
 163.5 132 163.5 132 146 186 c 128,-1,89
 128.5 240 128.5 240 128.5 294 c 0,90,91
 128.5 360 128.5 360 148.5 416 c 128,-1,92
 168.5 472 168.5 472 206 512.5 c 128,-1,93
 243.5 553 243.5 553 297.5 576 c 128,-1,94
 351.5 599 351.5 599 418.5 599 c 0,95,96
 480.5 599 480.5 599 532.5 576.5 c 128,-1,97
 584.5 554 584.5 554 622 514.5 c 128,-1,98
 659.5 475 659.5 475 680.5 420.5 c 128,-1,99
 701.5 366 701.5 366 701.5 303 c 0,100,101
 701.5 239 701.5 239 680 182 c 128,-1,102
 658.5 125 658.5 125 620 82.5 c 128,-1,103
 581.5 40 581.5 40 528.5 15 c 128,-1,104
 475.5 -10 475.5 -10 412.5 -10 c 0,85,86
414.5 67 m 0,105,106
 515.5 67 515.5 67 567 130.5 c 128,-1,107
 618.5 194 618.5 194 618.5 303 c 0,108,109
 618.5 347 618.5 347 605 387.5 c 128,-1,110
 591.5 428 591.5 428 565.5 459 c 128,-1,111
 539.5 490 539.5 490 502.5 508.5 c 128,-1,112
 465.5 527 465.5 527 418.5 527 c 0,113,114
 373.5 527 373.5 527 336 509 c 128,-1,115
 298.5 491 298.5 491 271.5 461 c 128,-1,116
 244.5 431 244.5 431 229.5 391 c 128,-1,117
 214.5 351 214.5 351 214.5 306 c 256,118,119
 214.5 261 214.5 261 228 218 c 128,-1,120
 241.5 175 241.5 175 267 141.5 c 128,-1,121
 292.5 108 292.5 108 329.5 87.5 c 128,-1,122
 366.5 67 366.5 67 414.5 67 c 0,105,106
EndSplineSet

EndChar

StartChar: P
Encoding: 80 80 56
Width: 830
Flags: W
LayerCount: 2
Fore
SplineSet
287 -14 m 0,0,1
 267 -14 267 -14 250 1 c 128,-1,2
 233 16 233 16 233 69 c 2,3,-1
 233 526 l 2,4,5
 233 547 233 547 241.5 564 c 128,-1,6
 250 581 250 581 264.5 592.5 c 128,-1,7
 279 604 279 604 297.5 610 c 128,-1,8
 316 616 316 616 336 616 c 2,9,-1
 395 616 l 2,10,11
 426 616 426 616 461.5 604 c 128,-1,12
 497 592 497 592 527 566 c 128,-1,13
 557 540 557 540 577 498 c 128,-1,14
 597 456 597 456 597 397 c 256,15,16
 597 338 597 338 577.5 291.5 c 128,-1,17
 558 245 558 245 529 213.5 c 128,-1,18
 500 182 500 182 466 165.5 c 128,-1,19
 432 149 432 149 402 149 c 2,20,-1
 373 149 l 2,21,22
 364 149 364 149 355.5 145 c 128,-1,23
 347 141 347 141 347 132 c 2,24,-1
 347 65 l 2,25,26
 347 33 347 33 341.5 21 c 128,-1,27
 336 9 336 9 327 1 c 128,-1,28
 318 -7 318 -7 307.5 -10.5 c 128,-1,29
 297 -14 297 -14 287 -14 c 0,0,1
391 238 m 2,30,31
 408 238 408 238 424 246 c 128,-1,32
 440 254 440 254 453.5 271.5 c 128,-1,33
 467 289 467 289 475 317 c 128,-1,34
 483 345 483 345 483 385 c 0,35,36
 483 428 483 428 475 456.5 c 128,-1,37
 467 485 467 485 454 501.5 c 128,-1,38
 441 518 441 518 425 525 c 128,-1,39
 409 532 409 532 394 532 c 2,40,-1
 372 532 l 2,41,42
 347 532 347 532 347 498 c 2,43,-1
 347 261 l 2,44,45
 347 238 347 238 378 238 c 2,46,-1
 391 238 l 2,30,31
273 21 m 256,47,48
 268 26 268 26 264.5 39 c 128,-1,49
 261 52 261 52 261 78.5 c 128,-1,50
 261 105 261 105 254 105 c 0,51,52
 249 105 249 105 247.5 96.5 c 128,-1,53
 246 88 246 88 246 76 c 0,54,55
 246 38 246 38 253 22 c 128,-1,56
 260 6 260 6 270 6 c 0,57,58
 272 6 272 6 275 8 c 128,-1,59
 278 10 278 10 278 12 c 0,60,61
 278 16 278 16 273 21 c 256,47,48
EndSplineSet

EndChar

StartChar: Q
Encoding: 81 81 57
Width: 830
Flags: W
LayerCount: 2
Fore
SplineSet
421 616 m 0,0,1
 380 616 380 616 347 601 c 2,2,3
 347 601 347 601 314 585 c 1,4,-1
 270 537 l 1,5,6
 238 492 238 492 222 432.5 c 128,-1,7
 206 373 206 373 206 311 c 0,8,9
 206 255 206 255 218 196.5 c 128,-1,10
 230 138 230 138 256 90.5 c 128,-1,11
 282 43 282 43 323 12.5 c 128,-1,12
 364 -18 364 -18 422 -18 c 0,13,14
 459 -18 459 -18 490 -4 c 1,15,16
 498 -22 498 -22 510.5 -40.5 c 128,-1,17
 523 -59 523 -59 546 -59 c 0,18,19
 553 -59 553 -59 561.5 -56.5 c 128,-1,20
 570 -54 570 -54 577.5 -49.5 c 128,-1,21
 585 -45 585 -45 590 -39 c 128,-1,22
 595 -33 595 -33 595 -26 c 0,23,24
 595 -18 595 -18 586 8.5 c 128,-1,25
 577 35 577 35 565 65 c 1,26,27
 595 112 595 112 609.5 177.5 c 128,-1,28
 624 243 624 243 624 316 c 0,29,30
 624 371 624 371 612 425 c 128,-1,31
 600 479 600 479 575.5 521.5 c 128,-1,32
 551 564 551 564 512.5 590 c 128,-1,33
 474 616 474 616 421 616 c 0,0,1
269 139 m 0,34,35
 272 139 272 139 276 133.5 c 128,-1,36
 280 128 280 128 284.5 119.5 c 128,-1,37
 289 111 289 111 294.5 102 c 128,-1,38
 300 93 300 93 305 86 c 0,39,40
 327 57 327 57 346.5 40 c 128,-1,41
 366 23 366 23 366 18 c 0,42,43
 366 15 366 15 361 14 c 0,44,45
 349 14 349 14 332.5 28 c 128,-1,46
 316 42 316 42 301 61.5 c 128,-1,47
 286 81 286 81 275.5 101.5 c 128,-1,48
 265 122 265 122 265 134 c 0,49,50
 265 139 265 139 269 139 c 0,34,35
326 395 m 1,51,52
 342 354 342 354 359 312 c 128,-1,53
 376 270 376 270 392.5 229.5 c 128,-1,54
 409 189 409 189 424.5 151 c 128,-1,55
 440 113 440 113 453 81 c 1,56,57
 440 74 440 74 422 74 c 0,58,59
 391 74 391 74 371 102 c 128,-1,60
 351 130 351 130 339.5 168.5 c 128,-1,61
 328 207 328 207 324 247 c 128,-1,62
 320 287 320 287 320 311 c 0,63,64
 320 327 320 327 321.5 349 c 128,-1,65
 323 371 323 371 326 395 c 1,51,52
270 161 m 256,66,67
 270 153 270 153 263 151 c 0,68,69
 260 151 260 151 255 154.5 c 128,-1,70
 250 158 250 158 250 166 c 0,71,72
 250 175 250 175 258 175 c 0,73,74
 261 175 261 175 265.5 172 c 128,-1,75
 270 169 270 169 270 161 c 256,66,67
421 536 m 0,76,77
 451 536 451 536 469.5 513.5 c 128,-1,78
 488 491 488 491 498.5 457.5 c 128,-1,79
 509 424 509 424 513 384 c 128,-1,80
 517 344 517 344 517 308 c 0,81,82
 517 282 517 282 516 254 c 128,-1,83
 515 226 515 226 511 198 c 1,84,85
 501 224 501 224 486 262.5 c 128,-1,86
 471 301 471 301 453.5 344.5 c 128,-1,87
 436 388 436 388 417.5 434.5 c 128,-1,88
 399 481 399 481 381 523 c 1,89,90
 399 536 399 536 421 536 c 0,76,77
EndSplineSet

EndChar

StartChar: R
Encoding: 82 82 58
Width: 830
Flags: W
LayerCount: 2
Fore
SplineSet
396.5 584 m 4,0,1
 356.5 584 356.5 584 328 612 c 132,-1,2
 299.5 640 299.5 640 299.5 684 c 4,3,4
 299.5 708 299.5 708 308 729.5 c 132,-1,5
 316.5 751 316.5 751 331.5 766.5 c 132,-1,6
 346.5 782 346.5 782 367.5 791.5 c 132,-1,7
 388.5 801 388.5 801 413.5 801 c 4,8,9
 433.5 801 433.5 801 450.5 792.5 c 132,-1,10
 467.5 784 467.5 784 479.5 769 c 132,-1,11
 491.5 754 491.5 754 498 735 c 132,-1,12
 504.5 716 504.5 716 504.5 695 c 4,13,14
 504.5 668 504.5 668 496 647.5 c 132,-1,15
 487.5 627 487.5 627 472.5 613 c 132,-1,16
 457.5 599 457.5 599 438 591.5 c 132,-1,17
 418.5 584 418.5 584 396.5 584 c 4,0,1
359.5 757 m 4,18,19
 366.5 764 366.5 764 368 769 c 132,-1,20
 369.5 774 369.5 774 367.5 774 c 4,21,22
 359.5 774 359.5 774 350.5 766.5 c 132,-1,23
 341.5 759 341.5 759 334 748.5 c 132,-1,24
 326.5 738 326.5 738 321.5 726 c 132,-1,25
 316.5 714 316.5 714 316.5 704 c 4,26,27
 316.5 702 316.5 702 318 696 c 132,-1,28
 319.5 690 319.5 690 322.5 690 c 4,29,30
 326.5 690 326.5 690 332.5 712 c 4,31,32
 335.5 726 335.5 726 343.5 737.5 c 132,-1,33
 351.5 749 351.5 749 359.5 757 c 4,18,19
400.5 641 m 4,34,35
 412.5 641 412.5 641 429 655 c 132,-1,36
 445.5 669 445.5 669 445.5 695 c 4,37,38
 445.5 715 445.5 715 435 728.5 c 132,-1,39
 424.5 742 424.5 742 407.5 742 c 260,40,41
 390.5 742 390.5 742 376.5 728.5 c 132,-1,42
 362.5 715 362.5 715 362.5 691 c 260,43,44
 362.5 667 362.5 667 373.5 654 c 132,-1,45
 384.5 641 384.5 641 400.5 641 c 4,34,35
340.5 0 m 0,46,47
 315.5 0 315.5 0 305.5 17 c 128,-1,48
 295.5 34 295.5 34 295.5 64 c 2,49,-1
 295.5 451 l 2,50,51
 295.5 505 295.5 505 306.5 525 c 128,-1,52
 317.5 545 317.5 545 343.5 545 c 0,53,54
 366.5 545 366.5 545 380 526.5 c 128,-1,55
 393.5 508 393.5 508 393.5 473 c 0,56,57
 393.5 462 393.5 462 393.5 456.5 c 128,-1,58
 393.5 451 393.5 451 396.5 451 c 0,59,60
 398.5 451 398.5 451 399 454 c 128,-1,61
 399.5 457 399.5 457 401.5 461 c 0,62,63
 404.5 468 404.5 468 410 482 c 128,-1,64
 415.5 496 415.5 496 426 510 c 128,-1,65
 436.5 524 436.5 524 452.5 534.5 c 128,-1,66
 468.5 545 468.5 545 490.5 545 c 0,67,68
 510.5 545 510.5 545 522.5 533 c 128,-1,69
 534.5 521 534.5 521 534.5 502 c 0,70,71
 534.5 482 534.5 482 526 464.5 c 128,-1,72
 517.5 447 517.5 447 497.5 447 c 256,73,74
 477.5 447 477.5 447 460 428.5 c 128,-1,75
 442.5 410 442.5 410 430 381.5 c 128,-1,76
 417.5 353 417.5 353 410 319 c 128,-1,77
 402.5 285 402.5 285 402.5 254 c 2,78,-1
 402.5 55 l 2,79,80
 402.5 25 402.5 25 382.5 12.5 c 128,-1,81
 362.5 0 362.5 0 340.5 0 c 0,46,47
322.5 503 m 256,82,83
 323.5 507 323.5 507 325 511.5 c 128,-1,84
 326.5 516 326.5 516 327.5 520 c 128,-1,85
 328.5 524 328.5 524 328 526.5 c 128,-1,86
 327.5 529 327.5 529 323.5 529 c 0,87,88
 318.5 529 318.5 529 313.5 518.5 c 128,-1,89
 308.5 508 308.5 508 308.5 497 c 0,90,91
 308.5 476 308.5 476 315.5 476 c 0,92,93
 320.5 476 320.5 476 321 487.5 c 128,-1,94
 321.5 499 321.5 499 322.5 503 c 256,82,83
322.5 50 m 0,95,96
 319.5 62 319.5 62 318 71.5 c 128,-1,97
 316.5 81 316.5 81 313.5 81 c 0,98,99
 308.5 81 308.5 81 308.5 64 c 0,100,101
 308.5 46 308.5 46 313.5 32 c 128,-1,102
 318.5 18 318.5 18 325.5 18 c 0,103,104
 327.5 18 327.5 18 330 19 c 128,-1,105
 332.5 20 332.5 20 332.5 25 c 0,106,107
 332.5 28 332.5 28 328.5 34 c 128,-1,108
 324.5 40 324.5 40 322.5 50 c 0,95,96
EndSplineSet
EndChar

StartChar: S
Encoding: 83 83 59
Width: 830
Flags: W
LayerCount: 2
Fore
SplineSet
425 622.5 m 4,0,1
 385 622.5 385 622.5 356.5 650.5 c 132,-1,2
 328 678.5 328 678.5 328 722.5 c 4,3,4
 328 746.5 328 746.5 336.5 768 c 132,-1,5
 345 789.5 345 789.5 360 805 c 132,-1,6
 375 820.5 375 820.5 396 830 c 132,-1,7
 417 839.5 417 839.5 442 839.5 c 4,8,9
 462 839.5 462 839.5 479 831 c 132,-1,10
 496 822.5 496 822.5 508 807.5 c 132,-1,11
 520 792.5 520 792.5 526.5 773.5 c 132,-1,12
 533 754.5 533 754.5 533 733.5 c 4,13,14
 533 706.5 533 706.5 524.5 686 c 132,-1,15
 516 665.5 516 665.5 501 651.5 c 132,-1,16
 486 637.5 486 637.5 466.5 630 c 132,-1,17
 447 622.5 447 622.5 425 622.5 c 4,0,1
388 795.5 m 4,18,19
 395 802.5 395 802.5 396.5 807.5 c 132,-1,20
 398 812.5 398 812.5 396 812.5 c 4,21,22
 388 812.5 388 812.5 379 805 c 132,-1,23
 370 797.5 370 797.5 362.5 787 c 132,-1,24
 355 776.5 355 776.5 350 764.5 c 132,-1,25
 345 752.5 345 752.5 345 742.5 c 4,26,27
 345 740.5 345 740.5 346.5 734.5 c 132,-1,28
 348 728.5 348 728.5 351 728.5 c 4,29,30
 355 728.5 355 728.5 361 750.5 c 4,31,32
 364 764.5 364 764.5 372 776 c 132,-1,33
 380 787.5 380 787.5 388 795.5 c 4,18,19
429 679.5 m 4,34,35
 441 679.5 441 679.5 457.5 693.5 c 132,-1,36
 474 707.5 474 707.5 474 733.5 c 4,37,38
 474 753.5 474 753.5 463.5 767 c 132,-1,39
 453 780.5 453 780.5 436 780.5 c 260,40,41
 419 780.5 419 780.5 405 767 c 132,-1,42
 391 753.5 391 753.5 391 729.5 c 260,43,44
 391 705.5 391 705.5 402 692.5 c 132,-1,45
 413 679.5 413 679.5 429 679.5 c 4,34,35
418 -46 m 4,46,47
 387 -46 387 -46 356 -32.5 c 132,-1,48
 325 -19 325 -19 300.5 6 c 132,-1,49
 276 31 276 31 261 68 c 132,-1,50
 246 105 246 105 246 151 c 4,51,52
 246 182 246 182 264 202 c 132,-1,53
 282 222 282 222 309 220 c 4,54,55
 326 219 326 219 333.5 207.5 c 132,-1,56
 341 196 341 196 341 170 c 4,57,58
 341 152 341 152 345.5 129 c 132,-1,59
 350 106 350 106 359 86 c 132,-1,60
 368 66 368 66 380.5 52.5 c 132,-1,61
 393 39 393 39 408 39 c 4,62,63
 472 39 472 39 472 104 c 4,64,65
 472 125 472 125 465.5 143 c 132,-1,66
 459 161 459 161 448.5 176 c 132,-1,67
 438 191 438 191 425 205 c 132,-1,68
 412 219 412 219 398 232 c 4,69,70
 326 304 326 304 295.5 352 c 132,-1,71
 265 400 265 400 265 440 c 4,72,73
 265 509 265 509 307.5 548 c 132,-1,74
 350 587 350 587 424 587 c 4,75,76
 458 587 458 587 486 572 c 132,-1,77
 514 557 514 557 534.5 533 c 132,-1,78
 555 509 555 509 566 479.5 c 132,-1,79
 577 450 577 450 577 422 c 4,80,81
 577 392 577 392 559.5 367.5 c 132,-1,82
 542 343 542 343 516 343 c 4,83,84
 504 343 504 343 490 353 c 132,-1,85
 476 363 476 363 476 380 c 4,86,87
 476 439 476 439 459 466.5 c 132,-1,88
 442 494 442 494 420 494 c 4,89,90
 378 494 378 494 378 446 c 4,91,92
 378 431 378 431 382 416.5 c 132,-1,93
 386 402 386 402 396.5 385 c 132,-1,94
 407 368 407 368 424.5 347.5 c 132,-1,95
 442 327 442 327 469 300 c 4,96,97
 502 267 502 267 524 241 c 132,-1,98
 546 215 546 215 559.5 193 c 132,-1,99
 573 171 573 171 578.5 152 c 132,-1,100
 584 133 584 133 584 114 c 4,101,102
 584 79 584 79 571.5 49.5 c 132,-1,103
 559 20 559 20 537 -1 c 132,-1,104
 515 -22 515 -22 484.5 -34 c 132,-1,105
 454 -46 454 -46 418 -46 c 4,46,47
323 506 m 4,106,107
 327 513 327 513 334 522.5 c 132,-1,108
 341 532 341 532 349 538 c 4,109,110
 357 543 357 543 359.5 549.5 c 132,-1,111
 362 556 362 556 359 556 c 4,112,113
 353 557 353 557 343 549.5 c 132,-1,114
 333 542 333 542 324 531 c 132,-1,115
 315 520 315 520 308 508 c 132,-1,116
 301 496 301 496 300 487 c 4,117,118
 300 481 300 481 306 481 c 4,119,120
 311 480 311 480 314 488 c 132,-1,121
 317 496 317 496 323 506 c 4,106,107
307 461 m 4,122,123
 307 468 307 468 301 468 c 4,124,125
 298 468 298 468 295.5 465 c 132,-1,126
 293 462 293 462 293 460 c 4,127,128
 293 455 293 455 300 454 c 4,129,130
 305 454 305 454 307 461 c 4,122,123
283 153 m 260,131,132
 288 167 288 167 293.5 176 c 132,-1,133
 299 185 299 185 300 193 c 4,134,135
 300 198 300 198 297 198 c 4,136,137
 289 199 289 199 282 192.5 c 132,-1,138
 275 186 275 186 270.5 176 c 132,-1,139
 266 166 266 166 265 153.5 c 132,-1,140
 264 141 264 141 268 129 c 4,141,142
 272 119 272 119 276 119 c 4,143,144
 281 119 281 119 279.5 129 c 132,-1,145
 278 139 278 139 283 153 c 260,131,132
EndSplineSet
EndChar

StartChar: T
Encoding: 84 84 60
Width: 830
Flags: W
LayerCount: 2
Fore
SplineSet
406.5 0 m 0,0,1
 398.5 0 398.5 0 389.5 3 c 128,-1,2
 380.5 6 380.5 6 372.5 11 c 128,-1,3
 364.5 16 364.5 16 359 23.5 c 128,-1,4
 353.5 31 353.5 31 353.5 40 c 2,5,-1
 353.5 525 l 1,6,7
 341.5 525 341.5 525 301.5 525 c 128,-1,8
 261.5 525 261.5 525 245 529 c 128,-1,9
 228.5 533 228.5 533 217 542.5 c 128,-1,10
 205.5 552 205.5 552 205.5 570 c 0,11,12
 205.5 592 205.5 592 219.5 604 c 128,-1,13
 233.5 616 233.5 616 254.5 616 c 2,14,-1
 591.5 616 l 2,15,16
 607.5 616 607.5 616 616 602 c 128,-1,17
 624.5 588 624.5 588 624.5 574 c 0,18,19
 624.5 556 624.5 556 616 546.5 c 128,-1,20
 607.5 537 607.5 537 594.5 532 c 128,-1,21
 581.5 527 581.5 527 534.5 526 c 128,-1,22
 487.5 525 487.5 525 474.5 525 c 2,23,-1
 466.5 525 l 1,24,-1
 466.5 47 l 2,25,26
 466.5 24 466.5 24 446.5 12 c 128,-1,27
 426.5 0 426.5 0 406.5 0 c 0,0,1
228.5 553 m 256,28,29
 233.5 553 233.5 553 233.5 560 c 0,30,31
 233.5 568 233.5 568 236.5 578.5 c 128,-1,32
 239.5 589 239.5 589 245.5 598 c 0,33,34
 248.5 603 248.5 603 240.5 603 c 0,35,36
 231.5 603 231.5 603 225.5 591.5 c 128,-1,37
 219.5 580 219.5 580 219.5 569 c 0,38,39
 219.5 565 219.5 565 221.5 559 c 128,-1,40
 223.5 553 223.5 553 228.5 553 c 256,28,29
387.5 23 m 0,41,42
 396.5 23 396.5 23 396.5 32 c 0,43,44
 396.5 36 396.5 36 392.5 37 c 0,45,46
 386.5 39 386.5 39 384 49.5 c 128,-1,47
 381.5 60 381.5 60 381.5 65 c 0,48,49
 381.5 67 381.5 67 382 73 c 128,-1,50
 382.5 79 382.5 79 382.5 85 c 128,-1,51
 382.5 91 382.5 91 381.5 95.5 c 128,-1,52
 380.5 100 380.5 100 376.5 100 c 256,53,54
 372.5 100 372.5 100 370.5 96 c 128,-1,55
 368.5 92 368.5 92 367.5 86.5 c 128,-1,56
 366.5 81 366.5 81 366 75.5 c 128,-1,57
 365.5 70 365.5 70 365.5 68 c 0,58,59
 365.5 64 365.5 64 366.5 56 c 128,-1,60
 367.5 48 367.5 48 370 41 c 128,-1,61
 372.5 34 372.5 34 377 28.5 c 128,-1,62
 381.5 23 381.5 23 387.5 23 c 0,41,42
EndSplineSet

EndChar

StartChar: U
Encoding: 85 85 61
Width: 830
Flags: W
LayerCount: 2
Fore
SplineSet
412.5 -4 m 0,0,1
 367.5 -4 367.5 -4 331 12.5 c 128,-1,2
 294.5 29 294.5 29 269.5 58.5 c 128,-1,3
 244.5 88 244.5 88 231 129.5 c 128,-1,4
 217.5 171 217.5 171 217.5 221 c 2,5,-1
 217.5 530 l 2,6,7
 217.5 540 217.5 540 219.5 555 c 128,-1,8
 221.5 570 221.5 570 227.5 583.5 c 128,-1,9
 233.5 597 233.5 597 244 606.5 c 128,-1,10
 254.5 616 254.5 616 270.5 616 c 0,11,12
 303.5 616 303.5 616 317.5 599 c 128,-1,13
 331.5 582 331.5 582 331.5 528 c 2,14,-1
 331.5 228 l 2,15,16
 331.5 204 331.5 204 331.5 179.5 c 128,-1,17
 331.5 155 331.5 155 339 135.5 c 128,-1,18
 346.5 116 346.5 116 364 103.5 c 128,-1,19
 381.5 91 381.5 91 416.5 91 c 0,20,21
 449.5 91 449.5 91 466.5 110 c 128,-1,22
 483.5 129 483.5 129 491 157.5 c 128,-1,23
 498.5 186 498.5 186 499 220 c 128,-1,24
 499.5 254 499.5 254 499.5 284 c 2,25,-1
 499.5 531 l 2,26,27
 499.5 541 499.5 541 501.5 556 c 128,-1,28
 503.5 571 503.5 571 509 584.5 c 128,-1,29
 514.5 598 514.5 598 524 608 c 128,-1,30
 533.5 618 533.5 618 549.5 618 c 0,31,32
 580.5 618 580.5 618 596.5 597.5 c 128,-1,33
 612.5 577 612.5 577 612.5 532 c 2,34,-1
 612.5 246 l 2,35,36
 612.5 189 612.5 189 600 143 c 128,-1,37
 587.5 97 587.5 97 562 64.5 c 128,-1,38
 536.5 32 536.5 32 499.5 14 c 128,-1,39
 462.5 -4 462.5 -4 412.5 -4 c 0,0,1
527.5 556 m 0,40,41
 527.5 560 527.5 560 530.5 568 c 128,-1,42
 533.5 576 533.5 576 540.5 584 c 0,43,44
 548.5 595 548.5 595 549 599 c 128,-1,45
 549.5 603 549.5 603 540.5 603 c 0,46,47
 535.5 603 535.5 603 531 598 c 128,-1,48
 526.5 593 526.5 593 523.5 588 c 0,49,50
 521.5 583 521.5 583 518 575 c 128,-1,51
 514.5 567 514.5 567 513.5 558 c 0,52,53
 513.5 553 513.5 553 514.5 548.5 c 128,-1,54
 515.5 544 515.5 544 520.5 544 c 256,55,56
 525.5 544 525.5 544 526.5 547.5 c 128,-1,57
 527.5 551 527.5 551 527.5 556 c 0,40,41
259.5 570 m 0,58,59
 263.5 579 263.5 579 269 585 c 128,-1,60
 274.5 591 274.5 591 274.5 598 c 0,61,62
 274.5 603 274.5 603 271.5 603 c 256,63,64
 268.5 603 268.5 603 262.5 600.5 c 128,-1,65
 256.5 598 256.5 598 251.5 590 c 0,66,67
 236.5 569 236.5 569 234.5 552 c 128,-1,68
 232.5 535 232.5 535 238.5 535 c 0,69,70
 243.5 535 243.5 535 249 545.5 c 128,-1,71
 254.5 556 254.5 556 259.5 570 c 0,58,59
328.5 48 m 0,72,73
 328.5 51 328.5 51 321 57 c 128,-1,74
 313.5 63 313.5 63 305.5 72 c 0,75,76
 297.5 80 297.5 80 287 93.5 c 128,-1,77
 276.5 107 276.5 107 269.5 122 c 0,78,79
 264.5 132 264.5 132 260 136 c 128,-1,80
 255.5 140 255.5 140 253.5 140 c 0,81,82
 249.5 140 249.5 140 249.5 133 c 0,83,84
 249.5 125 249.5 125 257.5 109.5 c 128,-1,85
 265.5 94 265.5 94 276.5 79 c 128,-1,86
 287.5 64 287.5 64 300 53 c 128,-1,87
 312.5 42 312.5 42 322.5 42 c 0,88,89
 328.5 42 328.5 42 328.5 48 c 0,72,73
351.5 39 m 0,90,91
 351.5 40 351.5 40 349 43 c 128,-1,92
 346.5 46 346.5 46 343.5 46 c 0,93,94
 338.5 45 338.5 45 336.5 42 c 128,-1,95
 334.5 39 334.5 39 334.5 37 c 0,96,97
 335.5 34 335.5 34 336.5 31.5 c 128,-1,98
 337.5 29 337.5 29 342.5 30 c 0,99,100
 351.5 30 351.5 30 351.5 39 c 0,90,91
EndSplineSet
EndChar

StartChar: V
Encoding: 86 86 62
Width: 830
Flags: W
LayerCount: 2
Fore
SplineSet
453.5 103 m 1,0,-1
 382.5 103 l 1,1,-1
 382.5 783 l 1,2,-1
 453.5 783 l 1,3,-1
 453.5 103 l 1,0,-1
370.5 0 m 1,4,-1
 144.5 545 l 1,5,-1
 144.5 599 l 1,6,-1
 685.5 599 l 1,7,-1
 685.5 544 l 1,8,-1
 460.5 0 l 1,9,-1
 370.5 0 l 1,4,-1
416.5 98 m 1,10,-1
 589.5 520 l 1,11,-1
 243.5 520 l 1,12,-1
 416.5 98 l 1,10,-1
EndSplineSet
EndChar

StartChar: W
Encoding: 87 87 63
Width: 830
Flags: W
LayerCount: 2
Fore
SplineSet
717.017578125 609.5 m 0,0,1
 716.517578125 578 716.517578125 578 696.017578125 568.5 c 0,2,3
 674.517578125 558 674.517578125 558 651.017578125 557.5 c 0,4,5
 615.517578125 557 615.517578125 557 406.017578125 556 c 128,-1,6
 196.517578125 555 196.517578125 555 166.017578125 555.5 c 4,7,8
 144.517578125 556 144.517578125 556 128.517578125 566 c 4,9,10
 113.517578125 575 113.517578125 575 113.017578125 599.5 c 4,11,12
 112.517578125 614 112.517578125 614 119.017578125 622 c 4,13,14
 124.517578125 630 124.517578125 630 134.017578125 635.5 c 4,15,16
 142.517578125 640 142.517578125 640 154.517578125 642.5 c 4,17,18
 166.517578125 644 166.517578125 644 177.017578125 644.5 c 4,19,20
 208.517578125 645 208.517578125 645 422.517578125 646 c 128,-1,21
 636.517578125 647 636.517578125 647 671.017578125 646.5 c 0,22,23
 688.517578125 646 688.517578125 646 702.517578125 639 c 128,-1,24
 716.517578125 632 716.517578125 632 717.017578125 609.5 c 0,0,1
131.017578125 580.5 m 4,25,26
 135.517578125 580 135.517578125 580 139.517578125 586 c 132,-1,27
 143.517578125 592 143.517578125 592 147.517578125 598 c 132,-1,28
 151.517578125 604 151.517578125 604 153.517578125 611 c 132,-1,29
 155.517578125 618 155.517578125 618 156.017578125 619.5 c 4,30,31
 155.517578125 624 155.517578125 624 155.517578125 627 c 132,-1,32
 155.517578125 630 155.517578125 630 150.017578125 630.5 c 4,33,34
 137.517578125 630 137.517578125 630 130.517578125 617 c 4,35,36
 124.517578125 607 124.517578125 607 124.017578125 593.5 c 4,37,38
 123.517578125 586 123.517578125 586 126.517578125 583 c 132,-1,39
 129.517578125 580 129.517578125 580 131.017578125 580.5 c 4,25,26
516.517578125 0 m 0,40,41
 493.517578125 0 493.517578125 0 477.017578125 6 c 128,-1,42
 460.517578125 12 460.517578125 12 449.017578125 23.5 c 128,-1,43
 437.517578125 35 437.517578125 35 429.517578125 51 c 0,44,45
 417.517578125 75 417.517578125 75 414.517578125 87 c 0,46,47
 413.517578125 91 413.517578125 91 412.517578125 97 c 128,-1,48
 411.517578125 103 411.517578125 103 410.017578125 109 c 128,-1,49
 408.517578125 115 408.517578125 115 407.017578125 119 c 128,-1,50
 405.517578125 123 405.517578125 123 403.517578125 123 c 256,51,52
 401.517578125 123 401.517578125 123 399.517578125 115.5 c 128,-1,53
 397.517578125 108 397.517578125 108 393.517578125 97 c 0,54,55
 383.517578125 71 383.517578125 71 374.517578125 52.5 c 128,-1,56
 365.517578125 34 365.517578125 34 354.017578125 22.5 c 128,-1,57
 342.517578125 11 342.517578125 11 328.517578125 5.5 c 128,-1,58
 314.517578125 0 314.517578125 0 294.517578125 0 c 0,59,60
 254.517578125 0 254.517578125 0 225.017578125 13.5 c 128,-1,61
 195.517578125 27 195.517578125 27 176.517578125 51.5 c 128,-1,62
 157.517578125 76 157.517578125 76 148.517578125 109.5 c 128,-1,63
 139.517578125 143 139.517578125 143 139.517578125 183 c 2,64,-1
 139.517578125 462 l 2,65,66
 139.517578125 472 139.517578125 472 142.517578125 485.5 c 128,-1,67
 145.517578125 499 145.517578125 499 152.517578125 511 c 128,-1,68
 159.517578125 523 159.517578125 523 171.017578125 531.5 c 128,-1,69
 182.517578125 540 182.517578125 540 200.517578125 540 c 0,70,71
 229.517578125 540 229.517578125 540 240.517578125 519.5 c 0,72,73
 251.400390625 499.21875 251.400390625 499.21875 251.517578125 467 c 2,74,-1
 252.517578125 193 l 2,75,76
 252.517578125 183 252.517578125 183 254.517578125 166.5 c 128,-1,77
 256.517578125 150 256.517578125 150 261.017578125 134 c 128,-1,78
 265.517578125 118 265.517578125 118 274.517578125 106.5 c 128,-1,79
 283.517578125 95 283.517578125 95 296.517578125 95 c 0,80,81
 319.517578125 95 319.517578125 95 333.017578125 129 c 128,-1,82
 346.517578125 163 346.517578125 163 353.517578125 219 c 128,-1,83
 360.517578125 275 360.517578125 275 362.017578125 308.5 c 128,-1,84
 363.517578125 342 363.517578125 342 363.517578125 418 c 0,85,86
 363.517578125 482 363.517578125 482 373.517578125 506.5 c 128,-1,87
 383.517578125 531 383.517578125 531 413.517578125 531 c 0,88,89
 427.517578125 531 427.517578125 531 436.517578125 526 c 128,-1,90
 445.517578125 521 445.517578125 521 451.517578125 505 c 128,-1,91
 457.517578125 489 457.517578125 489 460.017578125 459 c 128,-1,92
 462.517578125 429 462.517578125 429 462.517578125 379 c 0,93,94
 462.517578125 300 462.517578125 300 462.517578125 285.5 c 128,-1,95
 462.517578125 271 462.517578125 271 464.017578125 236.5 c 128,-1,96
 465.517578125 202 465.517578125 202 468.017578125 181.5 c 128,-1,97
 470.517578125 161 470.517578125 161 475.517578125 146 c 0,98,99
 484.517578125 117 484.517578125 117 494.517578125 105.5 c 128,-1,100
 504.517578125 94 504.517578125 94 517.517578125 94 c 0,101,102
 576.517578125 94 576.517578125 94 576.517578125 239 c 2,103,-1
 576.517578125 479 l 2,104,105
 576.517578125 490 576.517578125 490 578.517578125 501 c 128,-1,106
 580.517578125 512 580.517578125 512 586.017578125 520.5 c 128,-1,107
 591.517578125 529 591.517578125 529 601.517578125 534.5 c 128,-1,108
 611.517578125 540 611.517578125 540 626.517578125 540 c 0,109,110
 658.517578125 540 658.517578125 540 673.017578125 522.5 c 128,-1,111
 687.517578125 505 687.517578125 505 687.517578125 479 c 2,112,-1
 687.517578125 220 l 2,113,114
 687.517578125 178 687.517578125 178 676.017578125 138.5 c 128,-1,115
 664.517578125 99 664.517578125 99 643.017578125 68 c 128,-1,116
 621.517578125 37 621.517578125 37 589.517578125 18.5 c 128,-1,117
 557.517578125 0 557.517578125 0 516.517578125 0 c 0,40,41
164.517578125 455 m 0,118,119
 171.517578125 455 171.517578125 455 174.017578125 462 c 128,-1,120
 176.517578125 469 176.517578125 469 177.517578125 474 c 0,121,122
 179.517578125 488 179.517578125 488 188.517578125 497.5 c 0,123,124
 203.517578125 513 203.517578125 513 203.517578125 519 c 0,125,126
 203.517578125 521 203.517578125 521 201.517578125 524 c 128,-1,127
 199.517578125 527 199.517578125 527 196.517578125 527 c 0,128,129
 190.517578125 527 190.517578125 527 183.517578125 520.5 c 128,-1,130
 176.517578125 514 176.517578125 514 170.517578125 505 c 128,-1,131
 164.517578125 496 164.517578125 496 161.017578125 485.5 c 128,-1,132
 157.517578125 475 157.517578125 475 157.517578125 467 c 0,133,134
 157.517578125 463 157.517578125 463 158.517578125 459 c 128,-1,135
 159.517578125 455 159.517578125 455 164.517578125 455 c 0,118,119
609.517578125 473 m 0,136,137
 609.517578125 483 609.517578125 483 612.517578125 491 c 128,-1,138
 615.517578125 499 615.517578125 499 619.517578125 506 c 0,139,140
 624.517578125 514 624.517578125 514 623.517578125 519 c 128,-1,141
 622.517578125 524 622.517578125 524 619.517578125 524 c 0,142,143
 614.517578125 524 614.517578125 524 608.017578125 520.5 c 128,-1,144
 601.517578125 517 601.517578125 517 597.517578125 507 c 0,145,146
 592.517578125 491 592.517578125 491 594.017578125 476 c 128,-1,147
 595.517578125 461 595.517578125 461 603.517578125 461 c 0,148,149
 605.517578125 461 605.517578125 461 607.517578125 464.5 c 128,-1,150
 609.517578125 468 609.517578125 468 609.517578125 473 c 0,136,137
390.517578125 467 m 0,151,152
 390.517578125 468 390.517578125 468 392.517578125 477.5 c 128,-1,153
 394.517578125 487 394.517578125 487 397.517578125 493 c 0,154,155
 404.517578125 506 404.517578125 506 406.517578125 511 c 128,-1,156
 408.517578125 516 408.517578125 516 405.517578125 516 c 0,157,158
 403.517578125 516 403.517578125 516 398.017578125 514 c 128,-1,159
 392.517578125 512 392.517578125 512 387.517578125 505 c 0,160,161
 376.517578125 490 376.517578125 490 377.017578125 473 c 128,-1,162
 377.517578125 456 377.517578125 456 385.517578125 456 c 0,163,164
 390.517578125 456 390.517578125 456 390.517578125 467 c 0,151,152
241.517578125 37 m 0,165,166
 240.517578125 42 240.517578125 42 227.517578125 51 c 128,-1,167
 214.517578125 60 214.517578125 60 208.517578125 67 c 0,168,169
 197.517578125 78 197.517578125 78 193.017578125 89 c 128,-1,170
 188.517578125 100 188.517578125 100 183.517578125 99 c 0,171,172
 179.517578125 99 179.517578125 99 180.017578125 92 c 128,-1,173
 180.517578125 85 180.517578125 85 185.017578125 75 c 128,-1,174
 189.517578125 65 189.517578125 65 198.517578125 54 c 128,-1,175
 207.517578125 43 207.517578125 43 220.517578125 34 c 0,176,177
 229.517578125 27 229.517578125 27 236.517578125 29 c 0,178,179
 241.517578125 29 241.517578125 29 241.517578125 37 c 0,165,166
507.517578125 22 m 0,180,181
 507.517578125 26 507.517578125 26 504.017578125 27 c 128,-1,182
 500.517578125 28 500.517578125 28 497.517578125 28 c 0,183,184
 492.517578125 29 492.517578125 29 482.517578125 38 c 128,-1,185
 472.517578125 47 472.517578125 47 466.517578125 57 c 0,186,187
 456.517578125 72 456.517578125 72 448.517578125 74 c 0,188,189
 445.517578125 74 445.517578125 74 445.517578125 69 c 0,190,191
 445.517578125 67 445.517578125 67 449.017578125 59 c 128,-1,192
 452.517578125 51 452.517578125 51 459.517578125 42 c 128,-1,193
 466.517578125 33 466.517578125 33 476.017578125 25.5 c 128,-1,194
 485.517578125 18 485.517578125 18 496.517578125 17 c 0,195,196
 500.517578125 17 500.517578125 17 503.517578125 17 c 128,-1,197
 506.517578125 17 506.517578125 17 507.517578125 22 c 0,180,181
EndSplineSet
EndChar

StartChar: X
Encoding: 88 88 64
Width: 830
Flags: W
LayerCount: 2
Fore
SplineSet
501.534179688 174.834960938 m 0,0,1
 511.138671875 166.602539062 511.138671875 166.602539062 524.790039062 152.40234375 c 128,-1,2
 538.44140625 138.202148438 538.44140625 138.202148438 551.081054688 125.494140625 c 128,-1,3
 563.720703125 112.786132812 563.720703125 112.786132812 573.975585938 104.829101562 c 128,-1,4
 584.231445312 96.87109375 584.231445312 96.87109375 587.043945312 101.124023438 c 0,5,6
 588.725585938 102.598632812 588.725585938 102.598632812 590.611328125 107.229492188 c 128,-1,7
 592.498046875 111.860351562 592.498046875 111.860351562 589 116.524414062 c 0,8,9
 586.049804688 119.885742188 586.049804688 119.885742188 576 131 c 128,-1,10
 565.950195312 142.112304688 565.950195312 142.112304688 554.047851562 153.98046875 c 128,-1,11
 542.146484375 165.84765625 542.146484375 165.84765625 530.604492188 175.94921875 c 128,-1,12
 519.061523438 186.05078125 519.061523438 186.05078125 513.505859375 188.313476562 c 0,13,14
 507.0234375 190.955078125 507.0234375 190.955078125 502.340820312 184.764648438 c 128,-1,15
 497.659179688 178.573242188 497.659179688 178.573242188 501.534179688 174.834960938 c 0,0,1
244.453125 485.340820312 m 0,16,17
 254.057617188 477.108398438 254.057617188 477.108398438 267.708984375 462.908203125 c 128,-1,18
 281.360351562 448.708007812 281.360351562 448.708007812 294 436 c 128,-1,19
 306.639648438 423.291992188 306.639648438 423.291992188 316.89453125 415.334960938 c 128,-1,20
 327.150390625 407.376953125 327.150390625 407.376953125 329.962890625 411.629882812 c 0,21,22
 331.64453125 413.104492188 331.64453125 413.104492188 333.530273438 417.735351562 c 128,-1,23
 335.416992188 422.366210938 335.416992188 422.366210938 331.918945312 427.030273438 c 0,24,25
 328.96875 430.391601562 328.96875 430.391601562 318.918945312 441.505859375 c 128,-1,26
 308.869140625 452.618164062 308.869140625 452.618164062 296.966796875 464.486328125 c 128,-1,27
 285.065429688 476.353515625 285.065429688 476.353515625 273.5234375 486.455078125 c 128,-1,28
 261.98046875 496.556640625 261.98046875 496.556640625 256.424804688 498.819335938 c 0,29,30
 249.942382812 501.4609375 249.942382812 501.4609375 245.259765625 495.270507812 c 128,-1,31
 240.578125 489.079101562 240.578125 489.079101562 244.453125 485.340820312 c 0,16,17
507.004882812 411.383789062 m 0,32,33
 515.94921875 420.328125 515.94921875 420.328125 531.154296875 432.850585938 c 128,-1,34
 546.360351562 445.372070312 546.360351562 445.372070312 560 457 c 128,-1,35
 573.639648438 468.627929688 573.639648438 468.627929688 582.360351562 478.2421875 c 128,-1,36
 591.081054688 487.857421875 591.081054688 487.857421875 587.056640625 490.98828125 c 0,37,38
 585.71484375 492.77734375 585.71484375 492.77734375 581.2421875 495.012695312 c 128,-1,39
 576.770507812 497.249023438 576.770507812 497.249023438 571.8515625 494.119140625 c 0,40,41
 568.2734375 491.435546875 568.2734375 491.435546875 556.421875 482.267578125 c 128,-1,42
 544.571289062 473.099609375 544.571289062 473.099609375 531.825195312 462.142578125 c 128,-1,43
 519.080078125 451.186523438 519.080078125 451.186523438 508.123046875 440.453125 c 128,-1,44
 497.166015625 429.719726562 497.166015625 429.719726562 494.483398438 424.353515625 c 0,45,46
 491.352539062 418.092773438 491.352539062 418.092773438 497.166015625 412.94921875 c 128,-1,47
 502.98046875 407.806640625 502.98046875 407.806640625 507.004882812 411.383789062 c 0,32,33
233.004882812 123.383789062 m 0,48,49
 241.94921875 132.328125 241.94921875 132.328125 257.154296875 144.850585938 c 128,-1,50
 272.360351562 157.372070312 272.360351562 157.372070312 286 169 c 128,-1,51
 299.639648438 180.627929688 299.639648438 180.627929688 308.360351562 190.2421875 c 128,-1,52
 317.081054688 199.857421875 317.081054688 199.857421875 313.056640625 202.98828125 c 0,53,54
 311.71484375 204.77734375 311.71484375 204.77734375 307.2421875 207.012695312 c 128,-1,55
 302.770507812 209.249023438 302.770507812 209.249023438 297.8515625 206.119140625 c 0,56,57
 294.2734375 203.435546875 294.2734375 203.435546875 282.421875 194.267578125 c 128,-1,58
 270.571289062 185.099609375 270.571289062 185.099609375 257.825195312 174.142578125 c 128,-1,59
 245.080078125 163.186523438 245.080078125 163.186523438 234.123046875 152.453125 c 128,-1,60
 223.166015625 141.719726562 223.166015625 141.719726562 220.483398438 136.353515625 c 0,61,62
 217.352539062 130.092773438 217.352539062 130.092773438 223.166015625 124.94921875 c 128,-1,63
 228.98046875 119.806640625 228.98046875 119.806640625 233.004882812 123.383789062 c 0,48,49
233.004882812 123.383789062 m 0,64,65
 241.94921875 132.328125 241.94921875 132.328125 257.154296875 144.850585938 c 128,-1,66
 272.360351562 157.372070312 272.360351562 157.372070312 286 169 c 128,-1,67
 299.639648438 180.627929688 299.639648438 180.627929688 308.360351562 190.2421875 c 128,-1,68
 317.081054688 199.857421875 317.081054688 199.857421875 313.056640625 202.98828125 c 0,69,70
 311.71484375 204.77734375 311.71484375 204.77734375 307.2421875 207.012695312 c 128,-1,71
 302.770507812 209.249023438 302.770507812 209.249023438 297.8515625 206.119140625 c 0,72,73
 294.2734375 203.435546875 294.2734375 203.435546875 282.421875 194.267578125 c 128,-1,74
 270.571289062 185.099609375 270.571289062 185.099609375 257.825195312 174.142578125 c 128,-1,75
 245.080078125 163.186523438 245.080078125 163.186523438 234.123046875 152.453125 c 128,-1,76
 223.166015625 141.719726562 223.166015625 141.719726562 220.483398438 136.353515625 c 0,77,78
 217.352539062 130.092773438 217.352539062 130.092773438 223.166015625 124.94921875 c 128,-1,79
 228.98046875 119.806640625 228.98046875 119.806640625 233.004882812 123.383789062 c 0,64,65
254 71 m 1,80,-1
 185 140 l 1,81,-1
 346 301 l 1,82,-1
 185 462 l 1,83,-1
 254 531 l 1,84,-1
 415 370 l 1,85,-1
 576 531 l 1,86,-1
 645 462 l 1,87,-1
 484 301 l 1,88,-1
 645 140 l 1,89,-1
 576 71 l 1,90,-1
 415 232 l 1,91,-1
 254 71 l 1,80,-1
EndSplineSet
EndChar

StartChar: Y
Encoding: 89 89 65
Width: 830
Flags: W
LayerCount: 2
Fore
SplineSet
415.36328125 0 m 0,0,1
 389.36328125 0 389.36328125 0 375.86328125 16.5 c 128,-1,2
 362.36328125 33 362.36328125 33 362.36328125 52 c 2,3,-1
 362.36328125 191 l 2,4,5
 362.36328125 204 362.36328125 204 360.86328125 214.5 c 128,-1,6
 359.36328125 225 359.36328125 225 355.86328125 236 c 128,-1,7
 352.36328125 247 352.36328125 247 346.36328125 260.5 c 128,-1,8
 340.36328125 274 340.36328125 274 331.36328125 294 c 2,9,-1
 212.36328125 556 l 2,10,11
 209.36328125 563 209.36328125 563 211.86328125 573.5 c 128,-1,12
 214.36328125 584 214.36328125 584 221.86328125 593.5 c 128,-1,13
 229.36328125 603 229.36328125 603 241.36328125 609.5 c 128,-1,14
 253.36328125 616 253.36328125 616 269.36328125 616 c 0,15,16
 278.36328125 616 278.36328125 616 286.86328125 611.5 c 128,-1,17
 295.36328125 607 295.36328125 607 300.36328125 595 c 2,18,-1
 393.36328125 377 l 2,19,20
 398.36328125 366 398.36328125 366 404.86328125 354 c 128,-1,21
 411.36328125 342 411.36328125 342 417.36328125 342 c 256,22,23
 423.36328125 342 423.36328125 342 429.36328125 351.5 c 128,-1,24
 435.36328125 361 435.36328125 361 442.36328125 377 c 2,25,-1
 542.36328125 600 l 2,26,27
 547.36328125 611 547.36328125 611 557.36328125 613.5 c 128,-1,28
 567.36328125 616 567.36328125 616 574.36328125 616 c 0,29,30
 587.36328125 616 587.36328125 616 596.86328125 609 c 128,-1,31
 606.36328125 602 606.36328125 602 611.86328125 592 c 128,-1,32
 617.36328125 582 617.36328125 582 618.86328125 571 c 128,-1,33
 620.36328125 560 620.36328125 560 616.36328125 552 c 2,34,-1
 491.36328125 281 l 2,35,36
 484.36328125 266 484.36328125 266 480.36328125 255.5 c 128,-1,37
 476.36328125 245 476.36328125 245 474.86328125 234 c 128,-1,38
 473.36328125 223 473.36328125 223 472.86328125 209.5 c 128,-1,39
 472.36328125 196 472.36328125 196 472.36328125 174 c 2,40,-1
 472.36328125 52 l 2,41,42
 472.36328125 37 472.36328125 37 466.86328125 27 c 128,-1,43
 461.36328125 17 461.36328125 17 452.86328125 11 c 128,-1,44
 444.36328125 5 444.36328125 5 434.36328125 2.5 c 128,-1,45
 424.36328125 0 424.36328125 0 415.36328125 0 c 0,0,1
243.36328125 551 m 0,46,47
 241.36328125 559 241.36328125 559 241.86328125 564.5 c 128,-1,48
 242.36328125 570 242.36328125 570 241.36328125 575 c 256,49,50
 240.36328125 580 240.36328125 580 238.36328125 584 c 128,-1,51
 236.36328125 588 236.36328125 588 234.36328125 587 c 0,52,53
 223.36328125 582 223.36328125 582 224.86328125 568 c 128,-1,54
 226.36328125 554 226.36328125 554 229.36328125 546 c 0,55,56
 234.36328125 535 234.36328125 535 241.36328125 537 c 0,57,58
 245.36328125 539 245.36328125 539 245.36328125 543 c 128,-1,59
 245.36328125 547 245.36328125 547 243.36328125 551 c 0,46,47
399.36328125 33 m 0,60,61
 397.36328125 37 397.36328125 37 393.86328125 47 c 128,-1,62
 390.36328125 57 390.36328125 57 388.36328125 74 c 0,63,64
 387.36328125 97 387.36328125 97 383.36328125 97 c 0,65,66
 382.36328125 97 382.36328125 97 380.36328125 93.5 c 128,-1,67
 378.36328125 90 378.36328125 90 377.36328125 81 c 0,68,69
 375.36328125 49 375.36328125 49 382.86328125 35 c 128,-1,70
 390.36328125 21 390.36328125 21 399.36328125 21 c 0,71,72
 403.36328125 21 403.36328125 21 402.36328125 24.5 c 128,-1,73
 401.36328125 28 401.36328125 28 399.36328125 33 c 0,60,61
EndSplineSet

EndChar

StartChar: Z
Encoding: 90 90 66
Width: 830
Flags: W
LayerCount: 2
Fore
SplineSet
314.5 0 m 2,0,1
 303.5 0 303.5 0 291 2.5 c 128,-1,2
 278.5 5 278.5 5 268.5 11.5 c 128,-1,3
 258.5 18 258.5 18 252 28.5 c 128,-1,4
 245.5 39 245.5 39 245.5 55 c 0,5,6
 245.5 65 245.5 65 247 76 c 128,-1,7
 248.5 87 248.5 87 256.5 102 c 2,8,-1
 337.5 262 l 1,9,-1
 313.5 262 l 2,10,11
 298.5 262 298.5 262 290.5 273 c 128,-1,12
 282.5 284 282.5 284 282.5 301 c 256,13,14
 282.5 318 282.5 318 289 328 c 128,-1,15
 295.5 338 295.5 338 313.5 338 c 2,16,-1
 375.5 338 l 1,17,-1
 464.5 513 l 2,18,19
 467.5 519 467.5 519 467.5 525 c 0,20,21
 466.5 531 466.5 531 456.5 531 c 2,22,-1
 278.5 533 l 2,23,24
 265.5 533 265.5 533 257 543.5 c 128,-1,25
 248.5 554 248.5 554 248.5 569 c 0,26,27
 248.5 598 248.5 598 263 608 c 128,-1,28
 277.5 618 277.5 618 296.5 618 c 2,29,-1
 542.5 616 l 2,30,31
 554.5 616 554.5 616 562.5 609.5 c 128,-1,32
 570.5 603 570.5 603 575 593.5 c 128,-1,33
 579.5 584 579.5 584 581.5 572 c 128,-1,34
 583.5 560 583.5 560 583.5 548 c 0,35,36
 583.5 518 583.5 518 568.5 488 c 2,37,-1
 489.5 338 l 1,38,-1
 519.5 338 l 2,39,40
 537.5 338 537.5 338 545 329.5 c 128,-1,41
 552.5 321 552.5 321 552.5 307 c 0,42,43
 552.5 287 552.5 287 546 274.5 c 128,-1,44
 539.5 262 539.5 262 523.5 262 c 2,45,-1
 449.5 262 l 1,46,-1
 394.5 158 l 2,47,48
 382.5 135 382.5 135 376 121.5 c 128,-1,49
 369.5 108 369.5 108 369.5 100 c 0,50,51
 369.5 87 369.5 87 397.5 87 c 2,52,-1
 545.5 86 l 2,53,54
 565.5 86 565.5 86 575 72 c 128,-1,55
 584.5 58 584.5 58 584.5 35 c 0,56,57
 584.5 21 584.5 21 575 10.5 c 128,-1,58
 565.5 0 565.5 0 557.5 0 c 2,59,-1
 314.5 0 l 2,0,1
278.5 574 m 0,60,61
 280.5 578 280.5 578 284.5 585 c 128,-1,62
 288.5 592 288.5 592 287.5 595 c 0,63,64
 287.5 597 287.5 597 284 599.5 c 128,-1,65
 280.5 602 280.5 602 278.5 602 c 0,66,67
 267.5 600 267.5 600 264.5 586 c 128,-1,68
 261.5 572 261.5 572 263.5 560 c 0,69,70
 263.5 558 263.5 558 265.5 555 c 128,-1,71
 267.5 552 267.5 552 269.5 552 c 0,72,73
 273.5 553 273.5 553 275.5 562.5 c 128,-1,74
 277.5 572 277.5 572 278.5 574 c 0,60,61
305.5 306 m 0,75,76
 305.5 311 305.5 311 308.5 318.5 c 128,-1,77
 311.5 326 311.5 326 306.5 326 c 256,78,79
 301.5 326 301.5 326 296.5 318.5 c 128,-1,80
 291.5 311 291.5 311 291.5 300 c 0,81,82
 291.5 293 291.5 293 294 285.5 c 128,-1,83
 296.5 278 296.5 278 301.5 278 c 256,84,85
 306.5 278 306.5 278 306 287.5 c 128,-1,86
 305.5 297 305.5 297 305.5 306 c 0,75,76
271.5 49 m 0,87,88
 275.5 49 275.5 49 279.5 57.5 c 128,-1,89
 283.5 66 283.5 66 287.5 77.5 c 128,-1,90
 291.5 89 291.5 89 294 100.5 c 128,-1,91
 296.5 112 296.5 112 296.5 117 c 0,92,93
 296.5 121 296.5 121 292.5 121 c 0,94,95
 287.5 121 287.5 121 282.5 114 c 128,-1,96
 277.5 107 277.5 107 273 99 c 128,-1,97
 268.5 91 268.5 91 265.5 82.5 c 128,-1,98
 262.5 74 262.5 74 262.5 71 c 0,99,100
 261.5 63 261.5 63 264 56 c 128,-1,101
 266.5 49 266.5 49 271.5 49 c 0,87,88
286.5 27 m 0,102,103
 286.5 34 286.5 34 281.5 34 c 0,104,105
 272.5 34 272.5 34 272.5 25 c 0,106,107
 272.5 19 272.5 19 277.5 19 c 0,108,109
 280.5 19 280.5 19 283.5 21.5 c 128,-1,110
 286.5 24 286.5 24 286.5 27 c 0,102,103
EndSplineSet
EndChar

StartChar: a
Encoding: 97 97 67
Width: 830
Flags: W
LayerCount: 2
Fore
SplineSet
421 621 m 0,0,1
 453 621 453 621 474 611 c 128,-1,2
 495 601 495 601 503 587 c 0,3,4
 509 575 509 575 520.5 534 c 128,-1,5
 532 493 532 493 545.5 437 c 128,-1,6
 559 381 559 381 573.5 318 c 128,-1,7
 588 255 588 255 600 199 c 128,-1,8
 612 143 612 143 619.5 101.5 c 128,-1,9
 627 60 627 60 627 48 c 0,10,11
 627 28 627 28 606 12.5 c 128,-1,12
 585 -3 585 -3 561 -3 c 256,13,14
 537 -3 537 -3 528 11 c 0,15,16
 524 17 524 17 518 32 c 128,-1,17
 512 47 512 47 506 67 c 128,-1,18
 500 87 500 87 494.5 109 c 128,-1,19
 489 131 489 131 485 152 c 0,20,21
 481 172 481 172 473.5 176.5 c 128,-1,22
 466 181 466 181 456 181 c 0,23,24
 427 181 427 181 405 181.5 c 128,-1,25
 383 182 383 182 372 182 c 0,26,27
 352 182 352 182 342.5 177.5 c 128,-1,28
 333 173 333 173 330 162 c 2,29,-1
 304 62 l 2,30,31
 296 33 296 33 278.5 15.5 c 128,-1,32
 261 -2 261 -2 239 -2 c 0,33,34
 203 -2 203 -2 203 48 c 0,35,36
 203 65 203 65 207 95.5 c 128,-1,37
 211 126 211 126 217.5 164.5 c 128,-1,38
 224 203 224 203 233.5 246.5 c 128,-1,39
 243 290 243 290 253.5 334.5 c 128,-1,40
 264 379 264 379 275 421 c 128,-1,41
 286 463 286 463 297 497 c 0,42,43
 309 535 309 535 321.5 559 c 128,-1,44
 334 583 334 583 348 597 c 128,-1,45
 362 611 362 611 379.5 616 c 128,-1,46
 397 621 397 621 421 621 c 0,0,1
360 561 m 0,47,48
 371 574 371 574 380 585.5 c 128,-1,49
 389 597 389 597 382 598 c 0,50,51
 366 601 366 601 350 579 c 0,52,53
 339 562 339 562 334 543 c 128,-1,54
 329 524 329 524 337 522 c 0,55,56
 339 522 339 522 341 525.5 c 128,-1,57
 343 529 343 529 345 535 c 128,-1,58
 347 541 347 541 350.5 548 c 128,-1,59
 354 555 354 555 360 561 c 0,47,48
376 377 m 0,60,61
 365 320 365 320 361.5 298.5 c 128,-1,62
 358 277 358 277 367 277 c 2,63,-1
 455 277 l 2,64,65
 463 277 463 277 459 296.5 c 128,-1,66
 455 316 455 316 447 357 c 0,67,68
 445 368 445 368 442 393.5 c 128,-1,69
 439 419 439 419 434.5 445 c 128,-1,70
 430 471 430 471 425 491.5 c 128,-1,71
 420 512 420 512 414 512 c 0,72,73
 409 512 409 512 403 494 c 128,-1,74
 397 476 397 476 391.5 452.5 c 128,-1,75
 386 429 386 429 382 407 c 128,-1,76
 378 385 378 385 376 377 c 0,60,61
235 63 m 0,77,78
 237 75 237 75 235 82 c 128,-1,79
 233 89 233 89 229 90 c 0,80,81
 227 90 227 90 224.5 87.5 c 128,-1,82
 222 85 222 85 220 77 c 0,83,84
 216 57 216 57 219 38.5 c 128,-1,85
 222 20 222 20 230 18 c 0,86,87
 240 16 240 16 234 33 c 0,88,89
 232 39 232 39 232.5 46.5 c 128,-1,90
 233 54 233 54 235 63 c 0,77,78
540 64 m 0,91,92
 533 78 533 78 531 83 c 128,-1,93
 529 88 529 88 527 88 c 0,94,95
 524 88 524 88 522 78 c 0,96,97
 522 74 522 74 524.5 63.5 c 128,-1,98
 527 53 527 53 531 42.5 c 128,-1,99
 535 32 535 32 540.5 24 c 128,-1,100
 546 16 546 16 551 16 c 0,101,102
 554 16 554 16 554 21 c 128,-1,103
 554 26 554 26 551.5 34 c 128,-1,104
 549 42 549 42 546 50 c 128,-1,105
 543 58 543 58 540 64 c 0,91,92
EndSplineSet
EndChar

StartChar: b
Encoding: 98 98 68
Width: 830
Flags: W
LayerCount: 2
Fore
SplineSet
675 622 m 1,0,-1
 675 551 l 1,1,-1
 619 551 l 1,2,-1
 619 0 l 1,3,-1
 542 0 l 1,4,5
 512 60 512 60 459.5 110.5 c 128,-1,6
 407 161 407 161 339 196 c 128,-1,7
 271 231 271 231 194 243 c 1,8,-1
 155 339 l 1,9,10
 251 397 251 397 353.5 444 c 128,-1,11
 456 491 456 491 565 524 c 1,12,-1
 542 482 l 1,13,-1
 542 551 l 1,14,-1
 186 551 l 5,15,-1
 186 622 l 5,16,-1
 675 622 l 1,0,-1
542 474 m 1,17,-1
 563 446 l 1,18,19
 487 421 487 421 403 384.5 c 128,-1,20
 319 348 319 348 248 304 c 1,21,22
 302 292 302 292 363 263 c 128,-1,23
 424 234 424 234 476 190 c 128,-1,24
 528 146 528 146 556 88 c 1,25,-1
 547 88 l 1,26,27
 545 111 545 111 543.5 134 c 128,-1,28
 542 157 542 157 542 189 c 2,29,-1
 542 474 l 1,17,-1
EndSplineSet
EndChar

StartChar: c
Encoding: 99 99 69
Width: 830
Flags: W
LayerCount: 2
Fore
SplineSet
484 -10 m 4,0,1
 366 -10 366 -10 301 57 c 132,-1,2
 236 124 236 124 236 245 c 4,3,4
 236 325 236 325 265 380.5 c 132,-1,5
 294 436 294 436 348 465 c 5,6,-1
 189 465 l 5,7,-1
 189 537 l 5,8,-1
 641 537 l 5,9,-1
 641 465 l 5,10,-1
 528 465 l 6,11,12
 434 465 434 465 380.5 411.5 c 132,-1,13
 327 358 327 358 327 252 c 4,14,15
 327 165 327 165 370 114.5 c 132,-1,16
 413 64 413 64 493 64 c 4,17,18
 530 64 530 64 564 73.5 c 132,-1,19
 598 83 598 83 630 99 c 5,20,-1
 630 21 l 5,21,22
 601 5 601 5 566 -2.5 c 132,-1,23
 531 -10 531 -10 484 -10 c 4,0,1
EndSplineSet
EndChar

StartChar: d
Encoding: 100 100 70
Width: 830
Flags: W
LayerCount: 2
Fore
SplineSet
688.5 622 m 1,0,-1
 688.5 551 l 1,1,-1
 428.5 551 l 1,2,-1
 428.5 372 l 2,3,4
 428.5 343 428.5 343 437.5 329.5 c 128,-1,5
 446.5 316 446.5 316 465.5 316 c 256,6,7
 484.5 316 484.5 316 505 328 c 128,-1,8
 525.5 340 525.5 340 549.5 366 c 128,-1,9
 573.5 392 573.5 392 601.5 433 c 1,10,-1
 661.5 442 l 1,11,12
 693.5 395 693.5 395 711 345 c 128,-1,13
 728.5 295 728.5 295 728.5 245 c 0,14,15
 728.5 182 728.5 182 701 132 c 128,-1,16
 673.5 82 673.5 82 620 53 c 128,-1,17
 566.5 24 566.5 24 489.5 24 c 0,18,19
 423.5 24 423.5 24 366.5 47 c 128,-1,20
 309.5 70 309.5 70 261.5 121.5 c 128,-1,21
 213.5 173 213.5 173 173.5 257.5 c 128,-1,22
 133.5 342 133.5 342 101.5 465 c 1,23,-1
 177.5 485 l 1,24,25
 213.5 346 213.5 346 257 261.5 c 128,-1,26
 300.5 177 300.5 177 356.5 138.5 c 128,-1,27
 412.5 100 412.5 100 485.5 100 c 0,28,29
 565.5 100 565.5 100 609 140 c 128,-1,30
 652.5 180 652.5 180 652.5 243 c 0,31,32
 652.5 288 652.5 288 640 320 c 128,-1,33
 627.5 352 627.5 352 607.5 373 c 1,34,-1
 653.5 392 l 1,35,36
 623.5 341 623.5 341 592 308 c 128,-1,37
 560.5 275 560.5 275 529 258.5 c 128,-1,38
 497.5 242 497.5 242 466.5 242 c 0,39,40
 443.5 242 443.5 242 423.5 248.5 c 128,-1,41
 403.5 255 403.5 255 389.5 268 c 0,42,43
 373.5 282 373.5 282 362.5 307.5 c 128,-1,44
 351.5 333 351.5 333 351.5 393 c 2,45,-1
 351.5 551 l 1,46,-1
 143.5 551 l 5,47,-1
 143.5 622 l 5,48,-1
 688.5 622 l 1,0,-1
EndSplineSet
EndChar

StartChar: e
Encoding: 101 101 71
Width: 830
Flags: W
LayerCount: 2
Fore
SplineSet
431.83984375 -10 m 0,0,1
 386.83984375 -10 386.83984375 -10 350.33984375 11.5 c 128,-1,2
 313.83984375 33 313.83984375 33 287.83984375 73 c 128,-1,3
 261.83984375 113 261.83984375 113 247.33984375 168.5 c 128,-1,4
 232.83984375 224 232.83984375 224 232.83984375 292 c 0,5,6
 232.83984375 364 232.83984375 364 248.83984375 424.5 c 128,-1,7
 264.83984375 485 264.83984375 485 293.33984375 529.5 c 128,-1,8
 321.83984375 574 321.83984375 574 361.33984375 598.5 c 128,-1,9
 400.83984375 623 400.83984375 623 446.83984375 623 c 0,10,11
 480.83984375 623 480.83984375 623 509.33984375 610 c 128,-1,12
 537.83984375 597 537.83984375 597 557.83984375 573.5 c 128,-1,13
 577.83984375 550 577.83984375 550 588.33984375 518.5 c 128,-1,14
 598.83984375 487 598.83984375 487 596.83984375 450 c 0,15,16
 594.83984375 407 594.83984375 407 576.83984375 366.5 c 128,-1,17
 558.83984375 326 558.83984375 326 528.83984375 295 c 128,-1,18
 498.83984375 264 498.83984375 264 459.33984375 245.5 c 128,-1,19
 419.83984375 227 419.83984375 227 374.83984375 227 c 0,20,21
 357.83984375 227 357.83984375 227 357.83984375 213 c 0,22,23
 357.83984375 149 357.83984375 149 380.33984375 118.5 c 128,-1,24
 402.83984375 88 402.83984375 88 437.83984375 88 c 0,25,26
 463.83984375 88 463.83984375 88 481.33984375 107 c 128,-1,27
 498.83984375 126 498.83984375 126 498.83984375 155 c 0,28,29
 498.83984375 179 498.83984375 179 511.83984375 193.5 c 128,-1,30
 524.83984375 208 524.83984375 208 544.83984375 208 c 0,31,32
 567.83984375 208 567.83984375 208 581.33984375 189.5 c 128,-1,33
 594.83984375 171 594.83984375 171 594.83984375 139 c 0,34,35
 594.83984375 109 594.83984375 109 581.83984375 81.5 c 128,-1,36
 568.83984375 54 568.83984375 54 546.83984375 34 c 128,-1,37
 524.83984375 14 524.83984375 14 494.83984375 2 c 128,-1,38
 464.83984375 -10 464.83984375 -10 431.83984375 -10 c 0,0,1
301.83984375 477 m 0,39,40
 304.83984375 477 304.83984375 477 314.33984375 491.5 c 128,-1,41
 323.83984375 506 323.83984375 506 336.83984375 523.5 c 128,-1,42
 349.83984375 541 349.83984375 541 364.83984375 556.5 c 128,-1,43
 379.83984375 572 379.83984375 572 394.83984375 573 c 0,44,45
 399.83984375 574 399.83984375 574 404.33984375 576.5 c 128,-1,46
 408.83984375 579 408.83984375 579 407.83984375 582 c 0,47,48
 407.83984375 592 407.83984375 592 394.83984375 590 c 0,49,50
 377.83984375 589 377.83984375 589 360.33984375 576 c 128,-1,51
 342.83984375 563 342.83984375 563 328.33984375 545.5 c 128,-1,52
 313.83984375 528 313.83984375 528 304.83984375 510 c 128,-1,53
 295.83984375 492 295.83984375 492 296.83984375 481 c 0,54,55
 298.83984375 474 298.83984375 474 301.83984375 477 c 0,39,40
354.83984375 315 m 0,56,57
 357.83984375 311 357.83984375 311 368.83984375 311 c 0,58,59
 394.83984375 311 394.83984375 311 418.83984375 324 c 128,-1,60
 442.83984375 337 442.83984375 337 460.83984375 357 c 128,-1,61
 478.83984375 377 478.83984375 377 489.83984375 403 c 128,-1,62
 500.83984375 429 500.83984375 429 500.83984375 454 c 0,63,64
 500.83984375 486 500.83984375 486 485.33984375 507 c 128,-1,65
 469.83984375 528 469.83984375 528 446.83984375 528 c 0,66,67
 429.83984375 528 429.83984375 528 415.33984375 513.5 c 128,-1,68
 400.83984375 499 400.83984375 499 389.33984375 477.5 c 128,-1,69
 377.83984375 456 377.83984375 456 369.83984375 429.5 c 128,-1,70
 361.83984375 403 361.83984375 403 357.33984375 379.5 c 128,-1,71
 352.83984375 356 352.83984375 356 351.83984375 338 c 128,-1,72
 350.83984375 320 350.83984375 320 354.83984375 315 c 0,56,57
288.83984375 467 m 0,73,74
 283.83984375 466 283.83984375 466 280.83984375 459.5 c 128,-1,75
 277.83984375 453 277.83984375 453 278.83984375 445 c 0,76,77
 280.83984375 436 280.83984375 436 282.83984375 437 c 0,78,79
 287.83984375 437 287.83984375 437 291.83984375 446 c 128,-1,80
 295.83984375 455 295.83984375 455 293.83984375 462 c 0,81,82
 291.83984375 468 291.83984375 468 288.83984375 467 c 0,73,74
EndSplineSet
EndChar

StartChar: f
Encoding: 102 102 72
Width: 830
Flags: W
LayerCount: 2
Fore
SplineSet
748 622 m 1,0,-1
 748 551 l 1,1,-1
 131 551 l 1,2,-1
 115 560 l 1,3,4
 157 550 157 550 199.5 528 c 128,-1,5
 242 506 242 506 278.5 480.5 c 128,-1,6
 315 455 315 455 337 432 c 1,7,-1
 342 376 l 1,8,9
 306 360 306 360 266.5 341 c 128,-1,10
 227 322 227 322 190.5 303 c 128,-1,11
 154 284 154 284 126 265 c 1,12,-1
 115 282 l 1,13,14
 193 266 193 266 252 241 c 128,-1,15
 311 216 311 216 358 181 c 128,-1,16
 405 146 405 146 448 99 c 1,17,18
 447 116 447 116 446.5 134 c 128,-1,19
 446 152 446 152 446 171 c 2,20,-1
 446 510 l 1,21,-1
 459 510 l 2,22,23
 514 510 514 510 565.5 501 c 128,-1,24
 617 492 617 492 661.5 471 c 128,-1,25
 706 450 706 450 740 414 c 0,26,27
 764 389 764 389 778.5 357.5 c 128,-1,28
 793 326 793 326 793 288 c 0,29,30
 793 255 793 255 779.5 225.5 c 128,-1,31
 766 196 766 196 736 177 c 128,-1,32
 706 158 706 158 656 158 c 0,33,34
 641 158 641 158 626.5 159 c 128,-1,35
 612 160 612 160 598 163 c 1,36,-1
 603 234 l 1,37,38
 609 233 609 233 618 232.5 c 128,-1,39
 627 232 627 232 637 232 c 0,40,41
 686 232 686 232 700.5 251 c 128,-1,42
 715 270 715 270 715 296 c 0,43,44
 715 347 715 347 663.5 386 c 128,-1,45
 612 425 612 425 523 434 c 1,46,-1
 523 0 l 1,47,-1
 446 0 l 1,48,49
 405 56 405 56 355.5 98 c 128,-1,50
 306 140 306 140 240.5 168.5 c 128,-1,51
 175 197 175 197 85 212 c 1,52,-1
 49 303 l 1,53,54
 80 324 80 324 114 343 c 128,-1,55
 148 362 148 362 183.5 380 c 128,-1,56
 219 398 219 398 253 414 c 1,57,58
 215 443 215 443 165.5 465.5 c 128,-1,59
 116 488 116 488 49 502 c 1,60,-1
 80 570 l 1,61,-1
 82 551 l 1,62,-1
 37 551 l 1,63,-1
 37 622 l 1,64,-1
 748 622 l 1,0,-1
EndSplineSet
EndChar

StartChar: g
Encoding: 103 103 73
Width: 830
Flags: W
LayerCount: 2
Fore
SplineSet
434.5 -5 m 0,0,1
 367.5 -5 367.5 -5 323.5 28 c 128,-1,2
 279.5 61 279.5 61 253.5 111 c 128,-1,3
 227.5 161 227.5 161 217.5 219 c 128,-1,4
 207.5 277 207.5 277 207.5 328 c 0,5,6
 207.5 384 207.5 384 219 437.5 c 128,-1,7
 230.5 491 230.5 491 257.5 532.5 c 128,-1,8
 284.5 574 284.5 574 328 599.5 c 128,-1,9
 371.5 625 371.5 625 435.5 625 c 0,10,11
 466.5 625 466.5 625 495 616.5 c 128,-1,12
 523.5 608 523.5 608 545.5 589.5 c 128,-1,13
 567.5 571 567.5 571 580.5 540.5 c 128,-1,14
 593.5 510 593.5 510 593.5 466 c 0,15,16
 593.5 450 593.5 450 587 440.5 c 128,-1,17
 580.5 431 580.5 431 571 425.5 c 128,-1,18
 561.5 420 561.5 420 551.5 418.5 c 128,-1,19
 541.5 417 541.5 417 535.5 417 c 0,20,21
 521.5 417 521.5 417 509 427 c 128,-1,22
 496.5 437 496.5 437 496.5 466 c 0,23,24
 496.5 511 496.5 511 476 529 c 128,-1,25
 455.5 547 455.5 547 426.5 547 c 0,26,27
 406.5 547 406.5 547 388 530.5 c 128,-1,28
 369.5 514 369.5 514 355.5 483.5 c 128,-1,29
 341.5 453 341.5 453 333.5 410 c 128,-1,30
 325.5 367 325.5 367 325.5 314 c 0,31,32
 325.5 285 325.5 285 329 245 c 128,-1,33
 332.5 205 332.5 205 344.5 169 c 128,-1,34
 356.5 133 356.5 133 378.5 107.5 c 128,-1,35
 400.5 82 400.5 82 436.5 82 c 0,36,37
 465.5 82 465.5 82 482 96.5 c 128,-1,38
 498.5 111 498.5 111 506 132 c 128,-1,39
 513.5 153 513.5 153 515 175.5 c 128,-1,40
 516.5 198 516.5 198 515.5 214 c 256,41,42
 514.5 230 514.5 230 502 231.5 c 128,-1,43
 489.5 233 489.5 233 466.5 233 c 2,44,-1
 415.5 233 l 2,45,46
 409.5 233 409.5 233 404.5 239 c 128,-1,47
 399.5 245 399.5 245 396.5 253.5 c 128,-1,48
 393.5 262 393.5 262 391.5 271 c 128,-1,49
 389.5 280 389.5 280 389.5 286 c 0,50,51
 389.5 302 389.5 302 400 314.5 c 128,-1,52
 410.5 327 410.5 327 433.5 327 c 2,53,-1
 541.5 326 l 2,54,55
 572.5 326 572.5 326 597.5 306 c 128,-1,56
 622.5 286 622.5 286 622.5 249 c 0,57,58
 622.5 206 622.5 206 613 161 c 128,-1,59
 603.5 116 603.5 116 581.5 79 c 128,-1,60
 559.5 42 559.5 42 523.5 18.5 c 128,-1,61
 487.5 -5 487.5 -5 434.5 -5 c 0,0,1
339.5 58 m 0,62,63
 339.5 62 339.5 62 319.5 84 c 0,64,65
 310.5 93 310.5 93 301.5 106.5 c 128,-1,66
 292.5 120 292.5 120 285 133 c 128,-1,67
 277.5 146 277.5 146 273 157.5 c 128,-1,68
 268.5 169 268.5 169 268.5 173 c 0,69,70
 268.5 178 268.5 178 265.5 179.5 c 128,-1,71
 262.5 181 262.5 181 261.5 181 c 0,72,73
 253.5 181 253.5 181 253.5 170 c 256,74,75
 253.5 159 253.5 159 262.5 139 c 128,-1,76
 271.5 119 271.5 119 284 99.5 c 128,-1,77
 296.5 80 296.5 80 310 66 c 128,-1,78
 323.5 52 323.5 52 333.5 52 c 0,79,80
 339.5 52 339.5 52 339.5 58 c 0,62,63
362.5 45 m 0,81,82
 362.5 52 362.5 52 355.5 52 c 0,83,84
 351.5 52 351.5 52 350 49 c 128,-1,85
 348.5 46 348.5 46 348.5 44 c 0,86,87
 348.5 39 348.5 39 351 38 c 128,-1,88
 353.5 37 353.5 37 355.5 37 c 0,89,90
 362.5 37 362.5 37 362.5 45 c 0,81,82
EndSplineSet
EndChar

StartChar: h
Encoding: 104 104 74
Width: 830
Flags: W
LayerCount: 2
Fore
SplineSet
287.509765625 0 m 0,0,1
 262.509765625 0 262.509765625 0 252.509765625 14.5 c 128,-1,2
 242.509765625 29 242.509765625 29 242.509765625 65 c 2,3,-1
 242.509765625 343 l 2,4,5
 242.509765625 434 242.509765625 434 240.509765625 518 c 0,6,7
 239.509765625 616 239.509765625 616 290.509765625 616 c 0,8,9
 309.509765625 616 309.509765625 616 327.509765625 606.5 c 128,-1,10
 345.509765625 597 345.509765625 597 345.509765625 571 c 2,11,-1
 345.509765625 358 l 2,12,13
 345.509765625 318 345.509765625 318 349.509765625 318 c 256,14,15
 353.509765625 318 353.509765625 318 358.509765625 334 c 128,-1,16
 363.509765625 350 363.509765625 350 375.509765625 369.5 c 128,-1,17
 387.509765625 389 387.509765625 389 409.509765625 405 c 128,-1,18
 431.509765625 421 431.509765625 421 467.509765625 421 c 0,19,20
 531.509765625 421 531.509765625 421 560.509765625 358 c 128,-1,21
 589.509765625 295 589.509765625 295 589.509765625 157 c 2,22,-1
 589.509765625 31 l 2,23,24
 589.509765625 0 589.509765625 0 533.509765625 0 c 0,25,26
 506.509765625 0 506.509765625 0 494.509765625 11.5 c 128,-1,27
 482.509765625 23 482.509765625 23 482.509765625 34 c 2,28,-1
 482.509765625 148 l 2,29,30
 482.509765625 200 482.509765625 200 479.509765625 232 c 128,-1,31
 476.509765625 264 476.509765625 264 470.509765625 282 c 128,-1,32
 464.509765625 300 464.509765625 300 455.009765625 306.5 c 128,-1,33
 445.509765625 313 445.509765625 313 431.509765625 313 c 0,34,35
 410.509765625 313 410.509765625 313 395.009765625 293.5 c 128,-1,36
 379.509765625 274 379.509765625 274 369.509765625 241 c 128,-1,37
 359.509765625 208 359.509765625 208 355.009765625 163.5 c 0,38,39
 350.509765625 123 350.509765625 123 350.509765625 121 c 2,40,-1
 350.509765625 45 l 2,41,42
 350.509765625 30 350.509765625 30 343.009765625 21 c 128,-1,43
 335.509765625 12 335.509765625 12 325.509765625 7.5 c 128,-1,44
 315.509765625 3 315.509765625 3 305.009765625 1.5 c 128,-1,45
 294.509765625 0 294.509765625 0 287.509765625 0 c 0,0,1
262.509765625 316 m 0,46,47
 265.509765625 316 265.509765625 316 267.509765625 328 c 128,-1,48
 269.509765625 340 269.509765625 340 271.509765625 355 c 128,-1,49
 273.509765625 370 273.509765625 370 274.509765625 482 c 128,-1,50
 275.509765625 594 275.509765625 594 275.509765625 595 c 0,51,52
 275.509765625 597 275.509765625 597 275.009765625 600 c 128,-1,53
 274.509765625 603 274.509765625 603 272.509765625 603 c 0,54,55
 267.509765625 603 267.509765625 603 264.009765625 595.5 c 128,-1,56
 260.509765625 588 260.509765625 588 258.509765625 479 c 128,-1,57
 256.509765625 370 256.509765625 370 255.509765625 360.5 c 128,-1,58
 254.509765625 351 254.509765625 351 254.509765625 348 c 0,59,60
 254.509765625 340 254.509765625 340 256.509765625 328 c 128,-1,61
 258.509765625 316 258.509765625 316 262.509765625 316 c 0,46,47
519.509765625 29 m 0,62,63
 519.509765625 35 519.509765625 35 517.509765625 38 c 128,-1,64
 515.509765625 41 515.509765625 41 513.009765625 43 c 128,-1,65
 510.509765625 45 510.509765625 45 508.509765625 49 c 128,-1,66
 506.509765625 53 506.509765625 53 506.509765625 60 c 0,67,68
 506.509765625 76 506.509765625 76 505.009765625 80 c 128,-1,69
 503.509765625 84 503.509765625 84 498.509765625 84 c 256,70,71
 493.509765625 84 493.509765625 84 492.009765625 76.5 c 128,-1,72
 490.509765625 69 490.509765625 69 490.509765625 59 c 0,73,74
 490.509765625 39 490.509765625 39 496.509765625 27 c 128,-1,75
 502.509765625 15 502.509765625 15 510.509765625 15 c 0,76,77
 513.509765625 15 513.509765625 15 516.509765625 18.5 c 128,-1,78
 519.509765625 22 519.509765625 22 519.509765625 29 c 0,62,63
286.509765625 26 m 0,79,80
 286.509765625 31 286.509765625 31 284.009765625 33.5 c 128,-1,81
 281.509765625 36 281.509765625 36 278.509765625 38.5 c 128,-1,82
 275.509765625 41 275.509765625 41 273.009765625 45 c 128,-1,83
 270.509765625 49 270.509765625 49 270.509765625 56 c 0,84,85
 270.509765625 77 270.509765625 77 263.509765625 77 c 0,86,87
 261.509765625 77 261.509765625 77 259.509765625 69.5 c 128,-1,88
 257.509765625 62 257.509765625 62 257.509765625 51 c 0,89,90
 257.509765625 36 257.509765625 36 264.009765625 24 c 128,-1,91
 270.509765625 12 270.509765625 12 278.509765625 12 c 0,92,93
 280.509765625 12 280.509765625 12 283.509765625 16 c 128,-1,94
 286.509765625 20 286.509765625 20 286.509765625 26 c 0,79,80
EndSplineSet
EndChar

StartChar: i
Encoding: 105 105 75
Width: 830
Flags: W
LayerCount: 2
Fore
SplineSet
406.674804688 -4 m 256,0,1
 382.674804688 -4 382.674804688 -4 369.674804688 6.5 c 128,-1,2
 356.674804688 17 356.674804688 17 356.674804688 32 c 2,3,-1
 356.674804688 387 l 2,4,5
 356.674804688 396 356.674804688 396 359.174804688 408 c 128,-1,6
 361.674804688 420 361.674804688 420 367.174804688 430 c 128,-1,7
 372.674804688 440 372.674804688 440 382.174804688 447 c 128,-1,8
 391.674804688 454 391.674804688 454 406.674804688 454 c 256,9,10
 421.674804688 454 421.674804688 454 432.174804688 448 c 128,-1,11
 442.674804688 442 442.674804688 442 449.174804688 433 c 128,-1,12
 455.674804688 424 455.674804688 424 459.174804688 413 c 128,-1,13
 462.674804688 402 462.674804688 402 462.674804688 392 c 2,14,-1
 462.674804688 32 l 2,15,16
 462.674804688 16 462.674804688 16 446.674804688 6 c 128,-1,17
 430.674804688 -4 430.674804688 -4 406.674804688 -4 c 256,0,1
374.674804688 357 m 0,18,19
 377.674804688 357 377.674804688 357 378.674804688 363 c 128,-1,20
 379.674804688 369 379.674804688 369 379.674804688 377.5 c 128,-1,21
 379.674804688 386 379.674804688 386 380.174804688 395.5 c 128,-1,22
 380.674804688 405 380.674804688 405 382.674804688 411 c 0,23,24
 383.674804688 415 383.674804688 415 385.674804688 422 c 128,-1,25
 387.674804688 429 387.674804688 429 384.674804688 429 c 0,26,27
 379.674804688 429 379.674804688 429 376.174804688 423.5 c 128,-1,28
 372.674804688 418 372.674804688 418 370.174804688 410.5 c 128,-1,29
 367.674804688 403 367.674804688 403 366.674804688 395.5 c 128,-1,30
 365.674804688 388 365.674804688 388 365.674804688 383 c 0,31,32
 365.674804688 374 365.674804688 374 367.674804688 365.5 c 128,-1,33
 369.674804688 357 369.674804688 357 374.674804688 357 c 0,18,19
410.141601562 523.2265625 m 4,34,35
 374.674804688 523 374.674804688 523 349.676757812 552.055664062 c 132,-1,36
 324.674804688 581 324.674804688 581 324.51953125 626.186523438 c 4,37,38
 324.674804688 651 324.674804688 651 332.022460938 673.033203125 c 4,39,40
 339.674804688 695 339.674804688 695 352.765625 711.12890625 c 4,41,42
 365.674804688 727 365.674804688 727 384.54296875 736.868164062 c 4,43,44
 402.674804688 747 402.674804688 747 425.147460938 746.649414062 c 4,45,46
 442.674804688 747 442.674804688 747 457.806640625 737.8984375 c 4,47,48
 472.674804688 729 472.674804688 729 483.40625 713.702148438 c 4,49,50
 493.674804688 698 493.674804688 698 499.735351562 678.696289062 c 4,51,52
 505.674804688 659 505.674804688 659 505.473632812 637.51171875 c 4,53,54
 505.674804688 610 505.674804688 610 497.969726562 588.606445312 c 4,55,56
 490.674804688 567 490.674804688 567 477.2265625 553.083984375 c 132,-1,57
 463.674804688 539 463.674804688 539 446.7734375 530.948242188 c 4,58,59
 428.674804688 523 428.674804688 523 410.141601562 523.2265625 c 4,34,35
377.481445312 701.34765625 m 4,60,61
 383.674804688 709 383.674804688 709 384.984375 713.702148438 c 4,62,63
 386.674804688 719 386.674804688 719 384.54296875 718.850585938 c 4,64,65
 377.674804688 719 377.674804688 719 369.537109375 711.12890625 c 4,66,67
 361.674804688 703 361.674804688 703 354.97265625 692.595703125 c 4,68,69
 348.674804688 682 348.674804688 682 343.939453125 669.4296875 c 4,70,71
 338.674804688 654 338.674804688 654 339.525390625 646.778320312 c 4,72,73
 339.674804688 645 339.674804688 645 340.848632812 638.541015625 c 4,74,75
 341.674804688 632 341.674804688 632 344.822265625 632.36328125 c 4,76,77
 348.674804688 633 348.674804688 633 353.6484375 655.015625 c 4,78,79
 356.674804688 669 356.674804688 669 363.358398438 681.26953125 c 4,80,81
 369.674804688 693 369.674804688 693 377.481445312 701.34765625 c 4,60,61
413.671875 581.913085938 m 4,82,83
 424.674804688 582 424.674804688 582 438.829101562 596.328125 c 4,84,85
 453.674804688 611 453.674804688 611 453.393554688 637.51171875 c 4,86,87
 453.674804688 658 453.674804688 658 444.125976562 672.002929688 c 132,-1,88
 434.674804688 686 434.674804688 686 419.850585938 685.903320312 c 260,89,90
 404.674804688 686 404.674804688 686 392.487304688 672.002929688 c 4,91,92
 379.674804688 657 379.674804688 657 380.12890625 633.393554688 c 260,93,94
 380.674804688 609 380.674804688 609 389.838867188 595.298828125 c 4,95,96
 399.674804688 582 399.674804688 582 413.671875 581.913085938 c 4,82,83
EndSplineSet


EndChar

StartChar: j
Encoding: 106 106 76
Width: 830
Flags: W
LayerCount: 2
Fore
SplineSet
451 559 m 256,0,1
 425 559 425 559 409 574.5 c 128,-1,2
 393 590 393 590 393 616 c 0,3,4
 393 643 393 643 409.5 660 c 128,-1,5
 426 677 426 677 453 677 c 256,6,7
 480 677 480 677 497 661.5 c 128,-1,8
 514 646 514 646 514 621 c 0,9,10
 514 595 514 595 495.5 577 c 128,-1,11
 477 559 477 559 451 559 c 256,0,1
419 618 m 0,12,13
 421 627 421 627 424.5 631.5 c 128,-1,14
 428 636 428 636 432 638.5 c 128,-1,15
 436 641 436 641 439 643.5 c 128,-1,16
 442 646 442 646 442 650 c 0,17,18
 442 660 442 660 432 660 c 0,19,20
 420 660 420 660 412 646.5 c 128,-1,21
 404 633 404 633 404 618 c 0,22,23
 404 611 404 611 405.5 601.5 c 128,-1,24
 407 592 407 592 413 592 c 0,25,26
 418 592 418 592 418 603.5 c 128,-1,27
 418 615 418 615 419 618 c 0,12,13
506 82 m 2,28,29
 506 35 506 35 499.5 -3.5 c 128,-1,30
 493 -42 493 -42 478 -69.5 c 128,-1,31
 463 -97 463 -97 437.5 -112 c 128,-1,32
 412 -127 412 -127 373 -127 c 0,33,34
 342 -127 342 -127 329 -113.5 c 128,-1,35
 316 -100 316 -100 316 -72 c 0,36,37
 316 -56 316 -56 321 -38.5 c 128,-1,38
 326 -21 326 -21 340 -21 c 0,39,40
 347 -21 347 -21 353.5 -23.5 c 128,-1,41
 360 -26 360 -26 368 -26 c 0,42,43
 384 -26 384 -26 392 -3 c 128,-1,44
 400 20 400 20 400 82 c 2,45,-1
 400 439 l 2,46,47
 400 448 400 448 402.5 460 c 128,-1,48
 405 472 405 472 410.5 482 c 128,-1,49
 416 492 416 492 425.5 499 c 128,-1,50
 435 506 435 506 450 506 c 256,51,52
 465 506 465 506 475.5 500 c 128,-1,53
 486 494 486 494 492.5 485 c 128,-1,54
 499 476 499 476 502.5 465 c 128,-1,55
 506 454 506 454 506 444 c 2,56,-1
 506 82 l 2,28,29
418 409 m 0,57,58
 421 409 421 409 422 415 c 128,-1,59
 423 421 423 421 423 429.5 c 128,-1,60
 423 438 423 438 423.5 447.5 c 128,-1,61
 424 457 424 457 426 463 c 0,62,63
 427 467 427 467 429 474 c 128,-1,64
 431 481 431 481 428 481 c 0,65,66
 423 481 423 481 419.5 475.5 c 128,-1,67
 416 470 416 470 413.5 462.5 c 128,-1,68
 411 455 411 455 410 447.5 c 128,-1,69
 409 440 409 440 409 435 c 0,70,71
 409 426 409 426 411 417.5 c 128,-1,72
 413 409 413 409 418 409 c 0,57,58
360 -103 m 0,73,74
 360 -91 360 -91 351.5 -83 c 128,-1,75
 343 -75 343 -75 343 -66 c 0,76,77
 343 -52 343 -52 340.5 -47.5 c 128,-1,78
 338 -43 338 -43 334 -43 c 0,79,80
 331 -43 331 -43 329.5 -49.5 c 128,-1,81
 328 -56 328 -56 328 -64 c 0,82,83
 328 -83 328 -83 335 -97 c 128,-1,84
 342 -111 342 -111 350 -111 c 0,85,86
 353 -111 353 -111 356.5 -109.5 c 128,-1,87
 360 -108 360 -108 360 -103 c 0,73,74
EndSplineSet


EndChar

StartChar: k
Encoding: 107 107 77
Width: 830
Flags: W
LayerCount: 2
Fore
SplineSet
739 622 m 1,0,-1
 739 551 l 1,1,-1
 508 551 l 1,2,-1
 508 489 l 1,3,-1
 508 473 l 1,4,-1
 508 0 l 1,5,-1
 431 0 l 1,6,7
 402 59 402 59 350 111 c 128,-1,8
 298 163 298 163 231.5 198.5 c 128,-1,9
 165 234 165 234 92 243 c 1,10,-1
 53 339 l 1,11,12
 150 395 150 395 247 439 c 128,-1,13
 344 483 344 483 453 517 c 1,14,-1
 431 475 l 1,15,-1
 431 551 l 1,16,-1
 79 551 l 5,17,-1
 79 622 l 5,18,-1
 739 622 l 1,0,-1
431 467 m 1,19,-1
 452 438 l 1,20,21
 401 424 401 424 346.5 401 c 128,-1,22
 292 378 292 378 240.5 353 c 128,-1,23
 189 328 189 328 146 304 c 1,24,25
 202 293 202 293 261.5 262 c 128,-1,26
 321 231 321 231 370.5 186.5 c 128,-1,27
 420 142 420 142 444 90 c 1,28,-1
 436 88 l 1,29,30
 434 111 434 111 432.5 134 c 128,-1,31
 431 157 431 157 431 189 c 2,32,-1
 431 467 l 1,19,-1
777 288 m 0,33,34
 777 255 777 255 764 225.5 c 128,-1,35
 751 196 751 196 721 177 c 128,-1,36
 691 158 691 158 641 158 c 0,37,38
 625 158 625 158 610.5 159 c 128,-1,39
 596 160 596 160 582 163 c 1,40,-1
 588 235 l 1,41,42
 594 234 594 234 602.5 233.5 c 128,-1,43
 611 233 611 233 622 233 c 0,44,45
 670 233 670 233 684.5 251.5 c 128,-1,46
 699 270 699 270 699 296 c 0,47,48
 699 349 699 349 647.5 386.5 c 128,-1,49
 596 424 596 424 495 438 c 1,50,-1
 498 513 l 1,51,52
 575 505 575 505 638 474.5 c 128,-1,53
 701 444 701 444 739 396.5 c 128,-1,54
 777 349 777 349 777 288 c 0,33,34
EndSplineSet
EndChar

StartChar: l
Encoding: 108 108 78
Width: 830
Flags: W
LayerCount: 2
Fore
SplineSet
736.5 622 m 5,0,-1
 736.5 551 l 5,1,-1
 683.5 551 l 1,2,-1
 683.5 0 l 1,3,-1
 606.5 0 l 1,4,-1
 606.5 335 l 1,5,-1
 612.5 309 l 1,6,7
 590.5 341 590.5 341 566 360 c 128,-1,8
 541.5 379 541.5 379 512.5 379 c 0,9,10
 497.5 379 497.5 379 482 373.5 c 128,-1,11
 466.5 368 466.5 368 456 353 c 128,-1,12
 445.5 338 445.5 338 445.5 307 c 0,13,14
 445.5 296 445.5 296 446 287.5 c 128,-1,15
 446.5 279 446.5 279 447.5 271 c 1,16,-1
 382.5 266 l 1,17,18
 378.5 307 378.5 307 360.5 335.5 c 128,-1,19
 342.5 364 342.5 364 316.5 379 c 128,-1,20
 290.5 394 290.5 394 260.5 394 c 0,21,22
 233.5 394 233.5 394 214.5 383.5 c 128,-1,23
 195.5 373 195.5 373 185.5 355.5 c 128,-1,24
 175.5 338 175.5 338 175.5 316 c 0,25,26
 175.5 276 175.5 276 205 248 c 128,-1,27
 234.5 220 234.5 220 288.5 201 c 1,28,-1
 261.5 127 l 1,29,30
 213.5 142 213.5 142 175.5 168 c 128,-1,31
 137.5 194 137.5 194 115.5 232 c 128,-1,32
 93.5 270 93.5 270 93.5 320 c 0,33,34
 93.5 365 93.5 365 115.5 397.5 c 128,-1,35
 137.5 430 137.5 430 174.5 448 c 128,-1,36
 211.5 466 211.5 466 255.5 466 c 0,37,38
 308.5 466 308.5 466 346.5 446.5 c 128,-1,39
 384.5 427 384.5 427 416.5 384 c 1,40,-1
 401.5 383 l 1,41,42
 411.5 416 411.5 416 440 433.5 c 128,-1,43
 468.5 451 468.5 451 499.5 451 c 0,44,45
 535.5 451 535.5 451 561.5 437 c 128,-1,46
 587.5 423 587.5 423 618.5 397 c 1,47,-1
 609.5 382 l 1,48,49
 608.5 403 608.5 403 607.5 424 c 128,-1,50
 606.5 445 606.5 445 606.5 467 c 2,51,-1
 606.5 551 l 1,52,-1
 119.5 551 l 1,53,-1
 119.5 622 l 1,54,-1
 736.5 622 l 5,0,-1
EndSplineSet
EndChar

StartChar: m
Encoding: 109 109 79
Width: 830
Flags: W
LayerCount: 2
Fore
SplineSet
701 622 m 5,0,-1
 701 551 l 5,1,-1
 635 551 l 1,2,-1
 635 0 l 1,3,-1
 558 0 l 1,4,-1
 558 135 l 1,5,-1
 576 82 l 1,6,7
 541 135 541 135 505.5 180 c 128,-1,8
 470 225 470 225 430.5 253 c 128,-1,9
 391 281 391 281 344 281 c 0,10,11
 307 281 307 281 281.5 262 c 128,-1,12
 256 243 256 243 256 205 c 0,13,14
 256 172 256 172 280 149.5 c 128,-1,15
 304 127 304 127 351 111 c 1,16,-1
 326 34 l 1,17,18
 272 53 272 53 238.5 80 c 128,-1,19
 205 107 205 107 189.5 139.5 c 128,-1,20
 174 172 174 172 174 208 c 0,21,22
 174 256 174 256 197.5 288 c 128,-1,23
 221 320 221 320 257.5 336.5 c 128,-1,24
 294 353 294 353 331 353 c 0,25,26
 391 353 391 353 436.5 331 c 128,-1,27
 482 309 482 309 516.5 272 c 128,-1,28
 551 235 551 235 579 189 c 1,29,-1
 562 186 l 1,30,31
 560 209 560 209 559 232.5 c 128,-1,32
 558 256 558 256 558 281 c 2,33,-1
 558 551 l 1,34,-1
 129 551 l 1,35,-1
 129 622 l 1,36,-1
 701 622 l 5,0,-1
407 323 m 0,37,38
 407 317 407 317 406.5 311 c 128,-1,39
 406 305 406 305 405 299 c 1,40,-1
 329 322 l 1,41,42
 327 380 327 380 309 415 c 128,-1,43
 291 450 291 450 252 468.5 c 128,-1,44
 213 487 213 487 146 494 c 1,45,-1
 159 566 l 1,46,-1
 205 553 l 1,47,48
 253 549 253 549 290.5 533.5 c 128,-1,49
 328 518 328 518 354 490 c 128,-1,50
 380 462 380 462 393.5 420.5 c 128,-1,51
 407 379 407 379 407 323 c 0,37,38
EndSplineSet
EndChar

StartChar: n
Encoding: 110 110 80
Width: 830
Flags: W
LayerCount: 2
Fore
SplineSet
670.5 622 m 1,0,-1
 670.5 551 l 1,1,-1
 622.5 551 l 1,2,-1
 622.5 0 l 1,3,-1
 545.5 0 l 1,4,-1
 545.5 243 l 1,5,-1
 561.5 187 l 1,6,7
 528.5 233 528.5 233 489.5 270 c 128,-1,8
 450.5 307 450.5 307 409.5 329 c 128,-1,9
 368.5 351 368.5 351 329.5 351 c 0,10,11
 292.5 351 292.5 351 267 331.5 c 128,-1,12
 241.5 312 241.5 312 241.5 274 c 0,13,14
 241.5 244 241.5 244 262.5 222.5 c 128,-1,15
 283.5 201 283.5 201 327.5 184 c 1,16,-1
 289.5 113 l 1,17,18
 228.5 138 228.5 138 194 180.5 c 128,-1,19
 159.5 223 159.5 223 159.5 277 c 0,20,21
 159.5 326 159.5 326 183 358.5 c 128,-1,22
 206.5 391 206.5 391 243 407 c 128,-1,23
 279.5 423 279.5 423 317.5 423 c 0,24,25
 369.5 423 369.5 423 412.5 405 c 128,-1,26
 455.5 387 455.5 387 493 356 c 128,-1,27
 530.5 325 530.5 325 564.5 284 c 1,28,-1
 550.5 280 l 1,29,30
 547.5 303 547.5 303 546.5 325.5 c 128,-1,31
 545.5 348 545.5 348 545.5 371 c 2,32,-1
 545.5 551 l 1,33,-1
 183.5 551 l 5,34,-1
 183.5 622 l 5,35,-1
 670.5 622 l 1,0,-1
EndSplineSet
EndChar

StartChar: o
Encoding: 111 111 81
Width: 830
Flags: W
LayerCount: 2
Fore
SplineSet
425 247.5 m 4,0,1
 400 247.5 400 247.5 382.5 263 c 132,-1,2
 365 278.5 365 278.5 365 305.5 c 4,3,4
 365 331.5 365 331.5 382.5 353 c 132,-1,5
 400 374.5 400 374.5 428 374.5 c 4,6,7
 487 374.5 487 374.5 487 314.5 c 4,8,9
 487 290.5 487 290.5 469.5 269 c 132,-1,10
 452 247.5 452 247.5 425 247.5 c 4,0,1
391 294.5 m 260,11,12
 396 294.5 396 294.5 396.5 301.5 c 132,-1,13
 397 308.5 397 308.5 399 312.5 c 4,14,15
 403 323.5 403 323.5 410 331.5 c 132,-1,16
 417 339.5 417 339.5 423 350.5 c 4,17,18
 424 352.5 424 352.5 422.5 355.5 c 132,-1,19
 421 358.5 421 358.5 419 358.5 c 4,20,21
 413 358.5 413 358.5 407 352.5 c 132,-1,22
 401 346.5 401 346.5 396 338 c 132,-1,23
 391 329.5 391 329.5 388 320.5 c 132,-1,24
 385 311.5 385 311.5 385 306.5 c 4,25,26
 385 304.5 385 304.5 385.5 299.5 c 132,-1,27
 386 294.5 386 294.5 391 294.5 c 260,11,12
412.5 -10 m 0,28,29
 340.5 -10 340.5 -10 287 17.5 c 128,-1,30
 233.5 45 233.5 45 198.5 88.5 c 128,-1,31
 163.5 132 163.5 132 146 186 c 128,-1,32
 128.5 240 128.5 240 128.5 294 c 0,33,34
 128.5 360 128.5 360 148.5 416 c 128,-1,35
 168.5 472 168.5 472 206 512.5 c 128,-1,36
 243.5 553 243.5 553 297.5 576 c 128,-1,37
 351.5 599 351.5 599 418.5 599 c 0,38,39
 480.5 599 480.5 599 532.5 576.5 c 128,-1,40
 584.5 554 584.5 554 622 514.5 c 128,-1,41
 659.5 475 659.5 475 680.5 420.5 c 128,-1,42
 701.5 366 701.5 366 701.5 303 c 0,43,44
 701.5 239 701.5 239 680 182 c 128,-1,45
 658.5 125 658.5 125 620 82.5 c 128,-1,46
 581.5 40 581.5 40 528.5 15 c 128,-1,47
 475.5 -10 475.5 -10 412.5 -10 c 0,28,29
414.5 67 m 0,48,49
 515.5 67 515.5 67 567 130.5 c 128,-1,50
 618.5 194 618.5 194 618.5 303 c 0,51,52
 618.5 347 618.5 347 605 387.5 c 128,-1,53
 591.5 428 591.5 428 565.5 459 c 128,-1,54
 539.5 490 539.5 490 502.5 508.5 c 128,-1,55
 465.5 527 465.5 527 418.5 527 c 0,56,57
 373.5 527 373.5 527 336 509 c 128,-1,58
 298.5 491 298.5 491 271.5 461 c 128,-1,59
 244.5 431 244.5 431 229.5 391 c 128,-1,60
 214.5 351 214.5 351 214.5 306 c 256,61,62
 214.5 261 214.5 261 228 218 c 128,-1,63
 241.5 175 241.5 175 267 141.5 c 128,-1,64
 292.5 108 292.5 108 329.5 87.5 c 128,-1,65
 366.5 67 366.5 67 414.5 67 c 0,48,49
EndSplineSet
EndChar

StartChar: p
Encoding: 112 112 82
Width: 830
Flags: W
LayerCount: 2
Fore
SplineSet
749.5 622 m 5,0,-1
 749.5 551 l 5,1,-1
 679.5 551 l 1,2,-1
 679.5 0 l 1,3,-1
 602.5 0 l 1,4,-1
 602.5 396 l 1,5,-1
 624.5 332 l 1,6,7
 583.5 392 583.5 392 549.5 434.5 c 128,-1,8
 515.5 477 515.5 477 485 504 c 128,-1,9
 454.5 531 454.5 531 423.5 543.5 c 128,-1,10
 392.5 556 392.5 556 356.5 556 c 0,11,12
 316.5 556 316.5 556 284 541 c 128,-1,13
 251.5 526 251.5 526 224.5 501 c 128,-1,14
 197.5 476 197.5 476 174.5 447 c 1,15,-1
 166.5 445 l 1,16,17
 182.5 455 182.5 455 198 460 c 128,-1,18
 213.5 465 213.5 465 232.5 465 c 0,19,20
 290.5 465 290.5 465 317.5 433.5 c 128,-1,21
 344.5 402 344.5 402 344.5 356 c 0,22,23
 344.5 345 344.5 345 343.5 335 c 128,-1,24
 342.5 325 342.5 325 340.5 320 c 1,25,-1
 323.5 326 l 1,26,27
 335.5 339 335.5 339 346.5 351 c 128,-1,28
 357.5 363 357.5 363 370 375 c 128,-1,29
 382.5 387 382.5 387 395.5 400 c 2,30,-1
 519.5 516 l 1,31,-1
 568.5 463 l 1,32,-1
 284.5 195 l 1,33,-1
 225.5 250 l 1,34,-1
 307.5 328 l 1,35,-1
 271.5 285 l 1,36,-1
 241.5 262 l 1,37,38
 256.5 279 256.5 279 267 298.5 c 128,-1,39
 277.5 318 277.5 318 277.5 343 c 256,40,41
 277.5 368 277.5 368 262.5 383 c 128,-1,42
 247.5 398 247.5 398 218.5 398 c 0,43,44
 202.5 398 202.5 398 187.5 394 c 128,-1,45
 172.5 390 172.5 390 156.5 380 c 1,46,-1
 80.5 452 l 1,47,48
 120.5 505 120.5 505 162.5 544.5 c 128,-1,49
 204.5 584 204.5 584 250.5 606.5 c 128,-1,50
 296.5 629 296.5 629 349.5 629 c 0,51,52
 405.5 629 405.5 629 450.5 608 c 128,-1,53
 495.5 587 495.5 587 537.5 545.5 c 128,-1,54
 579.5 504 579.5 504 625.5 441 c 1,55,-1
 607.5 446 l 1,56,57
 604.5 470 604.5 470 603.5 498 c 128,-1,58
 602.5 526 602.5 526 602.5 558 c 2,59,-1
 602.5 688 l 1,60,-1
 655.5 688 l 1,61,-1
 678.5 622 l 1,62,-1
 749.5 622 l 5,0,-1
EndSplineSet
EndChar

